<svg id="Line" xmlns="http://www.w3.org/2000/svg" viewBox="0 0 24 24" width="96" height="96"><path id="primary" d="M20.48,15a8.86,8.86,0,0,1-2.12,3.36A9,9,0,1,1,16,3.94" style="fill: none; stroke: currentColor;color:currentColor; stroke-linecap: round; stroke-linejoin: round; stroke-width: 0.75;"></path><path id="primary-2" data-name="primary" d="M13,7.13A3.66,3.66,0,0,0,12,7a4,4,0,1,0,3.46,6" style="fill: none; stroke: currentColor;color:currentColor; stroke-linecap: round; stroke-linejoin: round; stroke-width: 0.75;"></path><path id="primary-3" data-name="primary" d="M12,15a5,5,0,0,0-5,4.5,9,9,0,0,0,9.94,0A5,5,0,0,0,12,15Zm5-6h4M19,7v4" style="fill: none; stroke: currentColor;color:currentColor; stroke-linecap: round; stroke-linejoin: round; stroke-width: 0.75;"></path></svg>