<svg t="1741075293233" class="icon" viewBox="0 0 1024 1024" version="1.1" xmlns="http://www.w3.org/2000/svg" p-id="4558" width="200" height="200"><path d="M423.466667 141.568a42.666667 42.666667 0 0 1-2.048 60.288l-142.506667 132.992h336.512a280.576 280.576 0 1 1 0 561.152H170.666667a42.666667 42.666667 0 1 1 0-85.333333h444.757333a195.242667 195.242667 0 1 0 0-390.485334H278.912l142.506667 133.034667a42.666667 42.666667 0 1 1-58.24 62.378667L141.568 408.746667a42.666667 42.666667 0 0 1 0-62.421334L363.178667 139.52a42.666667 42.666667 0 0 1 60.288 2.090667z" fill="#2c2c2c" p-id="4559"></path></svg>