<svg t="1736410133397" class="icon" viewBox="0 0 1024 1024" version="1.1" xmlns="http://www.w3.org/2000/svg" p-id="8561" width="200" height="200"><path d="M877.166305 179.076538 435.369204 179.076538 146.778436 179.076538c-44.060495 0-79.917144 39.659255-79.917144 88.446401l0 488.926492c0 48.732911 35.856649 88.474031 79.917144 88.474031l274.955212 0 455.43368 0c44.11473 0 79.970356-39.686884 79.970356-88.474031L957.137685 324.458673l0-7.225565L957.137685 267.577175C957.137685 218.845287 921.282059 179.076538 877.166305 179.076538zM901.506666 455.335443l-0.24457 0 0 55.632041 0.24457 0 0 245.481947c0 17.819854-11.137665 32.841989-24.339338 32.841989L435.369204 789.29142l-288.591791-0.027629c-13.20065 0-24.338315-15.047718-24.338315-32.813337L122.439098 622.096491l-0.026606 0 0-222.528166 778.848581 0 0 0.1361 0.24457 0L901.505643 455.335443zM901.506666 317.233108l0 7.225565 0 19.612687L122.439098 344.07136l0-76.54842c0-17.819854 11.137665-32.81436 24.338315-32.81436l274.955212 0 455.43368 0c13.201673 0 24.339338 15.102976 24.339338 32.868595L901.505643 317.233108z"  p-id="8562"></path><path d="M845.629032 594.278935 678.732907 594.278935c-10.540054 0-20.156062 5.949502-24.88169 15.375176l-55.632041 111.264083c-4.319375 8.610098-3.857864 18.851347 1.221828 27.055193 5.079692 8.202822 14.016225 13.20065 23.659863 13.20065l166.896124 0c10.540054 0 20.156062-5.948479 24.882714-15.375176l55.631018-111.26306c4.319375-8.611122 3.857864-18.85237-1.221828-27.054169C864.209202 599.277786 855.272669 594.278935 845.629032 594.278935zM772.802376 705.544041 668.112012 705.544041l27.816532-55.632041 104.691387 0L772.802376 705.544041z"  p-id="8563"></path><path d="M261.492084 455.199343l-55.632041 0c-15.374152 0-27.816532 12.441357-27.816532 27.816532 0 15.375176 12.441357 27.816532 27.816532 27.816532l55.632041 0c15.374152 0 27.816532-12.441357 27.816532-27.816532C289.308617 467.6407 276.86726 455.199343 261.492084 455.199343z"  p-id="8564"></path><path d="M428.388209 455.199343l-55.631018 0c-15.375176 0-27.816532 12.441357-27.816532 27.816532 0 15.375176 12.440333 27.816532 27.816532 27.816532l55.631018 0c15.375176 0 27.816532-12.441357 27.816532-27.816532C456.203718 467.6407 443.763384 455.199343 428.388209 455.199343z" p-id="8565"></path><path d="M623.100866 483.015875c0-15.374152-12.441357-27.816532-27.816532-27.816532l-55.632041 0c-15.374152 0-27.816532 12.441357-27.816532 27.816532 0 15.375176 12.441357 27.816532 27.816532 27.816532l55.632041 0C610.659509 510.832408 623.100866 498.391051 623.100866 483.015875z" p-id="8566"></path></svg>