<svg t="1741075866916" class="icon" viewBox="0 0 1024 1024" version="1.1" xmlns="http://www.w3.org/2000/svg" p-id="3440" width="200" height="200"><path d="M204.8 307.2h51.2v51.2h-51.2zM204.8 358.4h51.2v51.2h-51.2z" fill="#000000" p-id="3441"></path><path d="M204.8 409.6h51.2v51.2h-51.2z" fill="#8548C5" p-id="3442"></path><path d="M153.6 409.6h51.2v51.2h-51.2zM512 409.6h-51.2v51.2h51.2zM102.4 460.8h51.2v51.2H102.4zM563.2 460.8h-51.2v51.2h51.2zM51.2 512h51.2v51.2H51.2zM614.4 512h-51.2v51.2h51.2zM0 563.2h51.2v51.2H0zM665.6 563.2h-51.2v51.2h51.2zM0 614.4h51.2v51.2H0zM665.6 614.4h-51.2v51.2h51.2zM0 665.6h51.2v51.2H0zM665.6 665.6h-51.2v51.2h51.2zM0 716.8h51.2v51.2H0zM665.6 716.8h-51.2v51.2h51.2zM0 768h51.2v51.2H0zM665.6 768h-51.2v51.2h51.2zM51.2 819.2h51.2v51.2H51.2zM102.4 870.4h51.2v51.2H102.4zM153.6 921.6h51.2v51.2h-51.2zM460.8 921.6h51.2v51.2h-51.2zM512 870.4h51.2v51.2h-51.2zM563.2 819.2h51.2v51.2h-51.2z" fill="#000000" p-id="3443"></path><path d="M204.8 460.8h51.2v51.2h-51.2zM153.6 460.8h51.2v51.2h-51.2z" fill="#8548C5" p-id="3444"></path><path d="M460.8 460.8h51.2v51.2h-51.2z" fill="#662C91" p-id="3445"></path><path d="M204.8 512h51.2v51.2h-51.2zM153.6 512h51.2v51.2h-51.2zM102.4 512h51.2v51.2H102.4z" fill="#8548C5" p-id="3446"></path><path d="M512 512h51.2v51.2h-51.2z" fill="#662C91" p-id="3447"></path><path d="M460.8 512h51.2v51.2h-51.2zM204.8 563.2h51.2v51.2h-51.2z" fill="#8548C5" p-id="3448"></path><path d="M153.6 563.2h51.2v51.2h-51.2z" fill="#FFFFFF" p-id="3449"></path><path d="M102.4 563.2h51.2v51.2H102.4zM51.2 563.2h51.2v51.2H51.2z" fill="#8548C5" p-id="3450"></path><path d="M563.2 563.2h51.2v51.2h-51.2z" fill="#662C91" p-id="3451"></path><path d="M512 563.2h51.2v51.2h-51.2zM460.8 563.2h51.2v51.2h-51.2zM204.8 614.4h51.2v51.2h-51.2zM153.6 614.4h51.2v51.2h-51.2z" fill="#8548C5" p-id="3452"></path><path d="M102.4 614.4h51.2v51.2H102.4z" fill="#FFFFFF" p-id="3453"></path><path d="M51.2 614.4h51.2v51.2H51.2z" fill="#8548C5" p-id="3454"></path><path d="M563.2 614.4h51.2v51.2h-51.2z" fill="#662C91" p-id="3455"></path><path d="M512 614.4h51.2v51.2h-51.2zM460.8 614.4h51.2v51.2h-51.2zM204.8 665.6h51.2v51.2h-51.2zM153.6 665.6h51.2v51.2h-51.2z" fill="#8548C5" p-id="3456"></path><path d="M102.4 665.6h51.2v51.2H102.4z" fill="#FFFFFF" p-id="3457"></path><path d="M51.2 665.6h51.2v51.2H51.2z" fill="#8548C5" p-id="3458"></path><path d="M563.2 665.6h51.2v51.2h-51.2z" fill="#662C91" p-id="3459"></path><path d="M512 665.6h51.2v51.2h-51.2zM460.8 665.6h51.2v51.2h-51.2zM204.8 716.8h51.2v51.2h-51.2z" fill="#8548C5" p-id="3460"></path><path d="M153.6 716.8h51.2v51.2h-51.2z" fill="#FFFFFF" p-id="3461"></path><path d="M102.4 716.8h51.2v51.2H102.4zM51.2 716.8h51.2v51.2H51.2z" fill="#8548C5" p-id="3462"></path><path d="M563.2 716.8h51.2v51.2h-51.2z" fill="#662C91" p-id="3463"></path><path d="M512 716.8h51.2v51.2h-51.2zM460.8 716.8h51.2v51.2h-51.2zM204.8 768h51.2v51.2h-51.2zM153.6 768h51.2v51.2h-51.2zM102.4 768h51.2v51.2H102.4zM51.2 768h51.2v51.2H51.2z" fill="#8548C5" p-id="3464"></path><path d="M563.2 768h51.2v51.2h-51.2z" fill="#662C91" p-id="3465"></path><path d="M512 768h51.2v51.2h-51.2zM460.8 768h51.2v51.2h-51.2z" fill="#8548C5" p-id="3466"></path><path d="M204.8 819.2h51.2v51.2h-51.2z" fill="#FFFFFF" p-id="3467"></path><path d="M153.6 819.2h51.2v51.2h-51.2zM102.4 819.2h51.2v51.2H102.4z" fill="#8548C5" p-id="3468"></path><path d="M512 819.2h51.2v51.2h-51.2z" fill="#662C91" p-id="3469"></path><path d="M460.8 819.2h51.2v51.2h-51.2zM204.8 870.4h51.2v51.2h-51.2zM153.6 870.4h51.2v51.2h-51.2z" fill="#8548C5" p-id="3470"></path><path d="M460.8 870.4h51.2v51.2h-51.2z" fill="#662C91" p-id="3471"></path><path d="M204.8 921.6h51.2v51.2h-51.2z" fill="#B376F5" p-id="3472"></path><path d="M204.8 972.8h51.2v51.2h-51.2zM256 307.2h51.2v51.2h-51.2z" fill="#000000" p-id="3473"></path><path d="M256 358.4h51.2v51.2h-51.2z" fill="#B376F5" p-id="3474"></path><path d="M256 409.6h51.2v51.2h-51.2zM256 460.8h51.2v51.2h-51.2zM256 512h51.2v51.2h-51.2zM256 563.2h51.2v51.2h-51.2zM256 614.4h51.2v51.2h-51.2zM256 665.6h51.2v51.2h-51.2zM256 716.8h51.2v51.2h-51.2zM256 768h51.2v51.2h-51.2zM256 819.2h51.2v51.2h-51.2zM256 870.4h51.2v51.2h-51.2z" fill="#8548C5" p-id="3475"></path><path d="M256 921.6h51.2v51.2h-51.2z" fill="#662C91" p-id="3476"></path><path d="M256 972.8h51.2v51.2h-51.2zM307.2 307.2h51.2v51.2h-51.2z" fill="#000000" p-id="3477"></path><path d="M307.2 358.4h51.2v51.2h-51.2z" fill="#B376F5" p-id="3478"></path><path d="M307.2 409.6h51.2v51.2h-51.2zM307.2 460.8h51.2v51.2h-51.2zM307.2 512h51.2v51.2h-51.2zM307.2 563.2h51.2v51.2h-51.2zM307.2 614.4h51.2v51.2h-51.2zM307.2 665.6h51.2v51.2h-51.2zM307.2 716.8h51.2v51.2h-51.2zM307.2 768h51.2v51.2h-51.2zM307.2 819.2h51.2v51.2h-51.2zM307.2 870.4h51.2v51.2h-51.2z" fill="#8548C5" p-id="3479"></path><path d="M307.2 921.6h51.2v51.2h-51.2z" fill="#662C91" p-id="3480"></path><path d="M307.2 972.8h51.2v51.2h-51.2zM307.2 256h51.2v51.2h-51.2zM358.4 204.8h51.2v51.2h-51.2zM409.6 153.6h51.2v51.2h-51.2zM460.8 153.6h51.2v51.2h-51.2zM512 204.8h51.2v51.2h-51.2zM563.2 256h51.2v51.2h-51.2zM614.4 256h51.2v51.2h-51.2zM665.6 204.8h51.2v51.2h-51.2z" fill="#000000" p-id="3481"></path><path d="M870.4 204.8h51.2v51.2h-51.2zM819.2 307.2h51.2v51.2h-51.2zM819.2 153.6h51.2V102.4h-51.2zM716.8 307.2h51.2v51.2h-51.2zM716.8 153.6h51.2V102.4h-51.2z" fill="#FF2881" p-id="3482"></path><path d="M665.6 358.4h51.2v51.2h-51.2zM665.6 102.4h51.2V51.2h-51.2z" fill="#FF7AAD" p-id="3483"></path><path d="M614.4 409.6h51.2v51.2h-51.2zM614.4 51.2h51.2V0h-51.2z" fill="#FFA1CD" p-id="3484"></path><path d="M870.4 358.4h51.2v51.2h-51.2zM870.4 102.4h51.2V51.2h-51.2z" fill="#FF7AAD" p-id="3485"></path><path d="M921.6 409.6h51.2v51.2h-51.2zM921.6 51.2h51.2V0h-51.2z" fill="#FFA1CD" p-id="3486"></path><path d="M716.8 204.8h51.2v51.2h-51.2z" fill="#B70C62" p-id="3487"></path><path d="M921.6 204.8h51.2v51.2h-51.2z" fill="#FF7AAD" p-id="3488"></path><path d="M768 204.8h51.2v51.2h-51.2z" fill="#FF2881" p-id="3489"></path><path d="M972.8 204.8h51.2v51.2h-51.2z" fill="#FFA1CD" p-id="3490"></path><path d="M358.4 307.2h51.2v51.2h-51.2z" fill="#000000" p-id="3491"></path><path d="M358.4 358.4h51.2v51.2h-51.2z" fill="#662C91" p-id="3492"></path><path d="M358.4 409.6h51.2v51.2h-51.2zM358.4 460.8h51.2v51.2h-51.2zM358.4 512h51.2v51.2h-51.2zM358.4 563.2h51.2v51.2h-51.2zM358.4 614.4h51.2v51.2h-51.2zM358.4 665.6h51.2v51.2h-51.2zM358.4 716.8h51.2v51.2h-51.2zM358.4 768h51.2v51.2h-51.2zM358.4 819.2h51.2v51.2h-51.2zM358.4 870.4h51.2v51.2h-51.2z" fill="#8548C5" p-id="3493"></path><path d="M358.4 921.6h51.2v51.2h-51.2z" fill="#662C91" p-id="3494"></path><path d="M358.4 972.8h51.2v51.2h-51.2zM409.6 307.2h51.2v51.2h-51.2zM409.6 358.4h51.2v51.2h-51.2z" fill="#000000" p-id="3495"></path><path d="M409.6 409.6h51.2v51.2h-51.2z" fill="#662C91" p-id="3496"></path><path d="M409.6 460.8h51.2v51.2h-51.2zM409.6 512h51.2v51.2h-51.2zM409.6 563.2h51.2v51.2h-51.2zM409.6 614.4h51.2v51.2h-51.2zM409.6 665.6h51.2v51.2h-51.2zM409.6 716.8h51.2v51.2h-51.2zM409.6 768h51.2v51.2h-51.2zM409.6 819.2h51.2v51.2h-51.2zM409.6 870.4h51.2v51.2h-51.2z" fill="#8548C5" p-id="3497"></path><path d="M409.6 921.6h51.2v51.2h-51.2z" fill="#662C91" p-id="3498"></path><path d="M409.6 972.8h51.2v51.2h-51.2z" fill="#000000" p-id="3499"></path></svg>