<svg t="1741075949284" class="icon" viewBox="0 0 1031 1024" version="1.1" xmlns="http://www.w3.org/2000/svg" p-id="3652" width="200" height="200"><path d="M546.035953 175.7184h60.592188v60.592188h-60.592188zM606.635671 236.306071h60.592188v60.592188h-60.592188zM243.094588 175.7184h60.592188v60.592188H243.094588zM121.893647 60.593694h60.592188v60.592188H121.893647zM0.718306 405.9648h60.592188v60.592188H0.718306zM848.999906 963.406306h60.592188v60.592188h-60.592188z" fill="#000000" p-id="3653"></path><path d="M848.999906 902.817129h60.592188v60.592189h-60.592188zM848.999906 842.223435h60.592188v60.592189h-60.592188z" fill="#A60000" p-id="3654"></path><path d="M848.999906 781.632753h60.592188v60.592188h-60.592188z" fill="#FFD800" p-id="3655"></path><path d="M848.999906 721.040565h60.592188v60.592188h-60.592188z" fill="#A60000" p-id="3656"></path><path d="M848.999906 660.449882h60.592188v60.592189h-60.592188z" fill="#A60000" p-id="3657"></path><path d="M485.446776 963.406306h60.592189v60.592188h-60.592189z" fill="#000000" p-id="3658"></path><path d="M485.446776 902.817129h60.592189v60.592189h-60.592189z" fill="#A60000" p-id="3659"></path><path d="M485.446776 842.223435h60.592189v60.592189h-60.592189z" fill="#FF0302" p-id="3660"></path><path d="M485.446776 781.632753h60.592189v60.592188h-60.592189zM485.446776 721.040565h60.592189v60.592188h-60.592189z" fill="#FFD800" p-id="3661"></path><path d="M485.446776 660.449882h60.592189v60.592189h-60.592189z" fill="#FFFFFF" p-id="3662"></path><path d="M485.446776 539.267012h60.592189v60.592188h-60.592189z" fill="#FF0302" p-id="3663"></path><path d="M485.446776 599.856188h60.592189v60.592188h-60.592189zM485.446776 478.673318h60.592189v60.592188h-60.592189z" fill="#FF0302" p-id="3664"></path><path d="M485.446776 418.082635h60.592189v60.592189h-60.592189z" fill="#FF0302" p-id="3665"></path><path d="M727.823059 963.406306h60.592188v60.592188H727.823059z" fill="#000000" p-id="3666"></path><path d="M727.823059 902.817129h60.592188v60.592189H727.823059z" fill="#A60000" p-id="3667"></path><path d="M727.823059 842.223435h60.592188v60.592189H727.823059z" fill="#FF0302" p-id="3668"></path><path d="M727.823059 781.632753h60.592188v60.592188H727.823059zM727.823059 721.040565h60.592188v60.592188H727.823059z" fill="#FFD800" p-id="3669"></path><path d="M727.823059 660.449882h60.592188v60.592189H727.823059z" fill="#FFFFFF" p-id="3670"></path><path d="M727.823059 599.856188h60.592188v60.592188H727.823059z" fill="#FF0302" p-id="3671"></path><path d="M364.269929 963.406306h60.592189v60.592188h-60.592189z" fill="#000000" p-id="3672"></path><path d="M364.269929 902.817129h60.592189v60.592189h-60.592189z" fill="#A60000" p-id="3673"></path><path d="M364.269929 842.223435h60.592189v60.592189h-60.592189z" fill="#FF0302" p-id="3674"></path><path d="M364.269929 781.632753h60.592189v60.592188h-60.592189z" fill="#FFD800" p-id="3675"></path><path d="M364.269929 721.040565h60.592189v60.592188h-60.592189z" fill="#FF0302" p-id="3676"></path><path d="M364.269929 660.449882h60.592189v60.592189h-60.592189z" fill="#FF0302" p-id="3677"></path><path d="M364.269929 599.856188h60.592189v60.592188h-60.592189z" fill="#A60000" p-id="3678"></path><path d="M606.635671 963.406306h60.592188v60.592188h-60.592188z" fill="#000000" p-id="3679"></path><path d="M606.635671 902.817129h60.592188v60.592189h-60.592188z" fill="#A60000" p-id="3680"></path><path d="M606.635671 842.223435h60.592188v60.592189h-60.592188z" fill="#FF0302" p-id="3681"></path><path d="M606.635671 781.632753h60.592188v60.592188h-60.592188z" fill="#FFD800" p-id="3682"></path><path d="M606.635671 721.040565h60.592188v60.592188h-60.592188z" fill="#FF0302" p-id="3683"></path><path d="M606.635671 660.449882h60.592188v60.592189h-60.592188z" fill="#FF0302" p-id="3684"></path><path d="M606.635671 599.856188h60.592188v60.592188h-60.592188z" fill="#A60000" p-id="3685"></path><path d="M243.094588 963.406306h60.592188v60.592188H243.094588z" fill="#000000" p-id="3686"></path><path d="M243.094588 902.817129h60.592188v60.592189H243.094588z" fill="#A60000" p-id="3687"></path><path d="M243.094588 842.223435h60.592188v60.592189H243.094588z" fill="#FF0302" p-id="3688"></path><path d="M243.094588 781.632753h60.592188v60.592188H243.094588zM243.094588 721.040565h60.592188v60.592188H243.094588z" fill="#FFD800" p-id="3689"></path><path d="M243.094588 660.449882h60.592188v60.592189H243.094588z" fill="#FFFFFF" p-id="3690"></path><path d="M243.094588 599.856188h60.592188v60.592188H243.094588z" fill="#A60000" p-id="3691"></path><path d="M667.223341 357.490447h60.592188v60.592188h-60.592188zM848.999906 539.267012h60.592188v60.592188h-60.592188zM848.999906 296.899765h60.592188v60.592188h-60.592188zM848.999906 60.593694h60.592188v60.592188h-60.592188zM606.635671 0h60.592188v60.592188h-60.592188zM909.587576 660.449882h60.592189v60.592189h-60.592189zM970.1888 781.632753h60.592188v60.592188h-60.592188zM606.635671 478.673318h60.592188v60.592188h-60.592188z" fill="#000000" p-id="3692"></path><path d="M606.635671 418.082635h60.592188v60.592189h-60.592188z" fill="#A60000" p-id="3693"></path><path d="M606.635671 357.490447h60.592188v60.592188h-60.592188z" fill="#FF0302" p-id="3694"></path><path d="M606.635671 296.899765h60.592188v60.592188h-60.592188zM243.094588 236.306071h60.592188v60.592188H243.094588zM667.223341 418.082635h60.592188v60.592189h-60.592188zM848.999906 599.856188h60.592188v60.592188h-60.592188zM848.999906 357.490447h60.592188v60.592188h-60.592188zM970.1888 478.673318h60.592188v60.592188h-60.592188zM909.587576 721.040565h60.592189v60.592188h-60.592189zM970.1888 842.223435h60.592188v60.592189h-60.592188zM909.587576 902.817129h60.592189v60.592189h-60.592189z" fill="#000000" p-id="3695"></path><path d="M909.587576 842.223435h60.592189v60.592189h-60.592189z" fill="#FFD800" p-id="3696"></path><path d="M909.587576 781.632753h60.592189v60.592188h-60.592189z" fill="#A60000" p-id="3697"></path><path d="M606.635671 539.267012h60.592188v60.592188h-60.592188z" fill="#000000" p-id="3698"></path><path d="M667.223341 599.856188h60.592188v60.592188h-60.592188zM727.823059 539.267012h60.592188v60.592188H727.823059zM788.412235 478.673318h60.592189v60.592188h-60.592189z" fill="#000000" p-id="3699"></path><path d="M546.035953 236.306071h60.592188v60.592188h-60.592188z" fill="#FF0302" p-id="3700"></path><path d="M485.446776 236.306071h60.592189v60.592188h-60.592189zM788.412235 963.406306h60.592189v60.592188h-60.592189z" fill="#000000" p-id="3701"></path><path d="M788.412235 902.817129h60.592189v60.592189h-60.592189z" fill="#A60000" p-id="3702"></path><path d="M788.412235 842.223435h60.592189v60.592189h-60.592189z" fill="#FF0302" p-id="3703"></path><path d="M788.412235 781.632753h60.592189v60.592188h-60.592189zM788.412235 721.040565h60.592189v60.592188h-60.592189z" fill="#FFD800" p-id="3704"></path><path d="M788.412235 660.449882h60.592189v60.592189h-60.592189zM788.412235 599.856188h60.592189v60.592188h-60.592189z" fill="#FF0302" p-id="3705"></path><path d="M788.412235 539.267012h60.592189v60.592188h-60.592189z" fill="#A60000" p-id="3706"></path><path d="M424.859106 963.406306h60.592188v60.592188h-60.592188z" fill="#000000" p-id="3707"></path><path d="M424.859106 902.817129h60.592188v60.592189h-60.592188z" fill="#A60000" p-id="3708"></path><path d="M424.859106 842.223435h60.592188v60.592189h-60.592188z" fill="#FFD800" p-id="3709"></path><path d="M424.859106 781.632753h60.592188v60.592188h-60.592188z" fill="#FFD800" p-id="3710"></path><path d="M424.859106 721.040565h60.592188v60.592188h-60.592188z" fill="#FFFFFF" p-id="3711"></path><path d="M424.859106 660.449882h60.592188v60.592189h-60.592188z" fill="#FF0302" p-id="3712"></path><path d="M424.859106 539.267012h60.592188v60.592188h-60.592188z" fill="#FFD800" p-id="3713"></path><path d="M424.859106 599.856188h60.592188v60.592188h-60.592188zM424.859106 478.673318h60.592188v60.592188h-60.592188z" fill="#FF0302" p-id="3714"></path><path d="M667.223341 963.406306h60.592188v60.592188h-60.592188z" fill="#000000" p-id="3715"></path><path d="M667.223341 902.817129h60.592188v60.592189h-60.592188z" fill="#A60000" p-id="3716"></path><path d="M667.223341 842.223435h60.592188v60.592189h-60.592188z" fill="#FFD800" p-id="3717"></path><path d="M667.223341 781.632753h60.592188v60.592188h-60.592188z" fill="#FFD800" p-id="3718"></path><path d="M667.223341 721.040565h60.592188v60.592188h-60.592188z" fill="#FFFFFF" p-id="3719"></path><path d="M667.223341 660.449882h60.592188v60.592189h-60.592188z" fill="#A60000" p-id="3720"></path><path d="M303.682259 963.406306h60.592188v60.592188h-60.592188z" fill="#000000" p-id="3721"></path><path d="M303.682259 902.817129h60.592188v60.592189h-60.592188z" fill="#A60000" p-id="3722"></path><path d="M303.682259 842.223435h60.592188v60.592189h-60.592188z" fill="#FF0302" p-id="3723"></path><path d="M303.682259 781.632753h60.592188v60.592188h-60.592188zM303.682259 721.040565h60.592188v60.592188h-60.592188z" fill="#FFD800" p-id="3724"></path><path d="M303.682259 660.449882h60.592188v60.592189h-60.592188z" fill="#FF0302" p-id="3725"></path><path d="M546.035953 963.406306h60.592188v60.592188h-60.592188z" fill="#000000" p-id="3726"></path><path d="M546.035953 902.817129h60.592188v60.592189h-60.592188z" fill="#A60000" p-id="3727"></path><path d="M546.035953 842.223435h60.592188v60.592189h-60.592188z" fill="#FF0302" p-id="3728"></path><path d="M546.035953 781.632753h60.592188v60.592188h-60.592188zM546.035953 721.040565h60.592188v60.592188h-60.592188z" fill="#FFD800" p-id="3729"></path><path d="M546.035953 660.449882h60.592188v60.592189h-60.592188zM546.035953 539.267012h60.592188v60.592188h-60.592188z" fill="#FF0302" p-id="3730"></path><path d="M546.035953 599.856188h60.592188v60.592188h-60.592188z" fill="#FFFFFF" p-id="3731"></path><path d="M546.035953 478.673318h60.592188v60.592188h-60.592188z" fill="#FF0302" p-id="3732"></path><path d="M546.035953 418.082635h60.592188v60.592189h-60.592188z" fill="#FFD800" p-id="3733"></path><path d="M182.482824 963.406306h60.592188v60.592188H182.482824z" fill="#000000" p-id="3734"></path><path d="M182.482824 902.817129h60.592188v60.592189H182.482824z" fill="#A60000" p-id="3735"></path><path d="M182.482824 842.223435h60.592188v60.592189H182.482824z" fill="#FFD800" p-id="3736"></path><path d="M182.482824 781.632753h60.592188v60.592188H182.482824z" fill="#FFD800" p-id="3737"></path><path d="M182.482824 721.040565h60.592188v60.592188H182.482824z" fill="#FFFFFF" p-id="3738"></path><path d="M182.482824 660.449882h60.592188v60.592189H182.482824zM182.482824 599.856188h60.592188v60.592188H182.482824zM546.035953 296.899765h60.592188v60.592188h-60.592188z" fill="#FF0302" p-id="3739"></path><path d="M485.446776 296.899765h60.592189v60.592188h-60.592189z" fill="#000000" p-id="3740"></path><path d="M546.035953 357.490447h60.592188v60.592188h-60.592188z" fill="#FF0302" p-id="3741"></path><path d="M485.446776 357.490447h60.592189v60.592188h-60.592189zM424.859106 418.082635h60.592188v60.592189h-60.592188z" fill="#000000" p-id="3742"></path><path d="M364.269929 478.673318h60.592189v60.592188h-60.592189zM243.094588 478.673318h60.592188v60.592188H243.094588z" fill="#000000" p-id="3743"></path><path d="M182.482824 478.673318h60.592188v60.592188H182.482824z" fill="#FF0302" p-id="3744"></path><path d="M182.482824 418.082635h60.592188v60.592189H182.482824zM364.269929 539.267012h60.592189v60.592188h-60.592189zM243.094588 539.267012h60.592188v60.592188H243.094588z" fill="#000000" p-id="3745"></path><path d="M182.482824 539.267012h60.592188v60.592188H182.482824z" fill="#FFD800" p-id="3746"></path><path d="M121.893647 478.673318h60.592188v60.592188H121.893647zM61.305976 599.856188h60.592189v60.592188H61.305976zM0.718306 721.040565h60.592188v60.592188H0.718306z" fill="#000000" p-id="3747"></path><path d="M121.893647 539.267012h60.592188v60.592188H121.893647zM61.305976 660.449882h60.592189v60.592189H61.305976zM0.718306 781.632753h60.592188v60.592188H0.718306z" fill="#000000" p-id="3748"></path><path d="M0.718306 842.223435h60.592188v60.592189H0.718306zM61.305976 902.817129h60.592189v60.592189H61.305976z" fill="#000000" p-id="3749"></path><path d="M61.305976 842.223435h60.592189v60.592189H61.305976z" fill="#FFD800" p-id="3750"></path><path d="M61.305976 781.632753h60.592189v60.592188H61.305976zM61.305976 721.040565h60.592189v60.592188H61.305976z" fill="#FF0302" p-id="3751"></path><path d="M121.893647 963.406306h60.592188v60.592188H121.893647z" fill="#000000" p-id="3752"></path><path d="M121.893647 902.817129h60.592188v60.592189H121.893647z" fill="#A60000" p-id="3753"></path><path d="M121.893647 842.223435h60.592188v60.592189H121.893647z" fill="#FF0302" p-id="3754"></path><path d="M121.893647 781.632753h60.592188v60.592188H121.893647z" fill="#FFD800" p-id="3755"></path><path d="M121.893647 721.040565h60.592188v60.592188H121.893647z" fill="#FF0302" p-id="3756"></path><path d="M121.893647 660.449882h60.592188v60.592189H121.893647zM121.893647 599.856188h60.592188v60.592188H121.893647z" fill="#FF0302" p-id="3757"></path><path d="M303.682259 599.856188h60.592188v60.592188h-60.592188z" fill="#000000" p-id="3758"></path></svg>