<svg t="1741075982310" class="icon" viewBox="0 0 1091 1024" version="1.1" xmlns="http://www.w3.org/2000/svg" p-id="4138" width="200" height="200"><path d="M409.538349 0.727777h68.165921v68.165921h-68.165921zM273.19899 68.892194h68.16592v68.165921h-68.16592zM136.880681 205.227043h68.165921v68.16592H136.880681z" fill="#231815" p-id="4139"></path><path d="M205.039084 205.227043h68.16592v68.16592h-68.16592z" fill="#E83A3A" p-id="4140"></path><path d="M0.539818 409.726308h68.165921v68.165921H0.539818z" fill="#231815" p-id="4141"></path><path d="M68.71025 409.726308h68.16592v68.165921H68.71025zM136.880681 409.726308h68.165921v68.165921H136.880681z" fill="#FFFFFF" p-id="4142"></path><path d="M205.039084 409.726308h68.16592v68.165921h-68.16592z" fill="#FFFFFF" p-id="4143"></path><path d="M0.539818 546.05815h68.165921v68.16592H0.539818z" fill="#231815" p-id="4144"></path><path d="M68.71025 546.05815h68.16592v68.16592H68.71025z" fill="#FFFFFF" p-id="4145"></path><path d="M136.880681 546.05815h68.165921v68.16592H136.880681z" fill="#E83A3A" p-id="4146"></path><path d="M205.039084 546.05815h68.16592v68.16592h-68.16592z" fill="#E83A3A" p-id="4147"></path><path d="M1023.036147 546.05815h68.165921v68.16592h-68.165921z" fill="#231815" p-id="4148"></path><path d="M954.865715 546.05815h68.165921v68.16592h-68.165921z" fill="#E83A3A" p-id="4149"></path><path d="M886.696787 546.05815h68.165921v68.16592h-68.165921z" fill="#FFFFFF" p-id="4150"></path><path d="M818.536881 546.05815h68.165921v68.16592h-68.165921z" fill="#FFFFFF" p-id="4151"></path><path d="M954.865715 409.726308h68.165921v68.165921h-68.165921z" fill="#231815" p-id="4152"></path><path d="M886.696787 409.726308h68.165921v68.165921h-68.165921z" fill="#FFFFFF" p-id="4153"></path><path d="M818.536881 409.726308h68.165921v68.165921h-68.165921z" fill="#FFFFFF" p-id="4154"></path><path d="M886.696787 273.394467h68.165921v68.165921h-68.165921z" fill="#231815" p-id="4155"></path><path d="M818.536881 273.394467h68.165921v68.165921h-68.165921zM273.19899 137.059618h68.16592v68.165921h-68.16592zM273.19899 205.227043h68.16592v68.16592h-68.16592zM273.19899 273.394467h68.16592v68.165921h-68.16592z" fill="#E83A3A" p-id="4156"></path><path d="M273.19899 341.558884h68.16592v68.165921h-68.16592zM273.19899 409.726308h68.16592v68.165921h-68.16592z" fill="#E83A3A" p-id="4157"></path><path d="M273.19899 477.890725h68.16592v68.165921h-68.16592zM273.19899 546.05815h68.16592v68.16592h-68.16592z" fill="#E83A3A" p-id="4158"></path><path d="M273.19899 614.225574h68.16592v68.165921h-68.16592zM273.19899 682.392999h68.16592v68.16592h-68.16592z" fill="#231815" p-id="4159"></path><path d="M273.19899 750.557416h68.16592v68.16592h-68.16592z" fill="#FFFFFF" p-id="4160"></path><path d="M273.19899 818.72484h68.16592v68.165921h-68.16592z" fill="#FFDFD2" p-id="4161"></path><path d="M273.19899 886.889257h68.16592v68.165921h-68.16592zM136.880681 273.394467h68.165921v68.165921H136.880681z" fill="#231815" p-id="4162"></path><path d="M205.039084 273.394467h68.16592v68.165921h-68.16592z" fill="#E83A3A" p-id="4163"></path><path d="M0.539818 477.890725h68.165921v68.165921H0.539818z" fill="#231815" p-id="4164"></path><path d="M68.71025 477.890725h68.16592v68.165921H68.71025zM136.880681 477.890725h68.165921v68.165921H136.880681z" fill="#FFFFFF" p-id="4165"></path><path d="M205.039084 477.890725h68.16592v68.165921h-68.16592z" fill="#E83A3A" p-id="4166"></path><path d="M1023.036147 477.890725h68.165921v68.165921h-68.165921z" fill="#231815" p-id="4167"></path><path d="M954.865715 477.890725h68.165921v68.165921h-68.165921z" fill="#E83A3A" p-id="4168"></path><path d="M886.696787 477.890725h68.165921v68.165921h-68.165921z" fill="#FFFFFF" p-id="4169"></path><path d="M818.536881 477.890725h68.165921v68.165921h-68.165921z" fill="#FFFFFF" p-id="4170"></path><path d="M954.865715 341.558884h68.165921v68.165921h-68.165921z" fill="#231815" p-id="4171"></path><path d="M886.696787 341.558884h68.165921v68.165921h-68.165921z" fill="#E83A3A" p-id="4172"></path><path d="M818.536881 341.558884h68.165921v68.165921h-68.165921z" fill="#FFFFFF" p-id="4173"></path><path d="M886.696787 205.227043h68.165921v68.16592h-68.165921z" fill="#231815" p-id="4174"></path><path d="M818.536881 205.227043h68.165921v68.16592h-68.165921z" fill="#E83A3A" p-id="4175"></path><path d="M0.539818 614.225574h68.165921v68.165921H0.539818z" fill="#231815" p-id="4176"></path><path d="M68.71025 614.225574h68.16592v68.165921H68.71025zM136.880681 614.225574h68.165921v68.165921H136.880681z" fill="#E83A3A" p-id="4177"></path><path d="M205.039084 614.225574h68.16592v68.165921h-68.16592z" fill="#E83A3A" p-id="4178"></path><path d="M1023.036147 614.225574h68.165921v68.165921h-68.165921z" fill="#231815" p-id="4179"></path><path d="M954.865715 614.225574h68.165921v68.165921h-68.165921zM886.696787 614.225574h68.165921v68.165921h-68.165921z" fill="#E83A3A" p-id="4180"></path><path d="M818.536881 614.225574h68.165921v68.165921h-68.165921z" fill="#FFFFFF" p-id="4181"></path><path d="M205.039084 818.72484h68.16592v68.165921h-68.16592zM818.536881 818.72484h68.165921v68.165921h-68.165921zM0.539818 682.392999h68.165921v68.16592H0.539818z" fill="#231815" p-id="4182"></path><path d="M68.71025 682.392999h68.16592v68.16592H68.71025z" fill="#E83A3A" p-id="4183"></path><path d="M136.880681 682.392999h68.165921v68.16592H136.880681z" fill="#231815" p-id="4184"></path><path d="M205.039084 682.392999h68.16592v68.16592h-68.16592zM1023.036147 682.392999h68.165921v68.16592h-68.165921z" fill="#231815" p-id="4185"></path><path d="M954.865715 682.392999h68.165921v68.16592h-68.165921z" fill="#E83A3A" p-id="4186"></path><path d="M886.696787 682.392999h68.165921v68.16592h-68.165921z" fill="#231815" p-id="4187"></path><path d="M818.536881 682.392999h68.165921v68.16592h-68.165921zM205.039084 886.889257h68.16592v68.165921h-68.16592zM818.536881 886.889257h68.165921v68.165921h-68.165921zM273.19899 955.059689h68.16592v68.16592h-68.16592zM477.708781 955.059689h68.165921v68.16592h-68.165921zM68.71025 750.557416h68.16592v68.16592H68.71025z" fill="#231815" p-id="4188"></path><path d="M886.696787 750.557416h68.165921v68.16592h-68.165921z" fill="#231815" p-id="4189"></path><path d="M818.536881 750.557416h68.165921v68.16592h-68.165921zM341.367918 955.059689h68.16592v68.16592h-68.16592zM545.867184 955.059689h68.16592v68.16592h-68.16592zM682.208047 955.059689h68.165921v68.16592h-68.165921zM136.880681 750.557416h68.165921v68.16592H136.880681z" fill="#231815" p-id="4190"></path><path d="M205.039084 750.557416h68.16592v68.16592h-68.16592z" fill="#FFFFFF" p-id="4191"></path><path d="M954.865715 750.557416h68.165921v68.16592h-68.165921zM409.538349 955.059689h68.165921v68.16592h-68.165921zM614.037615 955.059689h68.165921v68.16592h-68.165921zM750.378479 955.059689h68.16592v68.16592h-68.16592zM68.71025 341.558884h68.16592v68.165921H68.71025z" fill="#231815" p-id="4192"></path><path d="M136.880681 341.558884h68.165921v68.165921H136.880681z" fill="#FFFFFF" p-id="4193"></path><path d="M205.039084 341.558884h68.16592v68.165921h-68.16592z" fill="#FFFFFF" p-id="4194"></path><path d="M205.039084 137.059618h68.16592v68.165921h-68.16592z" fill="#231815" p-id="4195"></path><path d="M545.867184 68.892194h68.16592v68.165921h-68.16592zM545.867184 137.059618h68.16592v68.165921h-68.16592z" fill="#E83A3A" p-id="4196"></path><path d="M545.867184 205.227043h68.16592v68.16592h-68.16592zM545.867184 273.394467h68.16592v68.165921h-68.16592z" fill="#FFFFFF" p-id="4197"></path><path d="M545.867184 341.558884h68.16592v68.165921h-68.16592zM545.867184 409.726308h68.16592v68.165921h-68.16592z" fill="#E83A3A" p-id="4198"></path><path d="M545.867184 477.890725h68.16592v68.165921h-68.16592zM545.867184 546.05815h68.16592v68.16592h-68.16592z" fill="#E83A3A" p-id="4199"></path><path d="M545.867184 614.225574h68.16592v68.165921h-68.16592z" fill="#231815" p-id="4200"></path><path d="M545.867184 682.392999h68.16592v68.16592h-68.16592z" fill="#FFDFD2" p-id="4201"></path><path d="M545.867184 750.557416h68.16592v68.16592h-68.16592zM545.867184 818.72484h68.16592v68.165921h-68.16592z" fill="#FFFFFF" p-id="4202"></path><path d="M545.867184 886.889257h68.16592v68.165921h-68.16592z" fill="#FFDFD2" p-id="4203"></path><path d="M477.708781 0.727777h68.165921v68.165921h-68.165921zM341.367918 68.892194h68.16592v68.165921h-68.16592z" fill="#231815" p-id="4204"></path><path d="M341.367918 137.059618h68.16592v68.165921h-68.16592z" fill="#E83A3A" p-id="4205"></path><path d="M341.367918 205.227043h68.16592v68.16592h-68.16592zM341.367918 273.394467h68.16592v68.165921h-68.16592z" fill="#FFFFFF" p-id="4206"></path><path d="M341.367918 341.558884h68.16592v68.165921h-68.16592zM341.367918 409.726308h68.16592v68.165921h-68.16592z" fill="#E83A3A" p-id="4207"></path><path d="M341.367918 477.890725h68.16592v68.165921h-68.16592zM341.367918 546.05815h68.16592v68.16592h-68.16592z" fill="#E83A3A" p-id="4208"></path><path d="M341.367918 614.225574h68.16592v68.165921h-68.16592z" fill="#231815" p-id="4209"></path><path d="M341.367918 682.392999h68.16592v68.16592h-68.16592z" fill="#FFDFD2" p-id="4210"></path><path d="M341.367918 750.557416h68.16592v68.16592h-68.16592zM341.367918 818.72484h68.16592v68.165921h-68.16592z" fill="#FFFFFF" p-id="4211"></path><path d="M341.367918 886.889257h68.16592v68.165921h-68.16592z" fill="#FFDFD2" p-id="4212"></path><path d="M614.037615 68.892194h68.165921v68.165921h-68.165921zM614.037615 137.059618h68.165921v68.165921h-68.165921zM614.037615 205.227043h68.165921v68.16592h-68.165921zM614.037615 273.394467h68.165921v68.165921h-68.165921z" fill="#E83A3A" p-id="4213"></path><path d="M614.037615 341.558884h68.165921v68.165921h-68.165921z" fill="#E83A3A" p-id="4214"></path><path d="M614.037615 409.726308h68.165921v68.165921h-68.165921z" fill="#FFFFFF" p-id="4215"></path><path d="M614.037615 477.890725h68.165921v68.165921h-68.165921zM614.037615 546.05815h68.165921v68.16592h-68.165921z" fill="#FFFFFF" p-id="4216"></path><path d="M614.037615 614.225574h68.165921v68.165921h-68.165921zM614.037615 682.392999h68.165921v68.16592h-68.165921z" fill="#231815" p-id="4217"></path><path d="M614.037615 750.557416h68.165921v68.16592h-68.165921z" fill="#231815" p-id="4218"></path><path d="M614.037615 818.72484h68.165921v68.165921h-68.165921z" fill="#FFFFFF" p-id="4219"></path><path d="M614.037615 886.889257h68.165921v68.165921h-68.165921z" fill="#FFDFD2" p-id="4220"></path><path d="M545.867184 0.727777h68.16592v68.165921h-68.16592z" fill="#231815" p-id="4221"></path><path d="M409.538349 68.892194h68.165921v68.165921h-68.165921z" fill="#E83A3A" p-id="4222"></path><path d="M409.538349 137.059618h68.165921v68.165921h-68.165921zM409.538349 205.227043h68.165921v68.16592h-68.165921zM409.538349 273.394467h68.165921v68.165921h-68.165921z" fill="#FFFFFF" p-id="4223"></path><path d="M409.538349 341.558884h68.165921v68.165921h-68.165921z" fill="#FFFFFF" p-id="4224"></path><path d="M409.538349 409.726308h68.165921v68.165921h-68.165921z" fill="#E83A3A" p-id="4225"></path><path d="M409.538349 477.890725h68.165921v68.165921h-68.165921zM409.538349 546.05815h68.165921v68.16592h-68.165921z" fill="#E83A3A" p-id="4226"></path><path d="M409.538349 614.225574h68.165921v68.165921h-68.165921zM409.538349 682.392999h68.165921v68.16592h-68.165921z" fill="#231815" p-id="4227"></path><path d="M409.538349 750.557416h68.165921v68.16592h-68.165921z" fill="#231815" p-id="4228"></path><path d="M409.538349 818.72484h68.165921v68.165921h-68.165921z" fill="#FFFFFF" p-id="4229"></path><path d="M409.538349 886.889257h68.165921v68.165921h-68.165921z" fill="#FFDFD2" p-id="4230"></path><path d="M682.208047 68.892194h68.165921v68.165921h-68.165921z" fill="#231815" p-id="4231"></path><path d="M682.208047 137.059618h68.165921v68.165921h-68.165921z" fill="#FFFFFF" p-id="4232"></path><path d="M682.208047 205.227043h68.165921v68.16592h-68.165921zM682.208047 273.394467h68.165921v68.165921h-68.165921z" fill="#E83A3A" p-id="4233"></path><path d="M682.208047 341.558884h68.165921v68.165921h-68.165921zM682.208047 409.726308h68.165921v68.165921h-68.165921z" fill="#FFFFFF" p-id="4234"></path><path d="M682.208047 477.890725h68.165921v68.165921h-68.165921zM682.208047 546.05815h68.165921v68.16592h-68.165921z" fill="#FFFFFF" p-id="4235"></path><path d="M682.208047 614.225574h68.165921v68.165921h-68.165921z" fill="#231815" p-id="4236"></path><path d="M682.208047 682.392999h68.165921v68.16592h-68.165921z" fill="#FFDFD2" p-id="4237"></path><path d="M682.208047 750.557416h68.165921v68.16592h-68.165921zM682.208047 818.72484h68.165921v68.165921h-68.165921z" fill="#FFFFFF" p-id="4238"></path><path d="M682.208047 886.889257h68.165921v68.165921h-68.165921z" fill="#FFDFD2" p-id="4239"></path><path d="M614.037615 0.727777h68.165921v68.165921h-68.165921z" fill="#231815" p-id="4240"></path><path d="M477.708781 68.892194h68.165921v68.165921h-68.165921z" fill="#E83A3A" p-id="4241"></path><path d="M477.708781 137.059618h68.165921v68.165921h-68.165921zM477.708781 205.227043h68.165921v68.16592h-68.165921zM477.708781 273.394467h68.165921v68.165921h-68.165921z" fill="#FFFFFF" p-id="4242"></path><path d="M477.708781 341.558884h68.165921v68.165921h-68.165921z" fill="#FFFFFF" p-id="4243"></path><path d="M477.708781 409.726308h68.165921v68.165921h-68.165921z" fill="#E83A3A" p-id="4244"></path><path d="M477.708781 477.890725h68.165921v68.165921h-68.165921zM477.708781 546.05815h68.165921v68.16592h-68.165921z" fill="#E83A3A" p-id="4245"></path><path d="M477.708781 614.225574h68.165921v68.165921h-68.165921z" fill="#231815" p-id="4246"></path><path d="M477.708781 682.392999h68.165921v68.16592h-68.165921z" fill="#FFDFD2" p-id="4247"></path><path d="M477.708781 750.557416h68.165921v68.16592h-68.165921zM477.708781 818.72484h68.165921v68.165921h-68.165921z" fill="#FFFFFF" p-id="4248"></path><path d="M477.708781 886.889257h68.165921v68.165921h-68.165921z" fill="#FFDFD2" p-id="4249"></path><path d="M750.378479 68.892194h68.16592v68.165921h-68.16592z" fill="#231815" p-id="4250"></path><path d="M750.378479 137.059618h68.16592v68.165921h-68.16592z" fill="#FFFFFF" p-id="4251"></path><path d="M750.378479 205.227043h68.16592v68.16592h-68.16592zM750.378479 273.394467h68.16592v68.165921h-68.16592z" fill="#E83A3A" p-id="4252"></path><path d="M750.378479 341.558884h68.16592v68.165921h-68.16592zM750.378479 409.726308h68.16592v68.165921h-68.16592z" fill="#FFFFFF" p-id="4253"></path><path d="M750.378479 477.890725h68.16592v68.165921h-68.16592zM750.378479 546.05815h68.16592v68.16592h-68.16592z" fill="#FFFFFF" p-id="4254"></path><path d="M750.378479 614.225574h68.16592v68.165921h-68.16592zM750.378479 682.392999h68.16592v68.16592h-68.16592z" fill="#231815" p-id="4255"></path><path d="M750.378479 750.557416h68.16592v68.16592h-68.16592z" fill="#FFFFFF" p-id="4256"></path><path d="M750.378479 818.72484h68.16592v68.165921h-68.16592z" fill="#FFDFD2" p-id="4257"></path><path d="M750.378479 886.889257h68.16592v68.165921h-68.16592zM818.536881 137.059618h68.165921v68.165921h-68.165921z" fill="#231815" p-id="4258"></path></svg>