<svg t="1741075991585" class="icon" viewBox="0 0 1093 1024" version="1.1" xmlns="http://www.w3.org/2000/svg" p-id="4407" width="200" height="200"><path d="M409.6 0h68.266165v68.266165H409.6zM273.058635 68.264659h68.266165v68.266165h-68.266165zM136.541365 204.8h68.266164v68.266165H136.541365z" fill="#231815" p-id="4408"></path><path d="M204.8 204.8h68.266165v68.266165H204.8z" fill="#61AD18" p-id="4409"></path><path d="M0 409.6h68.266165v68.266165H0z" fill="#231815" p-id="4410"></path><path d="M68.270682 409.6h68.266165v68.266165H68.270682zM136.541365 409.6h68.266164v68.266165H136.541365z" fill="#FFFFFF" p-id="4411"></path><path d="M204.8 409.6h68.266165v68.266165H204.8z" fill="#FFFFFF" p-id="4412"></path><path d="M0 546.132329h68.266165v68.266165H0z" fill="#231815" p-id="4413"></path><path d="M68.270682 546.132329h68.266165v68.266165H68.270682z" fill="#FFFFFF" p-id="4414"></path><path d="M136.541365 546.132329h68.266164v68.266165H136.541365z" fill="#61AD18" p-id="4415"></path><path d="M204.8 546.132329h68.266165v68.266165H204.8z" fill="#61AD18" p-id="4416"></path><path d="M1024 546.132329h68.266165v68.266165H1024z" fill="#231815" p-id="4417"></path><path d="M955.729318 546.132329h68.266164v68.266165h-68.266164z" fill="#61AD18" p-id="4418"></path><path d="M887.458635 546.132329h68.266165v68.266165h-68.266165z" fill="#FFFFFF" p-id="4419"></path><path d="M819.2 546.132329h68.266165v68.266165H819.2z" fill="#FFFFFF" p-id="4420"></path><path d="M955.729318 409.6h68.266164v68.266165h-68.266164z" fill="#231815" p-id="4421"></path><path d="M887.458635 409.6h68.266165v68.266165h-68.266165z" fill="#FFFFFF" p-id="4422"></path><path d="M819.2 409.6h68.266165v68.266165H819.2z" fill="#FFFFFF" p-id="4423"></path><path d="M887.458635 273.067671h68.266165v68.266164h-68.266165z" fill="#231815" p-id="4424"></path><path d="M819.2 273.067671h68.266165v68.266164H819.2zM273.058635 136.532329h68.266165v68.266165h-68.266165zM273.058635 204.8h68.266165v68.266165h-68.266165zM273.058635 273.067671h68.266165v68.266164h-68.266165z" fill="#61AD18" p-id="4425"></path><path d="M273.058635 341.332329h68.266165v68.266165h-68.266165zM273.058635 409.6h68.266165v68.266165h-68.266165z" fill="#61AD18" p-id="4426"></path><path d="M273.058635 477.864659h68.266165v68.266165h-68.266165zM273.058635 546.132329h68.266165v68.266165h-68.266165z" fill="#61AD18" p-id="4427"></path><path d="M273.058635 614.4h68.266165v68.266165h-68.266165zM273.058635 682.667671h68.266165v68.266164h-68.266165z" fill="#231815" p-id="4428"></path><path d="M273.058635 750.932329h68.266165v68.266165h-68.266165z" fill="#FFFFFF" p-id="4429"></path><path d="M273.058635 819.2h68.266165v68.266165h-68.266165z" fill="#FFDFD2" p-id="4430"></path><path d="M273.058635 887.464659h68.266165v68.266165h-68.266165zM136.541365 273.067671h68.266164v68.266164H136.541365z" fill="#231815" p-id="4431"></path><path d="M204.8 273.067671h68.266165v68.266164H204.8z" fill="#61AD18" p-id="4432"></path><path d="M0 477.864659h68.266165v68.266165H0z" fill="#231815" p-id="4433"></path><path d="M68.270682 477.864659h68.266165v68.266165H68.270682zM136.541365 477.864659h68.266164v68.266165H136.541365z" fill="#FFFFFF" p-id="4434"></path><path d="M204.8 477.864659h68.266165v68.266165H204.8z" fill="#61AD18" p-id="4435"></path><path d="M1024 477.864659h68.266165v68.266165H1024z" fill="#231815" p-id="4436"></path><path d="M955.729318 477.864659h68.266164v68.266165h-68.266164z" fill="#61AD18" p-id="4437"></path><path d="M887.458635 477.864659h68.266165v68.266165h-68.266165z" fill="#FFFFFF" p-id="4438"></path><path d="M819.2 477.864659h68.266165v68.266165H819.2z" fill="#FFFFFF" p-id="4439"></path><path d="M955.729318 341.332329h68.266164v68.266165h-68.266164z" fill="#231815" p-id="4440"></path><path d="M887.458635 341.332329h68.266165v68.266165h-68.266165z" fill="#61AD18" p-id="4441"></path><path d="M819.2 341.332329h68.266165v68.266165H819.2z" fill="#FFFFFF" p-id="4442"></path><path d="M887.458635 204.8h68.266165v68.266165h-68.266165z" fill="#231815" p-id="4443"></path><path d="M819.2 204.8h68.266165v68.266165H819.2z" fill="#61AD18" p-id="4444"></path><path d="M0 614.4h68.266165v68.266165H0z" fill="#231815" p-id="4445"></path><path d="M68.270682 614.4h68.266165v68.266165H68.270682zM136.541365 614.4h68.266164v68.266165H136.541365z" fill="#61AD18" p-id="4446"></path><path d="M204.8 614.4h68.266165v68.266165H204.8z" fill="#61AD18" p-id="4447"></path><path d="M1024 614.4h68.266165v68.266165H1024z" fill="#231815" p-id="4448"></path><path d="M955.729318 614.4h68.266164v68.266165h-68.266164zM887.458635 614.4h68.266165v68.266165h-68.266165z" fill="#61AD18" p-id="4449"></path><path d="M819.2 614.4h68.266165v68.266165H819.2z" fill="#FFFFFF" p-id="4450"></path><path d="M204.8 819.2h68.266165v68.266165H204.8zM819.2 819.2h68.266165v68.266165H819.2zM0 682.667671h68.266165v68.266164H0z" fill="#231815" p-id="4451"></path><path d="M68.270682 682.667671h68.266165v68.266164H68.270682z" fill="#61AD18" p-id="4452"></path><path d="M136.541365 682.667671h68.266164v68.266164H136.541365z" fill="#231815" p-id="4453"></path><path d="M204.8 682.667671h68.266165v68.266164H204.8zM1024 682.667671h68.266165v68.266164H1024z" fill="#231815" p-id="4454"></path><path d="M955.729318 682.667671h68.266164v68.266164h-68.266164z" fill="#61AD18" p-id="4455"></path><path d="M887.458635 682.667671h68.266165v68.266164h-68.266165z" fill="#231815" p-id="4456"></path><path d="M819.2 682.667671h68.266165v68.266164H819.2zM204.8 887.464659h68.266165v68.266165H204.8zM819.2 887.464659h68.266165v68.266165H819.2zM273.058635 955.735341h68.266165v68.266165h-68.266165zM477.870682 955.735341h68.266165v68.266165h-68.266165zM68.270682 750.932329h68.266165v68.266165H68.270682z" fill="#231815" p-id="4457"></path><path d="M887.458635 750.932329h68.266165v68.266165h-68.266165z" fill="#231815" p-id="4458"></path><path d="M819.2 750.932329h68.266165v68.266165H819.2zM341.329318 955.735341h68.266164v68.266165h-68.266164zM546.129318 955.735341h68.266164v68.266165h-68.266164zM682.670682 955.735341h68.266165v68.266165h-68.266165zM136.541365 750.932329h68.266164v68.266165H136.541365z" fill="#231815" p-id="4459"></path><path d="M204.8 750.932329h68.266165v68.266165H204.8z" fill="#FFFFFF" p-id="4460"></path><path d="M955.729318 750.932329h68.266164v68.266165h-68.266164zM409.6 955.735341h68.266165v68.266165H409.6zM614.4 955.735341h68.266165v68.266165H614.4zM750.941365 955.735341h68.266164v68.266165h-68.266164zM68.270682 341.332329h68.266165v68.266165H68.270682z" fill="#231815" p-id="4461"></path><path d="M136.541365 341.332329h68.266164v68.266165H136.541365z" fill="#FFFFFF" p-id="4462"></path><path d="M204.8 341.332329h68.266165v68.266165H204.8z" fill="#FFFFFF" p-id="4463"></path><path d="M204.8 136.532329h68.266165v68.266165H204.8z" fill="#231815" p-id="4464"></path><path d="M546.129318 68.264659h68.266164v68.266165h-68.266164zM546.129318 136.532329h68.266164v68.266165h-68.266164z" fill="#61AD18" p-id="4465"></path><path d="M546.129318 204.8h68.266164v68.266165h-68.266164zM546.129318 273.067671h68.266164v68.266164h-68.266164z" fill="#FFFFFF" p-id="4466"></path><path d="M546.129318 341.332329h68.266164v68.266165h-68.266164zM546.129318 409.6h68.266164v68.266165h-68.266164z" fill="#61AD18" p-id="4467"></path><path d="M546.129318 477.864659h68.266164v68.266165h-68.266164zM546.129318 546.132329h68.266164v68.266165h-68.266164z" fill="#61AD18" p-id="4468"></path><path d="M546.129318 614.4h68.266164v68.266165h-68.266164z" fill="#231815" p-id="4469"></path><path d="M546.129318 682.667671h68.266164v68.266164h-68.266164z" fill="#FFDFD2" p-id="4470"></path><path d="M546.129318 750.932329h68.266164v68.266165h-68.266164zM546.129318 819.2h68.266164v68.266165h-68.266164z" fill="#FFFFFF" p-id="4471"></path><path d="M546.129318 887.464659h68.266164v68.266165h-68.266164z" fill="#FFDFD2" p-id="4472"></path><path d="M477.870682 0h68.266165v68.266165h-68.266165zM341.329318 68.264659h68.266164v68.266165h-68.266164z" fill="#231815" p-id="4473"></path><path d="M341.329318 136.532329h68.266164v68.266165h-68.266164z" fill="#61AD18" p-id="4474"></path><path d="M341.329318 204.8h68.266164v68.266165h-68.266164zM341.329318 273.067671h68.266164v68.266164h-68.266164z" fill="#FFFFFF" p-id="4475"></path><path d="M341.329318 341.332329h68.266164v68.266165h-68.266164zM341.329318 409.6h68.266164v68.266165h-68.266164z" fill="#61AD18" p-id="4476"></path><path d="M341.329318 477.864659h68.266164v68.266165h-68.266164zM341.329318 546.132329h68.266164v68.266165h-68.266164z" fill="#61AD18" p-id="4477"></path><path d="M341.329318 614.4h68.266164v68.266165h-68.266164z" fill="#231815" p-id="4478"></path><path d="M341.329318 682.667671h68.266164v68.266164h-68.266164z" fill="#FFDFD2" p-id="4479"></path><path d="M341.329318 750.932329h68.266164v68.266165h-68.266164zM341.329318 819.2h68.266164v68.266165h-68.266164z" fill="#FFFFFF" p-id="4480"></path><path d="M341.329318 887.464659h68.266164v68.266165h-68.266164z" fill="#FFDFD2" p-id="4481"></path><path d="M614.4 68.264659h68.266165v68.266165H614.4zM614.4 136.532329h68.266165v68.266165H614.4zM614.4 204.8h68.266165v68.266165H614.4zM614.4 273.067671h68.266165v68.266164H614.4z" fill="#61AD18" p-id="4482"></path><path d="M614.4 341.332329h68.266165v68.266165H614.4z" fill="#61AD18" p-id="4483"></path><path d="M614.4 409.6h68.266165v68.266165H614.4z" fill="#FFFFFF" p-id="4484"></path><path d="M614.4 477.864659h68.266165v68.266165H614.4zM614.4 546.132329h68.266165v68.266165H614.4z" fill="#FFFFFF" p-id="4485"></path><path d="M614.4 614.4h68.266165v68.266165H614.4zM614.4 682.667671h68.266165v68.266164H614.4z" fill="#231815" p-id="4486"></path><path d="M614.4 750.932329h68.266165v68.266165H614.4z" fill="#231815" p-id="4487"></path><path d="M614.4 819.2h68.266165v68.266165H614.4z" fill="#FFFFFF" p-id="4488"></path><path d="M614.4 887.464659h68.266165v68.266165H614.4z" fill="#FFDFD2" p-id="4489"></path><path d="M546.129318 0h68.266164v68.266165h-68.266164z" fill="#231815" p-id="4490"></path><path d="M409.6 68.264659h68.266165v68.266165H409.6z" fill="#61AD18" p-id="4491"></path><path d="M409.6 136.532329h68.266165v68.266165H409.6zM409.6 204.8h68.266165v68.266165H409.6zM409.6 273.067671h68.266165v68.266164H409.6z" fill="#FFFFFF" p-id="4492"></path><path d="M409.6 341.332329h68.266165v68.266165H409.6z" fill="#FFFFFF" p-id="4493"></path><path d="M409.6 409.6h68.266165v68.266165H409.6z" fill="#61AD18" p-id="4494"></path><path d="M409.6 477.864659h68.266165v68.266165H409.6zM409.6 546.132329h68.266165v68.266165H409.6z" fill="#61AD18" p-id="4495"></path><path d="M409.6 614.4h68.266165v68.266165H409.6zM409.6 682.667671h68.266165v68.266164H409.6z" fill="#231815" p-id="4496"></path><path d="M409.6 750.932329h68.266165v68.266165H409.6z" fill="#231815" p-id="4497"></path><path d="M409.6 819.2h68.266165v68.266165H409.6z" fill="#FFFFFF" p-id="4498"></path><path d="M409.6 887.464659h68.266165v68.266165H409.6z" fill="#FFDFD2" p-id="4499"></path><path d="M682.670682 68.264659h68.266165v68.266165h-68.266165z" fill="#231815" p-id="4500"></path><path d="M682.670682 136.532329h68.266165v68.266165h-68.266165z" fill="#FFFFFF" p-id="4501"></path><path d="M682.670682 204.8h68.266165v68.266165h-68.266165zM682.670682 273.067671h68.266165v68.266164h-68.266165z" fill="#61AD18" p-id="4502"></path><path d="M682.670682 341.332329h68.266165v68.266165h-68.266165zM682.670682 409.6h68.266165v68.266165h-68.266165z" fill="#FFFFFF" p-id="4503"></path><path d="M682.670682 477.864659h68.266165v68.266165h-68.266165zM682.670682 546.132329h68.266165v68.266165h-68.266165z" fill="#FFFFFF" p-id="4504"></path><path d="M682.670682 614.4h68.266165v68.266165h-68.266165z" fill="#231815" p-id="4505"></path><path d="M682.670682 682.667671h68.266165v68.266164h-68.266165z" fill="#FFDFD2" p-id="4506"></path><path d="M682.670682 750.932329h68.266165v68.266165h-68.266165zM682.670682 819.2h68.266165v68.266165h-68.266165z" fill="#FFFFFF" p-id="4507"></path><path d="M682.670682 887.464659h68.266165v68.266165h-68.266165z" fill="#FFDFD2" p-id="4508"></path><path d="M614.4 0h68.266165v68.266165H614.4z" fill="#231815" p-id="4509"></path><path d="M477.870682 68.264659h68.266165v68.266165h-68.266165z" fill="#61AD18" p-id="4510"></path><path d="M477.870682 136.532329h68.266165v68.266165h-68.266165zM477.870682 204.8h68.266165v68.266165h-68.266165zM477.870682 273.067671h68.266165v68.266164h-68.266165z" fill="#FFFFFF" p-id="4511"></path><path d="M477.870682 341.332329h68.266165v68.266165h-68.266165z" fill="#FFFFFF" p-id="4512"></path><path d="M477.870682 409.6h68.266165v68.266165h-68.266165z" fill="#61AD18" p-id="4513"></path><path d="M477.870682 477.864659h68.266165v68.266165h-68.266165zM477.870682 546.132329h68.266165v68.266165h-68.266165z" fill="#61AD18" p-id="4514"></path><path d="M477.870682 614.4h68.266165v68.266165h-68.266165z" fill="#231815" p-id="4515"></path><path d="M477.870682 682.667671h68.266165v68.266164h-68.266165z" fill="#FFDFD2" p-id="4516"></path><path d="M477.870682 750.932329h68.266165v68.266165h-68.266165zM477.870682 819.2h68.266165v68.266165h-68.266165z" fill="#FFFFFF" p-id="4517"></path><path d="M477.870682 887.464659h68.266165v68.266165h-68.266165z" fill="#FFDFD2" p-id="4518"></path><path d="M750.941365 68.264659h68.266164v68.266165h-68.266164z" fill="#231815" p-id="4519"></path><path d="M750.941365 136.532329h68.266164v68.266165h-68.266164z" fill="#FFFFFF" p-id="4520"></path><path d="M750.941365 204.8h68.266164v68.266165h-68.266164zM750.941365 273.067671h68.266164v68.266164h-68.266164z" fill="#61AD18" p-id="4521"></path><path d="M750.941365 341.332329h68.266164v68.266165h-68.266164zM750.941365 409.6h68.266164v68.266165h-68.266164z" fill="#FFFFFF" p-id="4522"></path><path d="M750.941365 477.864659h68.266164v68.266165h-68.266164zM750.941365 546.132329h68.266164v68.266165h-68.266164z" fill="#FFFFFF" p-id="4523"></path><path d="M750.941365 614.4h68.266164v68.266165h-68.266164zM750.941365 682.667671h68.266164v68.266164h-68.266164z" fill="#231815" p-id="4524"></path><path d="M750.941365 750.932329h68.266164v68.266165h-68.266164z" fill="#FFFFFF" p-id="4525"></path><path d="M750.941365 819.2h68.266164v68.266165h-68.266164z" fill="#FFDFD2" p-id="4526"></path><path d="M750.941365 887.464659h68.266164v68.266165h-68.266164zM819.2 136.532329h68.266165v68.266165H819.2z" fill="#231815" p-id="4527"></path></svg>