<svg t="1741076051211" class="icon" viewBox="0 0 1024 1024" version="1.1" xmlns="http://www.w3.org/2000/svg" p-id="5490" width="200" height="200"><path d="M694.211765 0h51.2v51.2h-51.2zM537.6 51.2h51.2v51.2h-51.2zM486.4 102.4h51.2v51.2h-51.2z" fill="#3A2802" p-id="5491"></path><path d="M435.2 153.6h51.2v51.2h-51.2z" fill="#FF7C5B" p-id="5492"></path><path d="M486.4 204.8h51.2v51.2h-51.2z" fill="#FF3400" p-id="5493"></path><path d="M435.2 256h51.2v51.2h-51.2zM435.2 307.2h51.2v51.2h-51.2zM435.2 358.4h51.2v51.2h-51.2zM435.2 409.6h51.2v51.2h-51.2z" fill="#FFFFFF" p-id="5494"></path><path d="M435.2 460.8h51.2v51.2h-51.2z" fill="#FFFFA5" p-id="5495"></path><path d="M435.2 512h51.2v51.2h-51.2zM435.2 563.2h51.2v51.2h-51.2z" fill="#FF3400" p-id="5496"></path><path d="M435.2 614.4h51.2v51.2h-51.2z" fill="#FFDE00" p-id="5497"></path><path d="M435.2 665.6h51.2v51.2h-51.2z" fill="#71ACFD" p-id="5498"></path><path d="M435.2 716.8h51.2v51.2h-51.2z" fill="#FF3400" p-id="5499"></path><path d="M435.2 768h51.2v51.2h-51.2z" fill="#71ACFD" p-id="5500"></path><path d="M486.4 870.4h51.2v51.2h-51.2z" fill="#3A2802" p-id="5501"></path><path d="M486.4 921.6h51.2v51.2h-51.2z" fill="#B5751C" p-id="5502"></path><path d="M486.4 972.8h51.2v51.2h-51.2z" fill="#3A2802" p-id="5503"></path><path d="M435.2 819.2h51.2v51.2h-51.2z" fill="#9F1EC3" p-id="5504"></path><path d="M384 204.8h51.2v51.2h-51.2zM332.8 256h51.2v51.2h-51.2z" fill="#FF7C5B" p-id="5505"></path><path d="M332.8 307.2h51.2v51.2h-51.2z" fill="#FFFFA5" p-id="5506"></path><path d="M332.8 358.4h51.2v51.2h-51.2z" fill="#FFDE00" p-id="5507"></path><path d="M332.8 409.6h51.2v51.2h-51.2z" fill="#CD2A00" p-id="5508"></path><path d="M332.8 460.8h51.2v51.2h-51.2zM332.8 512h51.2v51.2h-51.2zM332.8 563.2h51.2v51.2h-51.2zM332.8 614.4h51.2v51.2h-51.2z" fill="#FF3400" p-id="5509"></path><path d="M332.8 665.6h51.2v51.2h-51.2z" fill="#FFDE00" p-id="5510"></path><path d="M332.8 716.8h51.2v51.2h-51.2z" fill="#71ACFD" p-id="5511"></path><path d="M332.8 768h51.2v51.2h-51.2z" fill="#FF3400" p-id="5512"></path><path d="M384 870.4h51.2v51.2h-51.2z" fill="#3A2802" p-id="5513"></path><path d="M384 921.6h51.2v51.2h-51.2z" fill="#B5751C" p-id="5514"></path><path d="M384 972.8h51.2v51.2h-51.2z" fill="#3A2802" p-id="5515"></path><path d="M332.8 819.2h51.2v51.2h-51.2z" fill="#9F1EC3" p-id="5516"></path><path d="M537.6 256h51.2v51.2h-51.2zM537.6 307.2h51.2v51.2h-51.2z" fill="#FFFFFF" p-id="5517"></path><path d="M537.6 358.4h51.2v51.2h-51.2zM537.6 409.6h51.2v51.2h-51.2z" fill="#FE9494" p-id="5518"></path><path d="M537.6 460.8h51.2v51.2h-51.2z" fill="#FFFFA5" p-id="5519"></path><path d="M537.6 512h51.2v51.2h-51.2zM537.6 563.2h51.2v51.2h-51.2zM537.6 614.4h51.2v51.2h-51.2z" fill="#FF3400" p-id="5520"></path><path d="M537.6 665.6h51.2v51.2h-51.2z" fill="#FFDE00" p-id="5521"></path><path d="M537.6 716.8h51.2v51.2h-51.2z" fill="#47D147" p-id="5522"></path><path d="M537.6 768h51.2v51.2h-51.2z" fill="#71ACFD" p-id="5523"></path><path d="M588.8 870.4h51.2v51.2h-51.2z" fill="#3A2802" p-id="5524"></path><path d="M588.8 921.6h51.2v51.2h-51.2z" fill="#7D4900" p-id="5525"></path><path d="M588.8 972.8h51.2v51.2h-51.2z" fill="#3A2802" p-id="5526"></path><path d="M537.6 819.2h51.2v51.2h-51.2z" fill="#85299F" p-id="5527"></path><path d="M435.2 102.4h51.2v51.2h-51.2zM384 153.6h51.2v51.2h-51.2z" fill="#3A2802" p-id="5528"></path><path d="M435.2 204.8h51.2v51.2h-51.2z" fill="#FF3400" p-id="5529"></path><path d="M384 256h51.2v51.2h-51.2zM384 307.2h51.2v51.2h-51.2zM384 358.4h51.2v51.2h-51.2z" fill="#FFDE00" p-id="5530"></path><path d="M384 409.6h51.2v51.2h-51.2zM384 460.8h51.2v51.2h-51.2zM384 512h51.2v51.2h-51.2zM384 563.2h51.2v51.2h-51.2zM384 614.4h51.2v51.2h-51.2z" fill="#FF3400" p-id="5531"></path><path d="M384 665.6h51.2v51.2h-51.2z" fill="#FFDE00" p-id="5532"></path><path d="M384 716.8h51.2v51.2h-51.2z" fill="#71ACFD" p-id="5533"></path><path d="M384 768h51.2v51.2h-51.2z" fill="#FF3400" p-id="5534"></path><path d="M435.2 870.4h51.2v51.2h-51.2z" fill="#7D4900" p-id="5535"></path><path d="M435.2 921.6h51.2v51.2h-51.2z" fill="#716262" p-id="5536"></path><path d="M435.2 972.8h51.2v51.2h-51.2z" fill="#3A2802" p-id="5537"></path><path d="M384 819.2h51.2v51.2h-51.2z" fill="#7D4900" p-id="5538"></path><path d="M332.8 204.8h51.2v51.2h-51.2zM281.6 256h51.2v51.2h-51.2z" fill="#3A2802" p-id="5539"></path><path d="M281.6 307.2h51.2v51.2h-51.2z" fill="#FF7C5B" p-id="5540"></path><path d="M281.6 358.4h51.2v51.2h-51.2z" fill="#FFFFA5" p-id="5541"></path><path d="M281.6 409.6h51.2v51.2h-51.2z" fill="#FFDE00" p-id="5542"></path><path d="M281.6 460.8h51.2v51.2h-51.2zM281.6 512h51.2v51.2h-51.2z" fill="#3A2802" p-id="5543"></path><path d="M281.6 563.2h51.2v51.2h-51.2z" fill="#FF3400" p-id="5544"></path><path d="M230.4 563.2h51.2v51.2H230.4z" fill="#3A2802" p-id="5545"></path><path d="M281.6 614.4h51.2v51.2h-51.2zM230.4 614.4h51.2v51.2H230.4z" fill="#FF3400" p-id="5546"></path><path d="M179.2 614.4h51.2v51.2H179.2z" fill="#3A2802" p-id="5547"></path><path d="M281.6 665.6h51.2v51.2h-51.2z" fill="#FF3400" p-id="5548"></path><path d="M281.6 716.8h51.2v51.2h-51.2z" fill="#FFDE00" p-id="5549"></path><path d="M281.6 768h51.2v51.2h-51.2z" fill="#FF3400" p-id="5550"></path><path d="M332.8 870.4h51.2v51.2h-51.2z" fill="#3A2802" p-id="5551"></path><path d="M332.8 921.6h51.2v51.2h-51.2z" fill="#B5751C" p-id="5552"></path><path d="M332.8 972.8h51.2v51.2h-51.2zM281.6 819.2h51.2v51.2h-51.2z" fill="#3A2802" p-id="5553"></path><path d="M230.4 665.6h51.2v51.2H230.4z" fill="#FF3400" p-id="5554"></path><path d="M230.4 716.8h51.2v51.2H230.4z" fill="#FFDE00" p-id="5555"></path><path d="M230.4 768h51.2v51.2H230.4z" fill="#FF3400" p-id="5556"></path><path d="M281.6 870.4h51.2v51.2h-51.2z" fill="#3A2802" p-id="5557"></path><path d="M281.6 921.6h51.2v51.2h-51.2z" fill="#B5751C" p-id="5558"></path><path d="M281.6 972.8h51.2v51.2h-51.2zM230.4 819.2h51.2v51.2H230.4z" fill="#3A2802" p-id="5559"></path><path d="M179.2 665.6h51.2v51.2H179.2zM179.2 716.8h51.2v51.2H179.2z" fill="#FF3400" p-id="5560"></path><path d="M179.2 768h51.2v51.2H179.2zM230.4 870.4h51.2v51.2H230.4z" fill="#3A2802" p-id="5561"></path><path d="M230.4 921.6h51.2v51.2H230.4z" fill="#7D4900" p-id="5562"></path><path d="M179.2 921.6h51.2v51.2H179.2zM230.4 972.8h51.2v51.2H230.4zM179.2 972.8h51.2v51.2H179.2zM128 665.6h51.2v51.2H128zM128 716.8h51.2v51.2H128zM230.4 307.2h51.2v51.2H230.4zM230.4 358.4h51.2v51.2H230.4zM230.4 409.6h51.2v51.2H230.4z" fill="#3A2802" p-id="5563"></path><path d="M486.4 256h51.2v51.2h-51.2z" fill="#FFFFFF" p-id="5564"></path><path d="M486.4 307.2h51.2v51.2h-51.2zM486.4 358.4h51.2v51.2h-51.2z" fill="#3A2802" p-id="5565"></path><path d="M486.4 409.6h51.2v51.2h-51.2z" fill="#FE9494" p-id="5566"></path><path d="M486.4 460.8h51.2v51.2h-51.2z" fill="#FFFFA5" p-id="5567"></path><path d="M486.4 512h51.2v51.2h-51.2zM486.4 563.2h51.2v51.2h-51.2zM486.4 614.4h51.2v51.2h-51.2zM486.4 665.6h51.2v51.2h-51.2z" fill="#FF3400" p-id="5568"></path><path d="M486.4 716.8h51.2v51.2h-51.2z" fill="#47D147" p-id="5569"></path><path d="M486.4 768h51.2v51.2h-51.2z" fill="#71ACFD" p-id="5570"></path><path d="M537.6 870.4h51.2v51.2h-51.2z" fill="#3A2802" p-id="5571"></path><path d="M537.6 921.6h51.2v51.2h-51.2z" fill="#B5751C" p-id="5572"></path><path d="M537.6 972.8h51.2v51.2h-51.2z" fill="#3A2802" p-id="5573"></path><path d="M486.4 819.2h51.2v51.2h-51.2z" fill="#85299F" p-id="5574"></path><path d="M640 51.2h51.2v51.2h-51.2z" fill="#3A2802" p-id="5575"></path><path d="M588.8 102.4h51.2v51.2h-51.2z" fill="#FF7C5B" p-id="5576"></path><path d="M537.6 153.6h51.2v51.2h-51.2zM588.8 204.8h51.2v51.2h-51.2zM640 256h51.2v51.2h-51.2zM640 307.2h51.2v51.2h-51.2zM640 358.4h51.2v51.2h-51.2zM640 409.6h51.2v51.2h-51.2zM640 460.8h51.2v51.2h-51.2zM640 512h51.2v51.2h-51.2zM640 563.2h51.2v51.2h-51.2z" fill="#FF3400" p-id="5577"></path><path d="M640 614.4h51.2v51.2h-51.2zM640 665.6h51.2v51.2h-51.2z" fill="#FFDE00" p-id="5578"></path><path d="M640 716.8h51.2v51.2h-51.2z" fill="#71ACFD" p-id="5579"></path><path d="M640 768h51.2v51.2h-51.2z" fill="#85299F" p-id="5580"></path><path d="M691.2 870.4h51.2v51.2h-51.2z" fill="#3A2802" p-id="5581"></path><path d="M691.2 921.6h51.2v51.2h-51.2z" fill="#B5751C" p-id="5582"></path><path d="M691.2 972.8h51.2v51.2h-51.2zM640 819.2h51.2v51.2h-51.2z" fill="#3A2802" p-id="5583"></path><path d="M742.4 51.2h51.2v51.2h-51.2zM691.2 102.4h51.2v51.2h-51.2zM640 153.6h51.2v51.2h-51.2zM691.2 204.8h51.2v51.2h-51.2z" fill="#FF3400" p-id="5584"></path><path d="M742.4 256h51.2v51.2h-51.2z" fill="#CD2A00" p-id="5585"></path><path d="M742.4 307.2h51.2v51.2h-51.2z" fill="#FF3400" p-id="5586"></path><path d="M742.4 358.4h51.2v51.2h-51.2z" fill="#CD2A00" p-id="5587"></path><path d="M742.4 409.6h51.2v51.2h-51.2zM742.4 460.8h51.2v51.2h-51.2z" fill="#FF3400" p-id="5588"></path><path d="M742.4 512h51.2v51.2h-51.2zM742.4 563.2h51.2v51.2h-51.2z" fill="#FFDE00" p-id="5589"></path><path d="M742.4 614.4h51.2v51.2h-51.2z" fill="#47D147" p-id="5590"></path><path d="M742.4 665.6h51.2v51.2h-51.2z" fill="#71ACFD" p-id="5591"></path><path d="M742.4 716.8h51.2v51.2h-51.2z" fill="#3168B5" p-id="5592"></path><path d="M742.4 768h51.2v51.2h-51.2zM793.6 870.4h51.2v51.2h-51.2zM793.6 921.6h51.2v51.2h-51.2zM793.6 972.8h51.2v51.2h-51.2zM745.411765 0h51.2v51.2h-51.2zM588.8 51.2h51.2v51.2h-51.2z" fill="#3A2802" p-id="5593"></path><path d="M537.6 102.4h51.2v51.2h-51.2zM486.4 153.6h51.2v51.2h-51.2z" fill="#FF7C5B" p-id="5594"></path><path d="M537.6 204.8h51.2v51.2h-51.2zM588.8 256h51.2v51.2h-51.2z" fill="#FF3400" p-id="5595"></path><path d="M588.8 307.2h51.2v51.2h-51.2z" fill="#FFFFFF" p-id="5596"></path><path d="M588.8 358.4h51.2v51.2h-51.2zM588.8 409.6h51.2v51.2h-51.2z" fill="#FFFFA5" p-id="5597"></path><path d="M588.8 460.8h51.2v51.2h-51.2zM588.8 512h51.2v51.2h-51.2zM588.8 563.2h51.2v51.2h-51.2zM588.8 614.4h51.2v51.2h-51.2z" fill="#FF3400" p-id="5598"></path><path d="M588.8 665.6h51.2v51.2h-51.2z" fill="#FFDE00" p-id="5599"></path><path d="M588.8 716.8h51.2v51.2h-51.2z" fill="#47D147" p-id="5600"></path><path d="M588.8 768h51.2v51.2h-51.2z" fill="#71ACFD" p-id="5601"></path><path d="M640 870.4h51.2v51.2h-51.2z" fill="#7D4900" p-id="5602"></path><path d="M640 921.6h51.2v51.2h-51.2z" fill="#716262" p-id="5603"></path><path d="M640 972.8h51.2v51.2h-51.2z" fill="#3A2802" p-id="5604"></path><path d="M588.8 819.2h51.2v51.2h-51.2z" fill="#7D4900" p-id="5605"></path><path d="M691.2 51.2h51.2v51.2h-51.2zM640 102.4h51.2v51.2h-51.2zM588.8 153.6h51.2v51.2h-51.2zM640 204.8h51.2v51.2h-51.2zM691.2 256h51.2v51.2h-51.2zM691.2 307.2h51.2v51.2h-51.2zM691.2 358.4h51.2v51.2h-51.2zM691.2 409.6h51.2v51.2h-51.2zM691.2 460.8h51.2v51.2h-51.2zM691.2 512h51.2v51.2h-51.2z" fill="#FF3400" p-id="5606"></path><path d="M691.2 563.2h51.2v51.2h-51.2zM691.2 614.4h51.2v51.2h-51.2z" fill="#FFDE00" p-id="5607"></path><path d="M691.2 665.6h51.2v51.2h-51.2z" fill="#47D147" p-id="5608"></path><path d="M691.2 716.8h51.2v51.2h-51.2z" fill="#3168B5" p-id="5609"></path><path d="M691.2 768h51.2v51.2h-51.2z" fill="#85299F" p-id="5610"></path><path d="M742.4 870.4h51.2v51.2h-51.2z" fill="#3A2802" p-id="5611"></path><path d="M742.4 921.6h51.2v51.2h-51.2z" fill="#B5751C" p-id="5612"></path><path d="M742.4 972.8h51.2v51.2h-51.2zM691.2 819.2h51.2v51.2h-51.2zM793.6 51.2h51.2v51.2h-51.2zM742.4 102.4h51.2v51.2h-51.2zM691.2 153.6h51.2v51.2h-51.2zM742.4 204.8h51.2v51.2h-51.2zM793.6 256h51.2v51.2h-51.2zM793.6 307.2h51.2v51.2h-51.2z" fill="#3A2802" p-id="5613"></path><path d="M793.6 358.4h51.2v51.2h-51.2z" fill="#FF3400" p-id="5614"></path><path d="M844.8 358.4h51.2v51.2h-51.2z" fill="#3A2802" p-id="5615"></path><path d="M793.6 409.6h51.2v51.2h-51.2zM793.6 460.8h51.2v51.2h-51.2z" fill="#CD2A00" p-id="5616"></path><path d="M793.6 512h51.2v51.2h-51.2zM793.6 563.2h51.2v51.2h-51.2z" fill="#008300" p-id="5617"></path><path d="M793.6 614.4h51.2v51.2h-51.2zM793.6 665.6h51.2v51.2h-51.2z" fill="#3168B5" p-id="5618"></path><path d="M793.6 716.8h51.2v51.2h-51.2zM844.8 409.6h51.2v51.2h-51.2zM844.8 460.8h51.2v51.2h-51.2zM844.8 512h51.2v51.2h-51.2zM844.8 563.2h51.2v51.2h-51.2zM844.8 614.4h51.2v51.2h-51.2zM844.8 665.6h51.2v51.2h-51.2z" fill="#3A2802" p-id="5619"></path></svg>