<svg t="1741076064389" class="icon" viewBox="0 0 1024 1024" version="1.1" xmlns="http://www.w3.org/2000/svg" p-id="5772" width="200" height="200"><path d="M578.681976 0h44.521412v44.521412h-44.521412z" fill="#3A2802" p-id="5773"></path><path d="M534.165082 44.519906h44.521412v44.521412h-44.521412zM578.681976 89.044329h44.521412v44.521412h-44.521412z" fill="#3A2802" p-id="5774"></path><path d="M578.681976 44.519906h44.521412v44.521412h-44.521412z" fill="#FFFFA5" p-id="5775"></path><path d="M534.165082 133.564235h44.521412v44.521412h-44.521412zM578.681976 178.088659h44.521412v44.521412h-44.521412z" fill="#3A2802" p-id="5776"></path><path d="M578.681976 133.564235h44.521412v44.521412h-44.521412z" fill="#FFFFA5" p-id="5777"></path><path d="M623.200376 178.088659h44.521412v44.521412h-44.521412z" fill="#3A2802" p-id="5778"></path><path d="M623.200376 133.564235h44.521412v44.521412h-44.521412z" fill="#FFFF00" p-id="5779"></path><path d="M623.200376 89.044329h44.521412v44.521412h-44.521412z" fill="#3A2802" p-id="5780"></path><path d="M623.200376 44.519906h44.521412v44.521412h-44.521412z" fill="#FFFF00" p-id="5781"></path><path d="M667.729318 222.608565h44.521411v44.521411h-44.521411z" fill="#3A2802" p-id="5782"></path><path d="M667.729318 178.088659h44.521411v44.521412h-44.521411z" fill="#FFFF00" p-id="5783"></path><path d="M667.729318 133.564235h44.521411v44.521412h-44.521411z" fill="#3A2802" p-id="5784"></path><path d="M667.729318 89.044329h44.521411v44.521412h-44.521411z" fill="#FFFF00" p-id="5785"></path><path d="M623.200376 267.132988h44.521412v44.521412h-44.521412z" fill="#3A2802" p-id="5786"></path><path d="M623.200376 311.652894h44.521412v44.521412h-44.521412zM667.729318 356.1728h44.521411v44.521412h-44.521411z" fill="#3A2802" p-id="5787"></path><path d="M667.729318 311.652894h44.521411v44.521412h-44.521411z" fill="#FFFFA5" p-id="5788"></path><path d="M667.729318 267.132988h44.521411v44.521412h-44.521411z" fill="#FFFFA5" p-id="5789"></path><path d="M623.200376 400.694212h44.521412v44.521412h-44.521412zM578.681976 445.217129h44.521412v44.521412h-44.521412zM445.117741 534.261459h44.521412v44.521412h-44.521412z" fill="#3A2802" p-id="5790"></path><path d="M534.165082 445.217129h44.521412v44.521412h-44.521412zM400.599341 534.261459h44.521412v44.521412h-44.521412zM356.0704 578.782871h44.521412v44.521411h-44.521412zM311.553506 623.305788h44.521412v44.521412h-44.521412zM311.553506 667.8272h44.521412v44.521412h-44.521412z" fill="#3A2802" p-id="5791"></path><path d="M267.035106 712.347106h44.521412v44.521412h-44.521412zM222.506165 756.867012h44.521411v44.521412h-44.521411zM177.987765 801.391435h44.521411v44.521412H177.987765z" fill="#3A2802" p-id="5792"></path><path d="M133.470871 845.911341h44.521411v44.521412H133.470871zM133.470871 934.955671h44.521411v44.521411H133.470871z" fill="#3A2802" p-id="5793"></path><path d="M133.470871 890.435765h44.521411v44.521411H133.470871z" fill="#FFFF93" p-id="5794"></path><path d="M267.035106 890.435765h44.521412v44.521411h-44.521412z" fill="#3A2802" p-id="5795"></path><path d="M267.035106 845.911341h44.521412v44.521412h-44.521412z" fill="#FFFF93" p-id="5796"></path><path d="M267.035106 801.391435h44.521412v44.521412h-44.521412z" fill="#3A2802" p-id="5797"></path><path d="M267.035106 756.867012h44.521412v44.521412h-44.521412z" fill="#FFFF93" p-id="5798"></path><path d="M222.506165 934.955671h44.521411v44.521411h-44.521411z" fill="#3A2802" p-id="5799"></path><path d="M222.506165 890.435765h44.521411v44.521411h-44.521411zM222.506165 845.911341h44.521411v44.521412h-44.521411z" fill="#FFFF93" p-id="5800"></path><path d="M222.506165 801.391435h44.521411v44.521412h-44.521411z" fill="#FFFF93" p-id="5801"></path><path d="M356.0704 890.435765h44.521412v44.521411h-44.521412z" fill="#3A2802" p-id="5802"></path><path d="M356.0704 845.911341h44.521412v44.521412h-44.521412z" fill="#FFFF93" p-id="5803"></path><path d="M356.0704 801.391435h44.521412v44.521412h-44.521412z" fill="#FFFF93" p-id="5804"></path><path d="M356.0704 756.867012h44.521412v44.521412h-44.521412z" fill="#3A2802" p-id="5805"></path><path d="M356.0704 712.347106h44.521412v44.521412h-44.521412z" fill="#FFFF93" p-id="5806"></path><path d="M356.0704 667.8272h44.521412v44.521412h-44.521412zM356.0704 623.305788h44.521412v44.521412h-44.521412z" fill="#FFFFFF" p-id="5807"></path><path d="M400.599341 934.955671h44.521412v44.521411h-44.521412z" fill="#3A2802" p-id="5808"></path><path d="M400.599341 890.435765h44.521412v44.521411h-44.521412z" fill="#FFFFFF" p-id="5809"></path><path d="M400.599341 845.911341h44.521412v44.521412h-44.521412z" fill="#3A2802" p-id="5810"></path><path d="M400.599341 801.391435h44.521412v44.521412h-44.521412z" fill="#FFFF93" p-id="5811"></path><path d="M400.599341 756.867012h44.521412v44.521412h-44.521412z" fill="#3A2802" p-id="5812"></path><path d="M400.599341 712.347106h44.521412v44.521412h-44.521412z" fill="#FFFF93" p-id="5813"></path><path d="M400.599341 667.8272h44.521412v44.521412h-44.521412zM400.599341 623.305788h44.521412v44.521412h-44.521412z" fill="#FFFFCF" p-id="5814"></path><path d="M400.599341 578.782871h44.521412v44.521411h-44.521412z" fill="#FFFFFF" p-id="5815"></path><path d="M445.117741 979.480094h44.521412v44.521412h-44.521412z" fill="#3A2802" p-id="5816"></path><path d="M445.117741 934.955671h44.521412v44.521411h-44.521412z" fill="#9D5913" p-id="5817"></path><path d="M445.117741 890.435765h44.521412v44.521411h-44.521412z" fill="#3A2802" p-id="5818"></path><path d="M445.117741 845.911341h44.521412v44.521412h-44.521412z" fill="#FFFFFF" p-id="5819"></path><path d="M445.117741 801.391435h44.521412v44.521412h-44.521412z" fill="#3A2802" p-id="5820"></path><path d="M445.117741 756.867012h44.521412v44.521412h-44.521412z" fill="#FFFF93" p-id="5821"></path><path d="M445.117741 712.347106h44.521412v44.521412h-44.521412z" fill="#3A2802" p-id="5822"></path><path d="M445.117741 667.8272h44.521412v44.521412h-44.521412z" fill="#FFFF93" p-id="5823"></path><path d="M445.117741 623.305788h44.521412v44.521412h-44.521412z" fill="#FFFFCF" p-id="5824"></path><path d="M445.117741 578.782871h44.521412v44.521411h-44.521412z" fill="#FFFFFF" p-id="5825"></path><path d="M489.646682 934.955671h44.521412v44.521411h-44.521412z" fill="#3A2802" p-id="5826"></path><path d="M489.646682 890.435765h44.521412v44.521411h-44.521412z" fill="#9D5913" p-id="5827"></path><path d="M489.646682 845.911341h44.521412v44.521412h-44.521412z" fill="#3A2802" p-id="5828"></path><path d="M489.646682 801.391435h44.521412v44.521412h-44.521412z" fill="#3A2802" p-id="5829"></path><path d="M489.646682 756.867012h44.521412v44.521412h-44.521412z" fill="#EADF67" p-id="5830"></path><path d="M489.646682 712.347106h44.521412v44.521412h-44.521412z" fill="#3A2802" p-id="5831"></path><path d="M489.646682 667.8272h44.521412v44.521412h-44.521412z" fill="#FFFF93" p-id="5832"></path><path d="M489.646682 623.305788h44.521412v44.521412h-44.521412zM489.646682 578.782871h44.521412v44.521411h-44.521412zM489.646682 534.261459h44.521412v44.521412h-44.521412z" fill="#FFFFCF" p-id="5833"></path><path d="M667.729318 890.435765h44.521411v44.521411h-44.521411z" fill="#3A2802" p-id="5834"></path><path d="M667.729318 845.911341h44.521411v44.521412h-44.521411z" fill="#CE781F" p-id="5835"></path><path d="M667.729318 801.391435h44.521411v44.521412h-44.521411zM667.729318 756.867012h44.521411v44.521412h-44.521411z" fill="#EADF67" p-id="5836"></path><path d="M667.729318 712.347106h44.521411v44.521412h-44.521411z" fill="#FFFF93" p-id="5837"></path><path d="M667.729318 667.8272h44.521411v44.521412h-44.521411z" fill="#FFFF93" p-id="5838"></path><path d="M667.729318 623.305788h44.521411v44.521412h-44.521411z" fill="#3A2802" p-id="5839"></path><path d="M667.729318 578.782871h44.521411v44.521411h-44.521411z" fill="#FFFF93" p-id="5840"></path><path d="M667.729318 534.261459h44.521411v44.521412h-44.521411zM667.729318 489.738541h44.521411v44.521412h-44.521411zM667.729318 445.217129h44.521411v44.521412h-44.521411z" fill="#FFFFCF" p-id="5841"></path><path d="M667.729318 400.694212h44.521411v44.521412h-44.521411z" fill="#FFFFFF" p-id="5842"></path><path d="M534.165082 934.955671h44.521412v44.521411h-44.521412z" fill="#3A2802" p-id="5843"></path><path d="M534.165082 890.435765h44.521412v44.521411h-44.521412z" fill="#9D5913" p-id="5844"></path><path d="M534.165082 845.911341h44.521412v44.521412h-44.521412z" fill="#3A2802" p-id="5845"></path><path d="M534.165082 801.391435h44.521412v44.521412h-44.521412z" fill="#CE781F" p-id="5846"></path><path d="M534.165082 756.867012h44.521412v44.521412h-44.521412z" fill="#EADF67" p-id="5847"></path><path d="M534.165082 712.347106h44.521412v44.521412h-44.521412z" fill="#3A2802" p-id="5848"></path><path d="M534.165082 667.8272h44.521412v44.521412h-44.521412z" fill="#FFFF93" p-id="5849"></path><path d="M534.165082 623.305788h44.521412v44.521412h-44.521412zM534.165082 578.782871h44.521412v44.521411h-44.521412zM534.165082 534.261459h44.521412v44.521412h-44.521412z" fill="#FFFFCF" p-id="5850"></path><path d="M534.165082 489.738541h44.521412v44.521412h-44.521412z" fill="#FFFFFF" p-id="5851"></path><path d="M712.247718 890.435765h44.521411v44.521411h-44.521411z" fill="#3A2802" p-id="5852"></path><path d="M712.247718 845.911341h44.521411v44.521412h-44.521411z" fill="#9D5913" p-id="5853"></path><path d="M712.247718 801.391435h44.521411v44.521412h-44.521411z" fill="#3A2802" p-id="5854"></path><path d="M712.247718 756.867012h44.521411v44.521412h-44.521411z" fill="#EADF67" p-id="5855"></path><path d="M712.247718 712.347106h44.521411v44.521412h-44.521411z" fill="#EADF67" p-id="5856"></path><path d="M712.247718 667.8272h44.521411v44.521412h-44.521411zM712.247718 623.305788h44.521411v44.521412h-44.521411z" fill="#FFFF93" p-id="5857"></path><path d="M712.247718 578.782871h44.521411v44.521411h-44.521411z" fill="#3A2802" p-id="5858"></path><path d="M712.247718 534.261459h44.521411v44.521412h-44.521411z" fill="#FFFF93" p-id="5859"></path><path d="M712.247718 489.738541h44.521411v44.521412h-44.521411zM712.247718 445.217129h44.521411v44.521412h-44.521411zM712.247718 400.694212h44.521411v44.521412h-44.521411z" fill="#FFFFCF" p-id="5860"></path><path d="M712.247718 356.1728h44.521411v44.521412h-44.521411z" fill="#FFFF00" p-id="5861"></path><path d="M712.247718 311.652894h44.521411v44.521412h-44.521411z" fill="#FF4200" p-id="5862"></path><path d="M712.247718 267.132988h44.521411v44.521412h-44.521411zM712.247718 222.608565h44.521411v44.521411h-44.521411z" fill="#FFFF00" p-id="5863"></path><path d="M712.247718 178.088659h44.521411v44.521412h-44.521411zM712.247718 133.564235h44.521411v44.521412h-44.521411z" fill="#FFFF00" p-id="5864"></path><path d="M712.247718 89.044329h44.521411v44.521412h-44.521411z" fill="#FFFF00" p-id="5865"></path><path d="M756.776659 890.435765h44.521412v44.521411h-44.521412z" fill="#3A2802" p-id="5866"></path><path d="M756.776659 845.911341h44.521412v44.521412h-44.521412z" fill="#9D5913" p-id="5867"></path><path d="M756.776659 801.391435h44.521412v44.521412h-44.521412zM578.681976 890.435765h44.521412v44.521411h-44.521412z" fill="#3A2802" p-id="5868"></path><path d="M578.681976 845.911341h44.521412v44.521412h-44.521412z" fill="#CE781F" p-id="5869"></path><path d="M578.681976 801.391435h44.521412v44.521412h-44.521412z" fill="#EADF67" p-id="5870"></path><path d="M578.681976 756.867012h44.521412v44.521412h-44.521412z" fill="#FFFF93" p-id="5871"></path><path d="M578.681976 712.347106h44.521412v44.521412h-44.521412z" fill="#FFFF93" p-id="5872"></path><path d="M578.681976 667.8272h44.521412v44.521412h-44.521412z" fill="#3A2802" p-id="5873"></path><path d="M578.681976 623.305788h44.521412v44.521412h-44.521412z" fill="#FFFF93" p-id="5874"></path><path d="M578.681976 578.782871h44.521412v44.521411h-44.521412zM578.681976 534.261459h44.521412v44.521412h-44.521412z" fill="#FFFFCF" p-id="5875"></path><path d="M578.681976 489.738541h44.521412v44.521412h-44.521412z" fill="#FFFFFF" p-id="5876"></path><path d="M623.200376 934.955671h44.521412v44.521411h-44.521412z" fill="#3A2802" p-id="5877"></path><path d="M623.200376 890.435765h44.521412v44.521411h-44.521412z" fill="#9D5913" p-id="5878"></path><path d="M623.200376 845.911341h44.521412v44.521412h-44.521412z" fill="#3A2802" p-id="5879"></path><path d="M623.200376 801.391435h44.521412v44.521412h-44.521412z" fill="#CE781F" p-id="5880"></path><path d="M623.200376 756.867012h44.521412v44.521412h-44.521412z" fill="#FFFF93" p-id="5881"></path><path d="M623.200376 712.347106h44.521412v44.521412h-44.521412z" fill="#FFFF93" p-id="5882"></path><path d="M623.200376 667.8272h44.521412v44.521412h-44.521412z" fill="#3A2802" p-id="5883"></path><path d="M623.200376 623.305788h44.521412v44.521412h-44.521412z" fill="#FFFF93" p-id="5884"></path><path d="M623.200376 578.782871h44.521412v44.521411h-44.521412zM623.200376 534.261459h44.521412v44.521412h-44.521412zM623.200376 489.738541h44.521412v44.521412h-44.521412z" fill="#FFFFCF" p-id="5885"></path><path d="M623.200376 445.217129h44.521412v44.521412h-44.521412z" fill="#FFFFFF" p-id="5886"></path><path d="M88.952471 845.911341h44.521411v44.521412H88.952471zM88.952471 934.955671h44.521411v44.521411H88.952471z" fill="#3A2802" p-id="5887"></path><path d="M88.952471 890.435765h44.521411v44.521411H88.952471z" fill="#FFFF93" p-id="5888"></path><path d="M177.987765 934.955671h44.521411v44.521411H177.987765z" fill="#3A2802" p-id="5889"></path><path d="M177.987765 890.435765h44.521411v44.521411H177.987765zM177.987765 845.911341h44.521411v44.521412H177.987765z" fill="#FFFF93" p-id="5890"></path><path d="M311.553506 890.435765h44.521412v44.521411h-44.521412z" fill="#3A2802" p-id="5891"></path><path d="M311.553506 845.911341h44.521412v44.521412h-44.521412z" fill="#FFFF93" p-id="5892"></path><path d="M311.553506 801.391435h44.521412v44.521412h-44.521412z" fill="#3A2802" p-id="5893"></path><path d="M311.553506 756.867012h44.521412v44.521412h-44.521412z" fill="#FFFF93" p-id="5894"></path><path d="M311.553506 712.347106h44.521412v44.521412h-44.521412z" fill="#FFFFFF" p-id="5895"></path><path d="M44.423529 890.435765h44.521412v44.521411H44.423529zM489.646682 489.738541h44.521412v44.521412h-44.521412zM667.729318 44.519906h44.521411v44.521412h-44.521411zM756.776659 89.044329h44.521412v44.521412h-44.521412zM623.200376 0h44.521412v44.521412h-44.521412z" fill="#3A2802" p-id="5896"></path><path d="M712.247718 44.519906h44.521411v44.521412h-44.521411zM801.293553 89.044329h44.521412v44.521412h-44.521412z" fill="#3A2802" p-id="5897"></path><path d="M845.811953 133.564235h44.521412v44.521412h-44.521412zM890.340894 178.088659h44.521412v44.521412h-44.521412z" fill="#3A2802" p-id="5898"></path><path d="M934.859294 222.608565h44.521412v44.521411h-44.521412zM934.859294 311.652894h44.521412v44.521412h-44.521412zM934.859294 489.738541h44.521412v44.521412h-44.521412zM890.340894 578.782871h44.521412v44.521411h-44.521412z" fill="#3A2802" p-id="5899"></path><path d="M890.340894 534.261459h44.521412v44.521412h-44.521412zM890.340894 489.738541h44.521412v44.521412h-44.521412z" fill="#EADF67" p-id="5900"></path><path d="M890.340894 445.217129h44.521412v44.521412h-44.521412z" fill="#F4C700" p-id="5901"></path><path d="M934.859294 267.132988h44.521412v44.521412h-44.521412zM934.859294 445.217129h44.521412v44.521412h-44.521412zM934.859294 356.1728h44.521412v44.521412h-44.521412zM934.859294 534.261459h44.521412v44.521412h-44.521412zM890.340894 623.305788h44.521412v44.521412h-44.521412zM845.811953 667.8272h44.521412v44.521412h-44.521412z" fill="#3A2802" p-id="5902"></path><path d="M845.811953 623.305788h44.521412v44.521412h-44.521412zM845.811953 578.782871h44.521412v44.521411h-44.521412z" fill="#EADF67" p-id="5903"></path><path d="M845.811953 534.261459h44.521412v44.521412h-44.521412z" fill="#FFFF93" p-id="5904"></path><path d="M845.811953 489.738541h44.521412v44.521412h-44.521412zM845.811953 445.217129h44.521412v44.521412h-44.521412z" fill="#FFFFCF" p-id="5905"></path><path d="M845.811953 400.694212h44.521412v44.521412h-44.521412zM845.811953 356.1728h44.521412v44.521412h-44.521412z" fill="#FFFF00" p-id="5906"></path><path d="M845.811953 311.652894h44.521412v44.521412h-44.521412z" fill="#3A2802" p-id="5907"></path><path d="M845.811953 267.132988h44.521412v44.521412h-44.521412zM845.811953 222.608565h44.521412v44.521411h-44.521412z" fill="#F7C4A5" p-id="5908"></path><path d="M845.811953 178.088659h44.521412v44.521412h-44.521412z" fill="#FFFFA5" p-id="5909"></path><path d="M801.293553 712.347106h44.521412v44.521412h-44.521412z" fill="#3A2802" p-id="5910"></path><path d="M801.293553 667.8272h44.521412v44.521412h-44.521412zM801.293553 623.305788h44.521412v44.521412h-44.521412z" fill="#EADF67" p-id="5911"></path><path d="M801.293553 578.782871h44.521412v44.521411h-44.521412z" fill="#FFFF93" p-id="5912"></path><path d="M801.293553 534.261459h44.521412v44.521412h-44.521412zM801.293553 489.738541h44.521412v44.521412h-44.521412zM801.293553 445.217129h44.521412v44.521412h-44.521412zM801.293553 400.694212h44.521412v44.521412h-44.521412z" fill="#FFFFCF" p-id="5913"></path><path d="M801.293553 356.1728h44.521412v44.521412h-44.521412z" fill="#FF4200" p-id="5914"></path><path d="M801.293553 311.652894h44.521412v44.521412h-44.521412z" fill="#FF4200" p-id="5915"></path><path d="M801.293553 267.132988h44.521412v44.521412h-44.521412z" fill="#FFFFA5" p-id="5916"></path><path d="M801.293553 222.608565h44.521412v44.521411h-44.521412z" fill="#3A2802" p-id="5917"></path><path d="M801.293553 178.088659h44.521412v44.521412h-44.521412zM801.293553 133.564235h44.521412v44.521412h-44.521412z" fill="#FFFF00" p-id="5918"></path><path d="M756.776659 756.867012h44.521412v44.521412h-44.521412z" fill="#3A2802" p-id="5919"></path><path d="M756.776659 712.347106h44.521412v44.521412h-44.521412z" fill="#EADF67" p-id="5920"></path><path d="M756.776659 667.8272h44.521412v44.521412h-44.521412z" fill="#EADF67" p-id="5921"></path><path d="M756.776659 623.305788h44.521412v44.521412h-44.521412zM756.776659 578.782871h44.521412v44.521411h-44.521412z" fill="#FFFF93" p-id="5922"></path><path d="M756.776659 534.261459h44.521412v44.521412h-44.521412zM756.776659 489.738541h44.521412v44.521412h-44.521412zM756.776659 445.217129h44.521412v44.521412h-44.521412zM756.776659 400.694212h44.521412v44.521412h-44.521412z" fill="#FFFFCF" p-id="5923"></path><path d="M756.776659 356.1728h44.521412v44.521412h-44.521412z" fill="#FF4200" p-id="5924"></path><path d="M756.776659 311.652894h44.521412v44.521412h-44.521412z" fill="#FF4200" p-id="5925"></path><path d="M756.776659 267.132988h44.521412v44.521412h-44.521412z" fill="#FF4200" p-id="5926"></path><path d="M756.776659 222.608565h44.521412v44.521411h-44.521412z" fill="#FFFF00" p-id="5927"></path><path d="M756.776659 178.088659h44.521412v44.521412h-44.521412z" fill="#FFFFA5" p-id="5928"></path><path d="M756.776659 133.564235h44.521412v44.521412h-44.521412z" fill="#FFFF00" p-id="5929"></path><path d="M801.293553 801.391435h44.521412v44.521412h-44.521412z" fill="#3A2802" p-id="5930"></path><path d="M801.293553 845.911341h44.521412v44.521412h-44.521412z" fill="#9D5913" p-id="5931"></path><path d="M801.293553 890.435765h44.521412v44.521411h-44.521412zM845.811953 845.911341h44.521412v44.521412h-44.521412zM890.340894 400.694212h44.521412v44.521412h-44.521412zM890.340894 356.1728h44.521412v44.521412h-44.521412z" fill="#3A2802" p-id="5932"></path><path d="M890.340894 311.652894h44.521412v44.521412h-44.521412z" fill="#E39B6F" p-id="5933"></path><path d="M890.340894 267.132988h44.521412v44.521412h-44.521412z" fill="#E39B6F" p-id="5934"></path><path d="M890.340894 222.608565h44.521412v44.521411h-44.521412z" fill="#F7C4A5" p-id="5935"></path></svg>