<svg id="Line" xmlns="http://www.w3.org/2000/svg" viewBox="0 0 24 24" width="96" height="96"><path id="primary" d="M19.54,11.53a15.59,15.59,0,0,1-5.49,3.35,10.06,10.06,0,0,1-3,.87L8.25,12.93a10.06,10.06,0,0,1,.87-3,15.59,15.59,0,0,1,3.35-5.49,5,5,0,0,1,7.07,7.07Zm-11.2,7,2.74-2.74h0L8.25,12.93h0L5.51,15.66A2,2,0,0,0,3.59,19a1.94,1.94,0,0,0,.9.51,1.94,1.94,0,0,0,.51.9,2,2,0,0,0,3.34-1.92Z" style="fill: none; stroke: currentColor;color:currentColor; stroke-linecap: round; stroke-linejoin: round; stroke-width: 0.75;"></path></svg>