<svg t="1736408975622" class="icon" viewBox="0 0 1024 1024" version="1.1" xmlns="http://www.w3.org/2000/svg" p-id="4279" width="200" height="200"><path d="M512 64C264.6 64 64 264.6 64 512s200.6 448 448 448 448-200.6 448-448S759.4 64 512 64z m265.9 713.9a377.2 377.2 0 0 1-119.6 80.6 377.5 377.5 0 0 1-292.6 0 377.1 377.1 0 0 1-200.2-200.2 377.5 377.5 0 0 1 0-292.6 377.1 377.1 0 0 1 200.2-200.2 377.5 377.5 0 0 1 292.6 0 377.1 377.1 0 0 1 200.2 200.2 377.5 377.5 0 0 1 0 292.6 377.2 377.2 0 0 1-80.6 119.6zM512 256c-141.4 0-256 114.6-256 256s114.6 256 256 256 256-114.6 256-256-114.6-256-256-256z" p-id="4280"></path></svg>