<svg id="Line" xmlns="http://www.w3.org/2000/svg" viewBox="0 0 24 24" width="96" height="96"><line id="primary" x1="6" y1="7.5" x2="3" y2="10.5" style="fill: none; stroke: currentColor;color:currentColor; stroke-linecap: round; stroke-linejoin: round; stroke-width: 0.75;"></line><line id="primary-2" data-name="primary" x1="3" y1="7.5" x2="6" y2="10.5" style="fill: none; stroke: currentColor;color:currentColor; stroke-linecap: round; stroke-linejoin: round; stroke-width: 0.75;"></line><path id="primary-3" data-name="primary" d="M9,3.52A8.8,8.8,0,0,1,12,3,9,9,0,1,1,5.64,18.36,8.86,8.86,0,0,1,3.52,15" style="fill: none; stroke: currentColor;color:currentColor; stroke-linecap: round; stroke-linejoin: round; stroke-width: 0.75;"></path><path id="primary-4" data-name="primary" d="M7,19.5a9,9,0,0,0,9.94,0A5,5,0,0,0,7,19.5Z" style="fill: none; stroke: currentColor;color:currentColor; stroke-linecap: round; stroke-linejoin: round; stroke-width: 0.75;"></path><path id="primary-5" data-name="primary" d="M9,13.64A4,4,0,1,0,12,7a4.09,4.09,0,0,0-2,.53" style="fill: none; stroke: currentColor;color:currentColor; stroke-linecap: round; stroke-linejoin: round; stroke-width: 0.75;"></path></svg>