<svg id="Line" xmlns="http://www.w3.org/2000/svg" viewBox="0 0 24 24" width="96" height="96"><line id="primary" x1="18" y1="7.5" x2="21" y2="10.5" style="fill: none; stroke: currentColor;color:currentColor; stroke-linecap: round; stroke-linejoin: round; stroke-width: 0.75;"></line><line id="primary-2" data-name="primary" x1="21" y1="7.5" x2="18" y2="10.5" style="fill: none; stroke: currentColor;color:currentColor; stroke-linecap: round; stroke-linejoin: round; stroke-width: 0.75;"></line><path id="primary-3" data-name="primary" d="M20.48,15a8.86,8.86,0,0,1-2.12,3.36A9,9,0,1,1,12,3a8.8,8.8,0,0,1,3,.52" style="fill: none; stroke: currentColor;color:currentColor; stroke-linecap: round; stroke-linejoin: round; stroke-width: 0.75;"></path><path id="primary-4" data-name="primary" d="M12,15a5,5,0,0,0-5,4.5,9,9,0,0,0,9.94,0A5,5,0,0,0,12,15Z" style="fill: none; stroke: currentColor;color:currentColor; stroke-linecap: round; stroke-linejoin: round; stroke-width: 0.75;"></path><path id="primary-5" data-name="primary" d="M14,7.53A4.09,4.09,0,0,0,12,7a4,4,0,1,0,3,6.64" style="fill: none; stroke: currentColor;color:currentColor; stroke-linecap: round; stroke-linejoin: round; stroke-width: 0.75;"></path></svg>