<svg id="Line" xmlns="http://www.w3.org/2000/svg" viewBox="0 0 24 24" width="96" height="96"><path id="primary" d="M9.17,17H13V6a1,1,0,0,0-1-1H5" style="fill: none; stroke: currentColor;color:currentColor; stroke-linecap: round; stroke-linejoin: round; stroke-width: 0.75;"></path><path id="primary-2" data-name="primary" d="M3,13v3a1,1,0,0,0,1,1h.87" style="fill: none; stroke: currentColor;color:currentColor; stroke-linecap: round; stroke-linejoin: round; stroke-width: 0.75;"></path><path id="primary-3" data-name="primary" d="M14.87,17H13V7h4.25a1,1,0,0,1,1,.73L19,10.5l1.24.31a1,1,0,0,1,.76,1V16a1,1,0,0,1-1,1h-.89" style="fill: none; stroke: currentColor;color:currentColor; stroke-linecap: round; stroke-linejoin: round; stroke-width: 0.75;"></path><path id="primary-4" data-name="primary" d="M7,15a2,2,0,1,0,2,2A2,2,0,0,0,7,15Zm10,0a2,2,0,1,0,2,2A2,2,0,0,0,17,15ZM3,9H9" style="fill: none; stroke: currentColor;color:currentColor; stroke-linecap: round; stroke-linejoin: round; stroke-width: 0.75;"></path></svg>