<svg id="Line" xmlns="http://www.w3.org/2000/svg" viewBox="0 0 24 24" width="96" height="96"><path id="primary" d="M20.93,8.72l-.23-.56A3.68,3.68,0,0,0,17.31,6a4,4,0,0,0-2.19.65L7.3,11.54,6,10.64a1.07,1.07,0,0,0-1.19,0L3,11.74l3.57,3.93a1.1,1.1,0,0,0,1.25.23l3.63-1.73L11,18l2.74-1.82a1,1,0,0,0,.37-.47l1.2-3.08a1,1,0,0,1,.51-.54l4.63-2.21A.9.9,0,0,0,20.93,8.72Z" style="fill: none; stroke: currentColor;color:currentColor; stroke-linecap: round; stroke-linejoin: round; stroke-width: 0.75;"></path></svg>