<svg id="Line" xmlns="http://www.w3.org/2000/svg" viewBox="0 0 24 24" width="96" height="96"><path id="primary" d="M3.07,8.72l.23-.56A3.68,3.68,0,0,1,6.69,6a4,4,0,0,1,2.19.65l7.82,4.89,1.3-.9a1.07,1.07,0,0,1,1.19,0L21,11.74l-3.57,3.93a1.1,1.1,0,0,1-1.25.23l-3.63-1.73L13,18l-2.74-1.82a1,1,0,0,1-.37-.47l-1.2-3.08a1,1,0,0,0-.51-.54L3.55,9.88A.9.9,0,0,1,3.07,8.72Z" style="fill: none; stroke: currentColor;color:currentColor; stroke-linecap: round; stroke-linejoin: round; stroke-width: 0.75;"></path></svg>