<svg id="Line" xmlns="http://www.w3.org/2000/svg" viewBox="0 0 24 24" width="96" height="96"><path id="primary" d="M3,21l3.74-6.54a2,2,0,0,0,.26-1V8h4v5.17a2,2,0,0,0,.59,1.42l1.82,1.82A2,2,0,0,1,14,17.83V21" style="fill: none; stroke: currentColor;color:currentColor; stroke-linecap: round; stroke-linejoin: round; stroke-width: 0.75;"></path><path id="primary-2" data-name="primary" d="M21,4l-6,6L11,8H7L3.49,10.11A1,1,0,0,0,3,11v1" style="fill: none; stroke: currentColor;color:currentColor; stroke-linecap: round; stroke-linejoin: round; stroke-width: 0.75;"></path><path id="primary-3" data-name="primary" d="M11,5A2,2,0,1,1,9,3,2,2,0,0,1,11,5Zm5,2,2,2" style="fill: none; stroke: currentColor;color:currentColor; stroke-linecap: round; stroke-linejoin: round; stroke-width: 0.75;"></path></svg>