<svg id="Line" xmlns="http://www.w3.org/2000/svg" viewBox="0 0 24 24" width="96" height="96"><path id="primary" d="M19.56,14.52,21,13.08M9.48,4.44,10.92,3m9.16,13.08-2-5.88L13.8,14.52l4.32,4.32,1.72-1.72A1,1,0,0,0,20.08,16.08ZM5.16,5.88,9.48,10.2,13.8,5.88l-5.88-2a1,1,0,0,0-1,.24Zm7.36,13.44a4.5,4.5,0,0,1,1.09-4.61l4.63-4.63a8,8,0,0,0,2.34-5.64,1,1,0,0,0-1-1,8,8,0,0,0-5.64,2.34L9.29,10.39a4.5,4.5,0,0,1-4.61,1.09h0a1,1,0,0,0-1,.24L3,12.36,11.64,21l.64-.64a1,1,0,0,0,.24-1Z" style="fill: none; stroke: currentColor;color:currentColor; stroke-linecap: round; stroke-linejoin: round; stroke-width: 0.75;"></path></svg>