<svg id="Line" xmlns="http://www.w3.org/2000/svg" viewBox="0 0 24 24" width="96" height="96"><path id="primary" d="M19,11V9M5,11V9m15.45,2.72L15,9v6h6V12.62A1,1,0,0,0,20.45,11.72ZM3,15H9V9L3.55,11.72a1,1,0,0,0-.55.9Zm14.45,4.22a4.43,4.43,0,0,1-2.45-4V8.83a7.82,7.82,0,0,0-2.29-5.54,1,1,0,0,0-1.42,0A7.82,7.82,0,0,0,9,8.83v6.43a4.43,4.43,0,0,1-2.45,4h0a1,1,0,0,0-.55.9V21H18v-.88a1,1,0,0,0-.55-.9Z" style="fill: none; stroke: currentColor;color:currentColor; stroke-linecap: round; stroke-linejoin: round; stroke-width: 0.75;"></path></svg>