<svg id="Line" xmlns="http://www.w3.org/2000/svg" viewBox="0 0 24 24" width="96" height="96"><path id="primary" d="M14.52,4.44,13.08,3M4.44,14.52,3,13.08M16.08,3.92l-5.88,2,4.32,4.32,4.32-4.32L17.12,4.16A1,1,0,0,0,16.08,3.92ZM5.88,18.84l4.32-4.32L5.88,10.2l-2,5.88a1,1,0,0,0,.24,1Zm13.44-7.36a4.5,4.5,0,0,1-4.61-1.09L10.08,5.76A8,8,0,0,0,4.44,3.42a1,1,0,0,0-1,1,8,8,0,0,0,2.34,5.64l4.63,4.63a4.5,4.5,0,0,1,1.09,4.61h0a1,1,0,0,0,.24,1l.64.64L21,12.36l-.64-.64a1,1,0,0,0-1-.24Z" style="fill: none; stroke: currentColor;color:currentColor; stroke-linecap: round; stroke-linejoin: round; stroke-width: 0.75;"></path></svg>