<svg t="1736229729481" class="icon" viewBox="0 0 1024 1024" version="1.1" xmlns="http://www.w3.org/2000/svg" p-id="11121" width="200" height="200"><path d="M928 352c8.832 0 16-7.168 16-16s-7.168-16-16-16l-240 0 0-240c0-8.832-7.168-16-16-16s-16 7.168-16 16l0 240-288 0 0-240c0-8.832-7.168-16-16-16s-16 7.168-16 16l0 240-240 0c-8.832 0-16 7.168-16 16s7.168 16 16 16l240 0 0 288-240 0c-8.832 0-16 7.168-16 16s7.168 16 16 16l240 0 0 272c0 8.832 7.168 16 16 16s16-7.168 16-16l0-272 288 0 0 272c0 8.832 7.168 16 16 16s16-7.168 16-16l0-272 240 0c8.832 0 16-7.168 16-16s-7.168-16-16-16l-240 0 0-288 240 0zM656 640l-288 0 0-288 288 0 0 288zM1008 976l0-928c0-26.464-21.536-48-48-48l-896 0c-26.464 0-48 21.536-48 48l0 928c0 26.464 21.536 48 48 48l896 0c26.464 0 48-21.536 48-48zM48 976l0-928c0-8.832 7.2-16 16-16l896 0c8.8 0 16 7.168 16 16l0 928c0 8.832-7.2 16-16 16l-896 0c-8.8 0-16-7.168-16-16z" fill="#444444" p-id="11122"></path></svg>