<svg id="Layer_1" data-name="Layer 1" xmlns="http://www.w3.org/2000/svg" viewBox="0 0 24 24" width="96" height="96"><path id="primary" d="M15,21l-.11-.21A3.21,3.21,0,0,0,12,19h0a3.21,3.21,0,0,0-2.89,1.79L9,21" style="fill: none; stroke: currentColor;color:currentColor; stroke-linecap: round; stroke-linejoin: round; stroke-width: 0.75;"></path><path id="primary-2" data-name="primary" d="M5,12c0-.94,0-1.85.11-2.7A6.89,6.89,0,0,1,12,3h0a6.89,6.89,0,0,1,6.89,6.3c.07.85.11,1.76.11,2.7Zm13,1V12H6v1a6,6,0,0,0,6,6h0A6,6,0,0,0,18,13ZM3,12H21" style="fill: none; stroke: currentColor;color:currentColor; stroke-linecap: round; stroke-linejoin: round; stroke-width: 0.75;"></path></svg>