<svg id="line" xmlns="http://www.w3.org/2000/svg" viewBox="0 0 24 24" width="96" height="96"><path id="primary" d="M17,21H16a1,1,0,0,1-1-1V13a1,1,0,0,1,1-1h1a3,3,0,0,1,3,3v3A3,3,0,0,1,17,21ZM7,21H8a1,1,0,0,0,1-1V13a1,1,0,0,0-1-1H7a3,3,0,0,0-3,3v3A3,3,0,0,0,7,21Z" style="fill: none; stroke: currentColor;color:currentColor; stroke-linecap: round; stroke-linejoin: round; stroke-width: 0.75;"></path><path id="primary-2" data-name="primary" d="M4,17l-.36-5A8.38,8.38,0,0,1,12,3h0a8.38,8.38,0,0,1,8.36,9L20,17" style="fill: none; stroke: currentColor;color:currentColor; stroke-linecap: round; stroke-linejoin: round; stroke-width: 0.75;"></path></svg>