<svg id="Line" xmlns="http://www.w3.org/2000/svg" viewBox="0 0 24 24" width="96" height="96"><path id="primary" d="M3.07,13H11a1,1,0,0,0,1-1V7" style="fill: none; stroke: currentColor;color:currentColor; stroke-linecap: round; stroke-linejoin: round; stroke-width: 0.75;"></path><path id="primary-2" data-name="primary" d="M6,3H18M3,21H17M12,7V3m8,4H8.47A4,4,0,0,0,4.89,9.21L3,13v3a1,1,0,0,0,1,1h8.12a4,4,0,0,0,3.79-2.74l.86-2.58a1,1,0,0,1,.95-.68H20a1,1,0,0,0,1-1V8A1,1,0,0,0,20,7ZM8,21h4V17H8Z" style="fill: none; stroke: currentColor;color:currentColor; stroke-linecap: round; stroke-linejoin: round; stroke-width: 0.75;"></path></svg>