<svg id="Line" xmlns="http://www.w3.org/2000/svg" viewBox="0 0 24 24" width="96" height="96"><path id="primary" d="M12,7v5a1,1,0,0,0,1,1h7.93" style="fill: none; stroke: currentColor;color:currentColor; stroke-linecap: round; stroke-linejoin: round; stroke-width: 0.75;"></path><path id="primary-2" data-name="primary" d="M6,3H18M7,21H21M12,3V7M3,8v2a1,1,0,0,0,1,1H6.28a1,1,0,0,1,1,.68l.86,2.58A4,4,0,0,0,11.88,17H20a1,1,0,0,0,1-1V13L19.11,9.21A4,4,0,0,0,15.53,7H4A1,1,0,0,0,3,8Zm13,9H12v4h4Z" style="fill: none; stroke: currentColor;color:currentColor; stroke-linecap: round; stroke-linejoin: round; stroke-width: 0.75;"></path></svg>