<svg id="Line" xmlns="http://www.w3.org/2000/svg" viewBox="0 0 24 24" width="96" height="96"><path id="primary" d="M21,12a9,9,0,1,1-9-9A9,9,0,0,1,21,12ZM12,8a4,4,0,1,0,4,4A4,4,0,0,0,12,8Z" style="fill: none; stroke: currentColor;color:currentColor; stroke-linecap: round; stroke-linejoin: round; stroke-width: 0.75;"></path><line id="primary-2" data-name="primary" x1="14.41" y1="3.58" x2="13.17" y2="7.9" style="fill: none; stroke: currentColor;color:currentColor; stroke-linecap: round; stroke-linejoin: round; stroke-width: 0.75;"></line><line id="primary-3" data-name="primary" x1="9.59" y1="3.58" x2="10.83" y2="7.9" style="fill: none; stroke: currentColor;color:currentColor; stroke-linecap: round; stroke-linejoin: round; stroke-width: 0.75;"></line><line id="primary-4" data-name="primary" x1="20.42" y1="14.41" x2="16.1" y2="13.17" style="fill: none; stroke: currentColor;color:currentColor; stroke-linecap: round; stroke-linejoin: round; stroke-width: 0.75;"></line><line id="primary-5" data-name="primary" x1="20.42" y1="9.59" x2="16.1" y2="10.83" style="fill: none; stroke: currentColor;color:currentColor; stroke-linecap: round; stroke-linejoin: round; stroke-width: 0.75;"></line><line id="primary-6" data-name="primary" x1="9.59" y1="20.42" x2="10.83" y2="16.1" style="fill: none; stroke: currentColor;color:currentColor; stroke-linecap: round; stroke-linejoin: round; stroke-width: 0.75;"></line><line id="primary-7" data-name="primary" x1="14.41" y1="20.42" x2="13.17" y2="16.1" style="fill: none; stroke: currentColor;color:currentColor; stroke-linecap: round; stroke-linejoin: round; stroke-width: 0.75;"></line><line id="primary-8" data-name="primary" x1="3.58" y1="9.59" x2="7.9" y2="10.83" style="fill: none; stroke: currentColor;color:currentColor; stroke-linecap: round; stroke-linejoin: round; stroke-width: 0.75;"></line><line id="primary-9" data-name="primary" x1="3.58" y1="14.41" x2="7.9" y2="13.17" style="fill: none; stroke: currentColor;color:currentColor; stroke-linecap: round; stroke-linejoin: round; stroke-width: 0.75;"></line></svg>