<svg id="Line" xmlns="http://www.w3.org/2000/svg" viewBox="0 0 24 24" width="96" height="96"><path id="primary" d="M3,20.5c1.5,0,1.5.5,3,.5s1.5-.5,3-.5,1.5.5,3,.5,1.5-.5,3-.5,1.5.5,3,.5,1.5-.5,3-.5" style="fill: none; stroke: currentColor;color:currentColor; stroke-linecap: round; stroke-linejoin: round; stroke-width: 0.75;"></path><path id="primary-2" data-name="primary" d="M3,16.5c1.5,0,1.5.5,3,.5s1.5-.5,3-.5,1.5.5,3,.5,1.5-.5,3-.5,1.5.5,3,.5,1.5-.5,3-.5" style="fill: none; stroke: currentColor;color:currentColor; stroke-linecap: round; stroke-linejoin: round; stroke-width: 0.75;"></path><path id="primary-3" data-name="primary" d="M3,12.5c1.5,0,1.5.5,3,.5s1.5-.5,3-.5,1.5.5,3,.5,1.5-.5,3-.5,1.5.5,3,.5,1.5-.5,3-.5" style="fill: none; stroke: currentColor;color:currentColor; stroke-linecap: round; stroke-linejoin: round; stroke-width: 0.75;"></path><line id="primary-4" data-name="primary" x1="12" y1="9" x2="12" y2="3" style="fill: none; stroke: currentColor;color:currentColor; stroke-linecap: round; stroke-linejoin: round; stroke-width: 0.75;"></line><polyline id="primary-5" data-name="primary" points="14 5 12 3 10 5" style="fill: none; stroke: currentColor;color:currentColor; stroke-linecap: round; stroke-linejoin: round; stroke-width: 0.75;"></polyline></svg>