<svg id="Line" xmlns="http://www.w3.org/2000/svg" viewBox="0 0 24 24" width="96" height="96"><path id="primary" d="M9,17v3a1,1,0,0,0,1,1h7a1,1,0,0,0,1-1V18" style="fill: none; stroke: currentColor;color:currentColor; stroke-linecap: round; stroke-linejoin: round; stroke-width: 0.75;"></path><path id="primary-2" data-name="primary" d="M3,16V5A1,1,0,0,1,4,4H15V17H4A1,1,0,0,1,3,16Zm13,2h4a1,1,0,0,0,1-1V4a1,1,0,0,0-1-1H16a1,1,0,0,0-1,1V17A1,1,0,0,0,16,18ZM11,8H7" style="fill: none; stroke: currentColor;color:currentColor; stroke-linecap: round; stroke-linejoin: round; stroke-width: 0.75;"></path></svg>