<svg id="Line" xmlns="http://www.w3.org/2000/svg" viewBox="0 0 24 24" width="96" height="96"><circle id="primary" cx="12" cy="5" r="2" style="fill: none; stroke: currentColor;color:currentColor; stroke-linecap: round; stroke-linejoin: round; stroke-width: 0.75;"></circle><path id="primary-2" data-name="primary" d="M10,8,5.44,7.45A1,1,0,0,1,4.74,7L4,6" style="fill: none; stroke: currentColor;color:currentColor; stroke-linecap: round; stroke-linejoin: round; stroke-width: 0.75;"></path><path id="primary-3" data-name="primary" d="M14,8l4.56-.55a1,1,0,0,0,.7-.41L20,6" style="fill: none; stroke: currentColor;color:currentColor; stroke-linecap: round; stroke-linejoin: round; stroke-width: 0.75;"></path><polyline id="primary-4" data-name="primary" points="8 21 10 14 10 8 14 8 14 14 16 21" style="fill: none; stroke: currentColor;color:currentColor; stroke-linecap: round; stroke-linejoin: round; stroke-width: 0.75;"></polyline><path id="primary-5" data-name="primary" d="M14,12.08c2.89.25,5,1,5,1.92,0,1.1-3.13,2-7,2s-7-.9-7-2c0-.9,2.11-1.67,5-1.92" style="fill: none; stroke: currentColor;color:currentColor; stroke-linecap: round; stroke-linejoin: round; stroke-width: 0.75;"></path></svg>