<svg width="22" height="22" viewBox="0 0 22 22" fill="none" xmlns="http://www.w3.org/2000/svg">
<g id="Group 331">
<g id="Frame">
<path id="Vector" d="M10.6977 20.2125C5.6322 20.2125 1.5127 16.093 1.5127 11.0275C1.5127 5.96203 5.6322 1.84253 10.6977 1.84253C11.3412 1.84253 11.9847 1.90853 12.6117 2.04053C12.9692 2.11753 13.1947 2.46403 13.1232 2.82153C13.0462 3.17903 12.6997 3.40453 12.3422 3.33303C11.8087 3.21753 11.2532 3.16253 10.7032 3.16253C6.3637 3.16253 2.83819 6.68803 2.83819 11.0275C2.83819 15.367 6.3637 18.8925 10.7032 18.8925C15.0427 18.8925 18.5682 15.367 18.5682 11.0275C18.5682 10.516 18.5187 10.0045 18.4197 9.50403C18.3482 9.14653 18.5847 8.80003 18.9422 8.72853C19.2997 8.65703 19.6462 8.89353 19.7177 9.25103C19.8332 9.83403 19.8882 10.428 19.8882 11.0275C19.8827 16.0875 15.7577 20.2125 10.6977 20.2125Z" fill="white"/>
<path id="Vector_2" d="M10.6977 16.0875C7.9092 16.0875 5.6377 13.816 5.6377 11.0275C5.6377 8.23903 7.9092 5.96753 10.6977 5.96753C11.1432 5.96753 11.5887 6.02803 12.0177 6.14353C12.3697 6.23703 12.5787 6.60003 12.4852 6.95203C12.3917 7.30403 12.0287 7.51303 11.6767 7.41953C11.3577 7.33703 11.0332 7.29303 10.7032 7.29303C8.6407 7.29303 6.9632 8.97053 6.9632 11.033C6.9632 13.0955 8.6407 14.773 10.7032 14.773C12.7657 14.773 14.4432 13.0955 14.4432 11.033C14.4432 10.813 14.4212 10.593 14.3882 10.3785C14.3222 10.021 14.5642 9.67453 14.9217 9.61403C15.2792 9.54803 15.6257 9.79003 15.6862 10.1475C15.7357 10.439 15.7632 10.736 15.7632 11.033C15.7577 13.816 13.4862 16.0875 10.6977 16.0875Z" fill="white"/>
<path id="Vector_3" d="M11.5062 10.912C11.3247 10.912 11.1432 10.835 11.0112 10.692C10.7692 10.417 10.7912 10.0045 11.0662 9.76249L14.4432 6.75949C14.7182 6.51749 15.1307 6.53949 15.3727 6.81449C15.6147 7.08949 15.5927 7.50199 15.3177 7.74399L11.9407 10.747C11.8197 10.857 11.6657 10.912 11.5062 10.912Z" fill="white"/>
<path id="Vector_4" d="M17.4902 8.34901C17.4407 8.34901 17.3857 8.34351 17.3362 8.33251L14.9217 7.74401C14.6962 7.68901 14.5147 7.51851 14.4487 7.29851L13.6842 4.82351C13.6127 4.58701 13.6732 4.33401 13.8492 4.16351L16.4507 1.56201C16.6102 1.40251 16.8467 1.33651 17.0667 1.38601C17.2867 1.44101 17.4682 1.60051 17.5397 1.82051L18.2217 3.85001L20.2402 4.52101C20.4547 4.59251 20.6197 4.77401 20.6747 4.99401C20.7297 5.21401 20.6582 5.45051 20.4987 5.61001L17.9577 8.15101C17.8312 8.27751 17.6607 8.34351 17.4902 8.34901ZM15.5927 6.54501L17.2867 6.95751L18.8102 5.43401L17.4792 4.98851C17.2812 4.92251 17.1272 4.76851 17.0612 4.57051L16.6157 3.23951L15.0482 4.80151L15.5927 6.54501Z" fill="white"/>
</g>
</g>
</svg>
