<svg width="70" height="70" viewBox="0 0 70 70" fill="none" xmlns="http://www.w3.org/2000/svg">
<g id="Group 353">
<g id="Frame">
<path id="Vector" d="M39.9599 42.1644C39.9599 42.1644 37.8932 41.6133 37.3421 41.3377C36.2399 40.6488 35.551 39.271 35.551 37.8932C35.551 36.3777 36.791 35.1377 37.6177 34.1732C39.6843 31.6932 40.7865 28.3866 40.7865 24.6666C40.7865 16.9511 35.2754 10.7511 28.5243 10.7511C21.7732 10.7511 16.2621 17.0888 16.2621 24.8043C16.2621 28.5243 17.5021 31.831 19.431 34.311C20.671 34.9999 21.4977 36.5155 21.4977 38.031C21.4977 39.4088 20.8088 40.6488 19.7065 41.4755V41.6132C19.5688 41.6132 19.431 41.751 19.431 41.751C18.7421 42.1643 18.0532 42.4399 17.2265 42.4399C11.991 44.231 7.58209 46.9865 4.96434 50.431H5.10209C4.41324 51.3956 4.1377 52.4977 4.1377 53.5999C4.1377 56.9066 6.89318 59.6621 10.3377 59.6621H46.711C50.2932 59.6621 53.0488 57.0444 53.0488 53.5999C53.0488 52.2221 52.4977 50.9821 51.8088 49.8799C49.191 46.4355 45.0577 43.8177 39.9599 42.1644ZM64.6221 48.2266C62.2799 45.3333 58.6977 42.8533 54.151 41.4755C54.151 41.4755 52.3599 41.0621 51.8088 40.7866C50.8443 40.0977 50.2932 38.9955 50.2932 37.7555C50.2932 36.3777 51.3954 35.2755 52.0843 34.5866C53.8754 32.3821 54.9777 29.4888 54.9777 26.1821C54.9777 19.431 50.1554 13.7821 44.0932 13.7821C43.1288 13.7821 42.1643 13.9199 41.3377 14.1955C43.4043 17.2266 44.5065 20.8088 44.5065 24.8044C44.5065 29.0755 42.991 33.2088 40.3732 36.6533L40.0977 36.9288V37.0666C39.8221 37.3421 39.4088 37.7555 39.271 38.1688C39.271 38.3066 39.271 38.3066 39.4088 38.3066C39.6843 38.4444 40.0977 38.5821 40.511 38.5821H40.6488L41.1999 38.8577C46.8488 40.6488 51.671 43.8177 54.8399 47.8132C56.2177 49.6044 57.0443 51.671 57.0443 53.8755C57.0443 55.1155 56.7688 56.0799 56.3554 57.1821H60.351C63.5199 57.1821 65.9999 54.8399 65.9999 51.8088C65.8621 50.2933 65.4488 49.191 64.6221 48.2266Z" fill="url(#paint0_linear_104_699)"/>
</g>
</g>
<defs>
<linearGradient id="paint0_linear_104_699" x1="35.0688" y1="10.7511" x2="35.0688" y2="59.6621" gradientUnits="userSpaceOnUse">
<stop stop-color="white"/>
<stop offset="1" stop-color="white" stop-opacity="0.3"/>
</linearGradient>
</defs>
</svg>
