<svg width="70" height="70" viewBox="0 0 70 70" fill="none" xmlns="http://www.w3.org/2000/svg">
<g id="Group 354">
<g id="Frame">
<path id="Vector" d="M10.3364 7.6028H59.9909C60.8092 7.60052 61.595 7.92222 62.1768 8.4976C62.7586 9.07298 63.0889 9.85526 63.0957 10.6735V19.6535C63.0894 20.472 62.7592 21.2547 62.1774 21.8305C61.5956 22.4062 60.8094 22.7282 59.9909 22.7259H10.3364C9.51811 22.7282 8.73223 22.4065 8.15046 21.8311C7.56869 21.2557 7.23832 20.4734 7.23156 19.6552V10.6735C7.23832 9.85496 7.56892 9.07243 8.15107 8.497C8.73321 7.92157 9.51952 7.60007 10.3381 7.6028H10.3364ZM17.3511 17.4699H26.2732C27.5526 17.4699 28.5881 16.4395 28.5881 15.1669C28.5881 13.896 27.5526 12.8656 26.2732 12.8656H17.3511C16.0734 12.8656 15.0379 13.896 15.0379 15.1686C15.0379 16.4395 16.0734 17.4716 17.3511 17.4716V17.4699ZM10.3688 27.4428H59.9909C60.8092 27.4405 61.595 27.7622 62.1768 28.3376C62.7586 28.913 63.0889 29.6952 63.0957 30.5135V39.4935C63.0894 40.312 62.7592 41.0947 62.1774 41.6705C61.5956 42.2462 60.8094 42.5681 59.9909 42.5659H10.3364C9.51811 42.5681 8.73223 42.2464 8.15046 41.6711C7.56869 41.0957 7.23832 40.3134 7.23156 39.4952V30.5066C7.24012 29.6896 7.57127 28.9091 8.15285 28.3352C8.73443 27.7613 9.51928 27.4405 10.3364 27.4428H10.3705H10.3688ZM17.3511 37.3031H26.2732C27.5526 37.3031 28.5881 36.271 28.5881 35.0001C28.5881 33.7291 27.5526 32.6971 26.2732 32.6971H17.3511C16.0734 32.6971 15.0379 33.7291 15.0379 35.0001C15.0379 36.271 16.0734 37.3031 17.3511 37.3031ZM10.3688 47.2742H59.9909C60.8092 47.2719 61.595 47.5937 62.1768 48.169C62.7586 48.7444 63.0889 49.5267 63.0957 50.3449V59.3249C63.0894 60.1434 62.7592 60.9262 62.1774 61.5019C61.5956 62.0777 60.8094 62.3996 59.9909 62.3973H10.3364C9.51811 62.3996 8.73223 62.0779 8.15046 61.5025C7.56869 60.9271 7.23832 60.1449 7.23156 59.3266V50.3466C7.23787 49.5281 7.56804 48.7454 8.14986 48.1696C8.73169 47.5939 9.51782 47.272 10.3364 47.2742H10.3705H10.3688ZM17.3511 57.1345H26.2732C27.5526 57.1345 28.5881 56.1041 28.5881 54.8315C28.5881 53.5606 27.5526 52.5285 26.2732 52.5285H17.3511C16.0734 52.5285 15.0379 53.5606 15.0379 54.8315C15.0379 56.1041 16.0734 57.1345 17.3511 57.1345Z" fill="url(#paint0_linear_104_701)"/>
</g>
</g>
<defs>
<linearGradient id="paint0_linear_104_701" x1="35.1636" y1="7.60278" x2="35.1636" y2="62.3973" gradientUnits="userSpaceOnUse">
<stop stop-color="white"/>
<stop offset="1" stop-color="white" stop-opacity="0.3"/>
</linearGradient>
</defs>
</svg>
