<svg width="18" height="18" viewBox="0 0 18 18" fill="none" xmlns="http://www.w3.org/2000/svg">
<g id="Group 337">
<g id="Frame">
<path id="Vector" d="M11.0625 1.875H3.1875C2.8394 1.875 2.50556 2.01328 2.25942 2.25942C2.01328 2.50556 1.875 2.8394 1.875 3.1875V11.0625C1.875 11.4106 2.01328 11.7444 2.25942 11.9906C2.50556 12.2367 2.8394 12.375 3.1875 12.375H11.0625C11.4106 12.375 11.7444 12.2367 11.9906 11.9906C12.2367 11.7444 12.375 11.4106 12.375 11.0625V3.1875C12.375 2.8394 12.2367 2.50556 11.9906 2.25942C11.7444 2.01328 11.4106 1.875 11.0625 1.875ZM11.0625 3C11.1122 3 11.1599 3.01975 11.1951 3.05492C11.2302 3.09008 11.25 3.13777 11.25 3.1875V11.0625C11.25 11.0871 11.2452 11.1115 11.2357 11.1343C11.2263 11.157 11.2125 11.1777 11.1951 11.1951C11.1777 11.2125 11.157 11.2263 11.1343 11.2357C11.1115 11.2451 11.0871 11.25 11.0625 11.25H3.1875C3.13777 11.25 3.09008 11.2302 3.05492 11.1951C3.01975 11.1599 3 11.1122 3 11.0625V3.1875C3 3.13777 3.01975 3.09008 3.05492 3.05492C3.09008 3.01975 3.13777 3 3.1875 3H11.0625ZM6.75 13.5C6.75 13.3508 6.69074 13.2077 6.58525 13.1023C6.47976 12.9968 6.33668 12.9375 6.1875 12.9375C6.03832 12.9375 5.89524 12.9968 5.78975 13.1023C5.68426 13.2077 5.625 13.3508 5.625 13.5V14.8125C5.625 15.1606 5.76328 15.4944 6.00942 15.7406C6.25556 15.9867 6.5894 16.125 6.9375 16.125H14.8125C15.1606 16.125 15.4944 15.9867 15.7406 15.7406C15.9867 15.4944 16.125 15.1606 16.125 14.8125V6.9375C16.125 6.5894 15.9867 6.25556 15.7406 6.00942C15.4944 5.76328 15.1606 5.625 14.8125 5.625H13.5C13.3508 5.625 13.2077 5.68426 13.1023 5.78975C12.9968 5.89524 12.9375 6.03832 12.9375 6.1875C12.9375 6.33668 12.9968 6.47976 13.1023 6.58525C13.2077 6.69074 13.3508 6.75 13.5 6.75H14.8125C14.8622 6.75 14.9099 6.76975 14.9451 6.80492C14.9802 6.84008 15 6.88777 15 6.9375V14.8125C15 14.8622 14.9802 14.9099 14.9451 14.9451C14.9099 14.9802 14.8622 15 14.8125 15H6.9375C6.88777 15 6.84008 14.9802 6.80492 14.9451C6.76976 14.9099 6.75 14.8622 6.75 14.8125V13.5Z" fill="#6A6F7A"/>
</g>
</g>
</svg>
