<svg t="1742461972868" class="icon" viewBox="0 0 1024 1024" version="1.1" xmlns="http://www.w3.org/2000/svg" p-id="6355" width="200" height="200"><path d="M711.31 974.88H317.56C178 974.88 64.43 861.34 64.43 721.76v-337.5c0-139.58 113.54-253.13 253.13-253.13h393.75c139.58 0 253.12 113.55 253.12 253.13v337.5c0 139.58-113.54 253.12-253.12 253.12z m-393.75-787.5c-108.55 0-196.88 88.33-196.88 196.88v337.5c0 108.54 88.33 196.87 196.88 196.87h393.75c108.54 0 196.87-88.33 196.87-196.87v-337.5c0-108.55-88.33-196.88-196.87-196.88z" fill="#dbdbdb" p-id="6356"></path><path d="M935.89 378.65H93a28.13 28.13 0 1 1 0-56.25h842.89a28.13 28.13 0 1 1 0 56.25zM373.81 257.69a28.1 28.1 0 0 1-28.13-28.12V88.94a28.13 28.13 0 0 1 56.25 0v140.63a28.1 28.1 0 0 1-28.12 28.12zM655.06 257.69a28.1 28.1 0 0 1-28.13-28.12V88.94a28.13 28.13 0 0 1 56.25 0v140.63a28.1 28.1 0 0 1-28.12 28.12zM626.93 581.13h-225a28.13 28.13 0 0 1 0-56.25h225a28.13 28.13 0 1 1 0 56.25zM626.93 749.88h-225a28.13 28.13 0 0 1 0-56.25h225a28.13 28.13 0 1 1 0 56.25z" fill="#dbdbdb" p-id="6357"></path></svg>