<svg width="22" height="22" viewBox="0 0 22 22" fill="none" xmlns="http://www.w3.org/2000/svg">
<g id="Group 325">
<g id="Peoples (&#228;&#186;&#186;&#231;&#190;&#164;)">
<path id="Vector" d="M8.70833 9.16667C10.4803 9.16667 11.9167 7.73025 11.9167 5.95833C11.9167 4.18642 10.4803 2.75 8.70833 2.75C6.93642 2.75 5.5 4.18642 5.5 5.95833C5.5 7.73025 6.93642 9.16667 8.70833 9.16667Z" stroke="#7C818D" stroke-width="1.4" stroke-linecap="round" stroke-linejoin="round"/>
<path id="Vector_2" d="M14.9453 3.20837C15.877 3.76979 16.5002 4.79132 16.5002 5.95837C16.5002 7.12543 15.877 8.14696 14.9453 8.70837" stroke="#237EFF" stroke-width="1.4" stroke-linecap="round" stroke-linejoin="round"/>
<path id="Vector_3" d="M1.8335 18.7V19.25H15.5835V18.7C15.5835 16.6465 15.5835 15.6198 15.1839 14.8354C14.8323 14.1455 14.2714 13.5845 13.5815 13.233C12.7971 12.8334 11.7703 12.8334 9.71683 12.8334H7.70016C5.64665 12.8334 4.61989 12.8334 3.83553 13.233C3.1456 13.5845 2.58467 14.1455 2.23314 14.8354C1.8335 15.6198 1.8335 16.6465 1.8335 18.7Z" stroke="#7C818D" stroke-width="1.4" stroke-linecap="round" stroke-linejoin="round"/>
<path id="Vector_4" d="M20.1666 19.25V18.7C20.1666 16.6465 20.1666 15.6198 19.767 14.8354C19.4154 14.1455 18.8545 13.5846 18.1646 13.233" stroke="#237EFF" stroke-width="1.4" stroke-linecap="round" stroke-linejoin="round"/>
</g>
</g>
</svg>
