<svg t="1742461852433" class="icon" viewBox="0 0 1024 1024" version="1.1" xmlns="http://www.w3.org/2000/svg" p-id="3572" width="200" height="200"><path d="M470.3 450.2c-113 0-204.9-91.9-204.9-204.9S357.3 40.5 470.3 40.5s204.9 91.9 204.9 204.9-91.9 204.8-204.9 204.8z m0-355.1c-82.8 0-150.2 67.4-150.2 150.2s67.4 150.2 150.2 150.2c82.9 0 150.3-67.4 150.3-150.2S553.1 95.1 470.3 95.1zM725.7 975.9H172.2c-46.4 0-89.2-25.1-114.3-67.1-27-45.2-28.4-99.5-3.7-145.1C132 619.1 277 529.3 432.6 529.3h62.2c15.1 0 27.3 12.2 27.3 27.3S510 584 494.9 584h-62.2c-135.5 0-262.1 78.8-330.4 205.6-15.4 28.6-14.4 62.7 2.6 91.2 15.2 25.4 40.4 40.5 67.4 40.5h553.5c15.1 0 27.3 12.2 27.3 27.3 0 15.1-12.3 27.3-27.4 27.3z" fill="#dbdbdb" p-id="3573"></path><path d="M723.5 978.5c-4.6 0-9.2-1.2-13.4-3.5L473.3 841.8c-8.6-4.9-13.9-14-13.9-23.8l-0.1-266.4c0-9.9 5.3-19 13.9-23.8L710 394.5c8.3-4.7 18.5-4.7 26.8 0l236.8 133.1c8.6 4.9 13.9 14 13.9 23.8l0.1 266.5c0 9.9-5.3 19-13.9 23.8L736.9 974.9c-4.1 2.4-8.8 3.6-13.4 3.6zM514 802l209.5 117.8 209.4-117.9-0.1-234.5-209.5-117.8-209.4 117.9 0.1 234.5z" fill="#dbdbdb" p-id="3574"></path><path d="M723.4 783.8c-54.6 0-99.1-44.5-99.1-99.1 0-54.7 44.5-99.1 99.1-99.1 54.7 0 99.1 44.5 99.1 99.1 0.1 54.7-44.4 99.1-99.1 99.1z m0-143.6c-24.5 0-44.5 20-44.5 44.5s20 44.5 44.5 44.5 44.5-20 44.5-44.5-19.9-44.5-44.5-44.5z" fill="#dbdbdb" p-id="3575"></path></svg>