<svg width="70" height="70" viewBox="0 0 70 70" fill="none" xmlns="http://www.w3.org/2000/svg">
<g id="Group 355">
<g id="Frame">
<path id="Vector" d="M45.6428 30.8514C45.0934 30.8539 44.554 30.9986 44.0771 31.2714C44.0357 31.2925 43.9979 31.32 43.9651 31.3531L36.0575 38.9761H35.7355C34.7799 38.977 33.8461 39.2613 33.0521 39.7931C32.2582 40.3249 31.6399 41.0803 31.2754 41.9636C30.9109 42.847 30.8166 43.8186 31.0044 44.7555C31.1922 45.6924 31.6538 46.5526 32.3306 47.2272C33.0075 47.9017 33.8692 48.3603 34.8067 48.545C35.7443 48.7297 36.7156 48.6321 37.5977 48.2646C38.4798 47.8971 39.233 47.2762 39.7621 46.4805C40.2913 45.6848 40.5725 44.75 40.5701 43.7944C40.6308 43.6381 40.6821 43.5027 40.7498 43.3511L47.8851 36.2391C48.181 35.9473 48.4159 35.5996 48.5761 35.2163C48.7363 34.8329 48.8187 34.4215 48.8185 34.0061C48.8146 33.1677 48.479 32.3649 47.8851 31.7731C47.5934 31.4772 47.2457 31.2423 46.8624 31.0821C46.479 30.9219 46.0676 30.8395 45.6521 30.8397L45.6428 30.8514Z" fill="url(#paint0_linear_104_703)"/>
<path id="Vector_2" d="M63.987 22.3906C58.7599 14.7738 50.7338 9.53192 41.6582 7.80774C32.5826 6.08356 23.1934 8.01683 15.5372 13.1861C7.88098 18.3555 2.57857 26.3417 0.785771 35.404C-1.00703 44.4663 0.855143 53.8699 5.96638 61.565C6.22748 61.9429 6.57254 62.2552 6.97453 62.4774C7.37651 62.6997 7.82449 62.8258 8.28338 62.846L8.33471 62.8693H8.47005C8.98557 62.8607 9.49011 62.7188 9.93462 62.4576C10.3791 62.1963 10.7485 61.8245 11.0068 61.3783C11.2652 60.9321 11.4037 60.4266 11.4089 59.9111C11.4142 59.3955 11.2859 58.8873 11.0367 58.436L10.9247 58.24C8.02529 53.9672 6.32215 48.9964 5.99205 43.8433H9.23304C9.99239 43.7839 10.7056 43.4553 11.2442 42.9167C11.7827 42.3782 12.1113 41.665 12.1707 40.9056C12.2216 40.0642 11.942 39.2362 11.3914 38.598C11.1155 38.281 10.7793 38.0223 10.4023 37.8368C10.0253 37.6513 9.61512 37.5428 9.19571 37.5176H6.25338C6.94861 32.9641 8.72487 28.6435 11.4334 24.9176L13.1414 26.6256C13.7472 27.151 14.5298 27.427 15.3311 27.3978C16.1325 27.3686 16.893 27.0365 17.459 26.4684C18.0249 25.9004 18.3543 25.1387 18.3806 24.3372C18.4068 23.5358 18.128 22.7542 17.6004 22.1503L15.7337 20.2463C20.2317 16.2663 25.8487 13.772 31.8174 13.104V17.241C31.8759 18.0025 32.2049 18.718 32.745 19.2581C33.285 19.7981 34.0005 20.1272 34.762 20.1856C35.1779 20.2204 35.5965 20.1698 35.9921 20.037C36.3877 19.9042 36.752 19.6919 37.0627 19.4133C37.3817 19.1352 37.6422 18.7964 37.8289 18.4167C38.0155 18.0369 38.1247 17.6237 38.15 17.2013V13.139C44.0668 13.7943 49.6395 16.2508 54.1147 20.1763L52.0987 22.1923C51.6003 22.7675 51.3279 23.5041 51.3322 24.2652C51.3365 25.0262 51.6172 25.7598 52.122 26.3293C52.3978 26.6475 52.7337 26.908 53.1105 27.0958C53.4874 27.2836 53.8976 27.395 54.3177 27.4236C54.7365 27.4505 55.1564 27.3934 55.5527 27.2555C55.949 27.1177 56.3137 26.9019 56.6254 26.621L58.4244 24.8383C61.1919 28.5758 63.0081 32.9306 63.7164 37.527H60.6224C59.8625 37.585 59.1486 37.9131 58.6097 38.4519C58.0708 38.9908 57.7427 39.7048 57.6847 40.4646C57.6553 40.8821 57.7092 41.3012 57.8434 41.6976C57.9775 42.094 58.1892 42.4597 58.4661 42.7735C58.743 43.0873 59.0795 43.3429 59.4561 43.5253C59.8327 43.7078 60.2419 43.8135 60.6597 43.8363H63.98C63.6654 48.8943 62.0184 53.7791 59.206 57.995C58.9021 58.4826 58.7457 59.0478 58.7556 59.6223C58.7655 60.1969 58.9413 60.7563 59.2619 61.2332C59.5824 61.7102 60.0341 62.0842 60.5624 62.3103C61.0906 62.5364 61.673 62.6049 62.2394 62.5076C63.0227 62.3682 63.7199 61.9266 64.1807 61.278C68.0039 55.5063 70.0258 48.7287 69.9897 41.8058C69.9535 34.8828 67.861 28.1267 63.9777 22.3953L63.987 22.3906Z" fill="url(#paint1_linear_104_703)"/>
<path id="Vector_3" d="M41.7178 62.447H31.4021C30.9556 62.4471 30.5135 62.3592 30.101 62.1884C29.6884 62.0176 29.3136 61.7672 28.9979 61.4515C28.6821 61.1358 28.4317 60.761 28.2608 60.3485C28.0899 59.936 28.002 59.4939 28.002 59.0474C28.002 58.6009 28.0899 58.1588 28.2608 57.7463C28.4317 57.3338 28.6821 56.959 28.9979 56.6433C29.3136 56.3276 29.6884 56.0772 30.101 55.9064C30.5135 55.7355 30.9556 55.6476 31.4021 55.6477H41.7178C42.1643 55.6476 42.6064 55.7355 43.0189 55.9064C43.4314 56.0772 43.8063 56.3276 44.122 56.6433C44.4377 56.959 44.6882 57.3338 44.8591 57.7463C45.03 58.1588 45.1179 58.6009 45.1179 59.0474C45.1179 59.4939 45.03 59.936 44.8591 60.3485C44.6882 60.761 44.4377 61.1358 44.122 61.4515C43.8063 61.7672 43.4314 62.0176 43.0189 62.1884C42.6064 62.3592 42.1643 62.4471 41.7178 62.447Z" fill="url(#paint2_linear_104_703)"/>
</g>
</g>
<defs>
<linearGradient id="paint0_linear_104_703" x1="39.8643" y1="30.8397" x2="39.8643" y2="48.6361" gradientUnits="userSpaceOnUse">
<stop stop-color="white"/>
<stop offset="1" stop-color="white" stop-opacity="0.6"/>
</linearGradient>
<linearGradient id="paint1_linear_104_703" x1="35.0551" y1="7.1925" x2="35.0551" y2="62.8693" gradientUnits="userSpaceOnUse">
<stop stop-color="white"/>
<stop offset="1" stop-color="white" stop-opacity="0.6"/>
</linearGradient>
<linearGradient id="paint2_linear_104_703" x1="36.5599" y1="55.6477" x2="36.5599" y2="62.447" gradientUnits="userSpaceOnUse">
<stop stop-color="white"/>
<stop offset="1" stop-color="white" stop-opacity="0.6"/>
</linearGradient>
</defs>
</svg>
