<svg t="1742461524624" class="icon" viewBox="0 0 1024 1024" version="1.1" xmlns="http://www.w3.org/2000/svg" p-id="2910" width="200" height="200"><path d="M512 440.32c-107.52 0-194.56-87.04-194.56-194.56S404.48 51.2 512 51.2c107.52 0 194.56 87.04 194.56 194.56S619.52 440.32 512 440.32zM512 102.4C435.2 102.4 368.64 168.96 368.64 245.76c0 76.8 66.56 143.36 143.36 143.36s143.36-66.56 143.36-143.36C655.36 168.96 588.8 102.4 512 102.4zM778.24 972.8H245.76c-61.44 0-112.64-30.72-143.36-81.92-25.6-46.08-25.6-107.52 0-153.6 76.8-133.12 220.16-215.04 373.76-215.04h66.56c153.6 0 296.96 81.92 373.76 215.04 25.6 46.08 25.6 107.52 0 153.6-25.6 51.2-76.8 81.92-138.24 81.92z m-302.08-399.36c-138.24 0-261.12 71.68-332.8 189.44-20.48 30.72-20.48 71.68 0 102.4 25.6 35.84 61.44 56.32 102.4 56.32h537.6c40.96 0 76.8-20.48 97.28-56.32 20.48-30.72 20.48-71.68 0-102.4-66.56-117.76-194.56-189.44-332.8-189.44H476.16z" fill="#e6e6e6" p-id="2911"></path></svg>