<svg id="Line" xmlns="http://www.w3.org/2000/svg" viewBox="0 0 24 24" width="96" height="96"><line id="primary-upstroke" x1="10.08" y1="8.29" x2="10.18" y2="8.29" style="fill: none; stroke: currentColor;color:currentColor; stroke-linecap: round; stroke-linejoin: round; stroke-width: 1.125;"></line><path id="primary" d="M21,5V19a1,1,0,0,1-1,1H4a1,1,0,0,1-1-1V5A1,1,0,0,1,4,4H20A1,1,0,0,1,21,5ZM10.51,14.8l5.2,5.2H20a1,1,0,0,0,1-1V15.73L15.29,10ZM3,16.71V19a1,1,0,0,0,1,1H15.71l-8-8Z" style="fill: none; stroke: currentColor;color:currentColor; stroke-linecap: round; stroke-linejoin: round; stroke-width: 0.75;"></path></svg>