<svg id="Line" xmlns="http://www.w3.org/2000/svg" viewBox="0 0 24 24" width="96" height="96"><path id="primary" d="M8,5H6L4,15H7.38a1,1,0,0,1,.9.55l.44.9a1,1,0,0,0,.9.55h4.76a1,1,0,0,0,.9-.55l.44-.9a1,1,0,0,1,.9-.55H20L18,5H16" style="fill: none; stroke: currentColor;color:currentColor; stroke-linecap: round; stroke-linejoin: round; stroke-width: 0.75;"></path><path id="primary-2" data-name="primary" d="M8.28,15.55l.44.9a1,1,0,0,0,.9.55h4.76a1,1,0,0,0,.9-.55l.44-.9a1,1,0,0,1,.9-.55H20v5a1,1,0,0,1-1,1H5a1,1,0,0,1-1-1V15H7.38A1,1,0,0,1,8.28,15.55ZM12,3v9M9,9l3,3,3-3" style="fill: none; stroke: currentColor;color:currentColor; stroke-linecap: round; stroke-linejoin: round; stroke-width: 0.75;"></path></svg>