<svg id="Line" xmlns="http://www.w3.org/2000/svg" viewBox="0 0 24 24" width="96" height="96"><polyline id="primary" points="16 10.5 14.09 13 13 11.75" style="fill: none; stroke: currentColor;color:currentColor; stroke-linecap: round; stroke-linejoin: round; stroke-width: 0.75;"></polyline><path id="primary-2" data-name="primary" d="M6,18v2a1,1,0,0,0,1,1H19a1,1,0,0,0,1-1V4a1,1,0,0,0-1-1H9" style="fill: none; stroke: currentColor;color:currentColor; stroke-linecap: round; stroke-linejoin: round; stroke-width: 0.75;"></path><path id="primary-3" data-name="primary" d="M8,7H5.5A1.5,1.5,0,0,0,4,8.5H4A1.5,1.5,0,0,0,5.5,10h1A1.5,1.5,0,0,1,8,11.5H8A1.5,1.5,0,0,1,6.5,13H4" style="fill: none; stroke: currentColor;color:currentColor; stroke-linecap: round; stroke-linejoin: round; stroke-width: 0.75;"></path><path id="primary-4" data-name="primary" d="M10,17h6M6,7V6m0,8V13" style="fill: none; stroke: currentColor;color:currentColor; stroke-linecap: round; stroke-linejoin: round; stroke-width: 0.75;"></path></svg>