<svg id="Line" xmlns="http://www.w3.org/2000/svg" viewBox="0 0 24 24" width="96" height="96"><polyline id="primary" points="16 10.5 14.09 13 13 11.75" style="fill: none; stroke: currentColor;color:currentColor; stroke-linecap: round; stroke-linejoin: round; stroke-width: 0.75;"></polyline><path id="primary-2" data-name="primary" d="M6,18v2a1,1,0,0,0,1,1H19a1,1,0,0,0,1-1V4a1,1,0,0,0-1-1H7" style="fill: none; stroke: currentColor;color:currentColor; stroke-linecap: round; stroke-linejoin: round; stroke-width: 0.75;"></path><path id="primary-3" data-name="primary" d="M10,17h6M4,10H6" style="fill: none; stroke: currentColor;color:currentColor; stroke-linecap: round; stroke-linejoin: round; stroke-width: 0.75;"></path><path id="primary-4" data-name="primary" d="M9,7.77A3,3,0,0,0,7,7H7a3,3,0,0,0-3,3H4a3,3,0,0,0,3,3H7a3,3,0,0,0,2-.77" style="fill: none; stroke: currentColor;color:currentColor; stroke-linecap: round; stroke-linejoin: round; stroke-width: 0.75;"></path></svg>