<svg id="Line" xmlns="http://www.w3.org/2000/svg" viewBox="0 0 24 24" width="96" height="96"><polyline id="primary" points="11 10.5 9.09 13 8 11.75" style="fill: none; stroke: currentColor;color:currentColor; stroke-linecap: round; stroke-linejoin: round; stroke-width: 0.75;"></polyline><path id="primary-2" data-name="primary" d="M15,3H5A1,1,0,0,0,4,4V20a1,1,0,0,0,1,1H17a1,1,0,0,0,1-1V18" style="fill: none; stroke: currentColor;color:currentColor; stroke-linecap: round; stroke-linejoin: round; stroke-width: 0.75;"></path><path id="primary-3" data-name="primary" d="M20,7H17.5A1.5,1.5,0,0,0,16,8.5h0A1.5,1.5,0,0,0,17.5,10h1A1.5,1.5,0,0,1,20,11.5h0A1.5,1.5,0,0,1,18.5,13H16" style="fill: none; stroke: currentColor;color:currentColor; stroke-linecap: round; stroke-linejoin: round; stroke-width: 0.75;"></path><path id="primary-4" data-name="primary" d="M14,17H8M18,7V6m0,8V13" style="fill: none; stroke: currentColor;color:currentColor; stroke-linecap: round; stroke-linejoin: round; stroke-width: 0.75;"></path></svg>