<svg id="Line" xmlns="http://www.w3.org/2000/svg" viewBox="0 0 24 24" width="96" height="96"><path id="primary" d="M7,3H19a1,1,0,0,1,1,1V20a1,1,0,0,1-1,1H7a1,1,0,0,1-1-1V18" style="fill: none; stroke: currentColor;color:currentColor; stroke-linecap: round; stroke-linejoin: round; stroke-width: 0.75;"></path><path id="primary-2" data-name="primary" d="M10,17h6m-2-4h2M4,10H7" style="fill: none; stroke: currentColor;color:currentColor; stroke-linecap: round; stroke-linejoin: round; stroke-width: 0.75;"></path><path id="primary-3" data-name="primary" d="M10,7.77A3,3,0,0,0,8,7H8a3,3,0,0,0-3,3H5a3,3,0,0,0,3,3H8a3,3,0,0,0,2-.77" style="fill: none; stroke: currentColor;color:currentColor; stroke-linecap: round; stroke-linejoin: round; stroke-width: 0.75;"></path></svg>