<svg id="Line" xmlns="http://www.w3.org/2000/svg" viewBox="0 0 24 24" width="96" height="96"><polyline id="primary" points="11 10.5 9.09 13 8 11.75" style="fill: none; stroke: currentColor;color:currentColor; stroke-linecap: round; stroke-linejoin: round; stroke-width: 0.75;"></polyline><path id="primary-2" data-name="primary" d="M17,3H5A1,1,0,0,0,4,4V20a1,1,0,0,0,1,1H17a1,1,0,0,0,1-1V18" style="fill: none; stroke: currentColor;color:currentColor; stroke-linecap: round; stroke-linejoin: round; stroke-width: 0.75;"></path><path id="primary-3" data-name="primary" d="M14,17H8m7-7h2" style="fill: none; stroke: currentColor;color:currentColor; stroke-linecap: round; stroke-linejoin: round; stroke-width: 0.75;"></path><path id="primary-4" data-name="primary" d="M20,7.77A3,3,0,0,0,18,7h0a3,3,0,0,0-3,3h0a3,3,0,0,0,3,3h0a3,3,0,0,0,2-.77" style="fill: none; stroke: currentColor;color:currentColor; stroke-linecap: round; stroke-linejoin: round; stroke-width: 0.75;"></path></svg>