<svg t="1741066185507" class="icon" viewBox="0 0 1024 1024" version="1.1" xmlns="http://www.w3.org/2000/svg" p-id="2677" width="200" height="200"><path d="M514.944 964.672c-247.018667 0-448-200.981333-448-448s200.981333-448 448-448 448 200.981333 448 448S761.962667 964.672 514.944 964.672zM514.944 111.338667c-223.509333 0-405.333333 181.824-405.333333 405.333333s181.824 405.333333 405.333333 405.333333 405.333333-181.824 405.333333-405.333333S738.453333 111.338667 514.944 111.338667z" p-id="2678"></path><path d="M217.365333 400.981333c-27.882667 83.946667-22.378667 168.981333 14.122667 249.216 11.413333 25.002667 48.170667 3.306667 36.842667-21.546667-31.744-69.802667-33.92-143.786667-9.792-216.32C267.2 386.112 225.984 374.997333 217.365333 400.981333" p-id="2679"></path><path d="M634.581333 268.650667l-222.805333 60.458667c-25.301333 6.869333-40.298667 33.066667-33.429333 58.346667l47.957333 176.746667-47.402667 35.712c-0.085333 0.064-0.128 0.085333-0.213333 0.149333-17.706667 13.696-26.666667 36.501333-30.464 48.917333-6.250667 20.48-7.338667 41.28-3.050667 57.088l5.333333 19.669333c9.813333 36.138667 47.146667 57.578667 83.285333 47.765333l314.581333-85.376c25.322667-6.869333 40.32-33.045333 33.429333-58.325333L692.906667 302.08C686.058667 276.778667 659.904 261.781333 634.581333 268.650667L634.581333 268.650667zM436.373333 369.130667l196.416-53.290667c10.282667-2.773333 20.736 1.322667 22.826667 9.024 2.090667 7.68-4.842667 16.554667-15.125333 19.349333l-196.416 53.290667c-10.282667 2.794667-20.757333-1.322667-22.826667-9.045333C419.157333 380.778667 426.112 371.904 436.373333 369.130667L436.373333 369.130667zM737.749333 648.810667l-314.581333 85.354667c-14.464 3.925333-29.418667-4.650667-33.322667-19.114667l-5.354667-19.669333c-4.842667-17.898667 5.653333-52.565333 19.050667-63.04l58.304-43.904c6.634667-4.992 9.578667-13.589333 7.402667-21.632l-34.688-127.786667c6.613333 0.341333 13.44-0.384 20.202667-2.218667l196.394667-53.290667c7.104-1.898667 13.568-4.928 19.285333-8.768l72.106667 265.728C743.509333 644.074667 741.354667 647.808 737.749333 648.810667L737.749333 648.810667z" p-id="2680"></path></svg>