<svg id="Line" xmlns="http://www.w3.org/2000/svg" viewBox="0 0 24 24" width="96" height="96"><path id="primary" d="M18.86,12.56a4.2,4.2,0,0,0-2.07-1.18L7.53,9.14,7.24,7.45a1.12,1.12,0,0,0-.84-.93L4.25,6,4,11.74a1.18,1.18,0,0,0,.74,1.13l3.9,1.46L5.52,16.92l3.32.7a1,1,0,0,0,.62-.08l3.12-1.43a.9.9,0,0,1,.75,0l5,1.86a.91.91,0,0,0,1.19-.52l.24-.61A4.17,4.17,0,0,0,18.86,12.56Z" style="fill: none; stroke: currentColor;color:currentColor; stroke-linecap: round; stroke-linejoin: round; stroke-width: 0.75;"></path></svg>