<svg id="Line" xmlns="http://www.w3.org/2000/svg" viewBox="0 0 24 24" width="96" height="96"><path id="primary" d="M5.14,12.56a4.2,4.2,0,0,1,2.07-1.18l9.26-2.24.29-1.69a1.12,1.12,0,0,1,.84-.93L19.75,6,20,11.74a1.18,1.18,0,0,1-.74,1.13l-3.9,1.46,3.12,2.59-3.32.7a1,1,0,0,1-.62-.08l-3.12-1.43a.9.9,0,0,0-.75,0l-5,1.86a.91.91,0,0,1-1.19-.52l-.24-.61A4.17,4.17,0,0,1,5.14,12.56Z" style="fill: none; stroke: currentColor;color:currentColor; stroke-linecap: round; stroke-linejoin: round; stroke-width: 0.75;"></path></svg>