<svg id="Line" xmlns="http://www.w3.org/2000/svg" viewBox="0 0 24 24" width="96" height="96"><path id="primary" d="M9,21H5l.81-3.25a2,2,0,0,1,.83-1.18l1.52-1" style="fill: none; stroke: currentColor;color:currentColor; stroke-linecap: round; stroke-linejoin: round; stroke-width: 0.75;"></path><path id="primary-2" data-name="primary" d="M15.84,15.56l1.52,1a2,2,0,0,1,.83,1.18L19,21H15" style="fill: none; stroke: currentColor;color:currentColor; stroke-linecap: round; stroke-linejoin: round; stroke-width: 0.75;"></path><path id="primary-3" data-name="primary" d="M15,21H9L7.77,13a10,10,0,0,1,2.81-8.59l.71-.71a1,1,0,0,1,1.42,0l.71.71A10,10,0,0,1,16.23,13ZM12,10v3" style="fill: none; stroke: currentColor;color:currentColor; stroke-linecap: round; stroke-linejoin: round; stroke-width: 0.75;"></path></svg>