<svg id="Line" xmlns="http://www.w3.org/2000/svg" viewBox="0 0 24 24" width="96" height="96"><path id="primary" d="M6,11h5.38a1,1,0,0,1,.9.55L13,13h5a1,1,0,0,1,1,1v2" style="fill: none; stroke: currentColor;color:currentColor; stroke-linecap: round; stroke-linejoin: round; stroke-width: 0.75;"></path><path id="primary-2" data-name="primary" d="M3,4H4.13a1,1,0,0,1,1,.86L6.72,16" style="fill: none; stroke: currentColor;color:currentColor; stroke-linecap: round; stroke-linejoin: round; stroke-width: 0.75;"></path><path id="primary-3" data-name="primary" d="M17,18H9M7,16a2,2,0,1,0,2,2A2,2,0,0,0,7,16Zm12,0a2,2,0,1,0,2,2A2,2,0,0,0,19,16Z" style="fill: none; stroke: currentColor;color:currentColor; stroke-linecap: round; stroke-linejoin: round; stroke-width: 0.75;"></path></svg>