<svg id="Line" xmlns="http://www.w3.org/2000/svg" viewBox="0 0 24 24" width="96" height="96"><path id="primary" d="M5,17H4a1,1,0,0,1-1-1V13.62a1,1,0,0,1,.55-.9L5,12,6.75,7.63A1,1,0,0,1,7.68,7h8.64a1,1,0,0,1,.93.63L19,12l1.45.72a1,1,0,0,1,.55.9V16a1,1,0,0,1-1,1H19" style="fill: none; stroke: currentColor;color:currentColor; stroke-linecap: round; stroke-linejoin: round; stroke-width: 0.75;"></path><path id="primary-2" data-name="primary" d="M5,12H19M7,15a2,2,0,1,0,2,2A2,2,0,0,0,7,15Zm10,0a2,2,0,1,0,2,2A2,2,0,0,0,17,15Zm-2,2H9m3-5V7" style="fill: none; stroke: currentColor;color:currentColor; stroke-linecap: round; stroke-linejoin: round; stroke-width: 0.75;"></path></svg>