<svg id="Line" xmlns="http://www.w3.org/2000/svg" viewBox="0 0 24 24" width="96" height="96"><path id="primary" d="M18,21H6a1,1,0,0,1-1-1V10A1,1,0,0,1,6,9H18a1,1,0,0,1,1,1V20A1,1,0,0,1,18,21ZM16,9V7a4,4,0,0,0-4-4h0A4,4,0,0,0,8,7V9" style="fill: none; stroke: currentColor;color:currentColor; stroke-linecap: round; stroke-linejoin: round; stroke-width: 0.75;"></path><line id="primary-2" data-name="primary" x1="10" y1="17" x2="14" y2="13" style="fill: none; stroke: currentColor;color:currentColor; stroke-linecap: round; stroke-linejoin: round; stroke-width: 0.75;"></line><line id="primary-3" data-name="primary" x1="10" y1="13" x2="14" y2="17" style="fill: none; stroke: currentColor;color:currentColor; stroke-linecap: round; stroke-linejoin: round; stroke-width: 0.75;"></line></svg>