<svg id="Line" xmlns="http://www.w3.org/2000/svg" viewBox="0 0 24 24" width="96" height="96"><path id="primary" d="M15,21h5a1,1,0,0,0,1-1V5L19,3H8A1,1,0,0,0,7,4V7" style="fill: none; stroke: currentColor;color:currentColor; stroke-linecap: round; stroke-linejoin: round; stroke-width: 0.75;"></path><path id="primary-2" data-name="primary" d="M10,21H4a1,1,0,0,1-1-1V16a1,1,0,0,1,1-1h6a1,1,0,0,1,1,1v4A1,1,0,0,1,10,21ZM7,11H7a2,2,0,0,0-2,2v2H9V13A2,2,0,0,0,7,11ZM19,3V5h2Z" style="fill: none; stroke: currentColor;color:currentColor; stroke-linecap: round; stroke-linejoin: round; stroke-width: 0.75;"></path></svg>