<svg id="Line" xmlns="http://www.w3.org/2000/svg" viewBox="0 0 24 24" width="96" height="96"><path id="primary" d="M17,10H7V8a5,5,0,0,1,5-5h0a5,5,0,0,1,5,5Zm1,0H6a1,1,0,0,0-1,1v3a7,7,0,0,0,7.21,7A7.19,7.19,0,0,0,19,13.71V11A1,1,0,0,0,18,10Zm-6,7V16" style="fill: none; stroke: currentColor;color:currentColor; stroke-linecap: round; stroke-linejoin: round; stroke-width: 0.75;"></path><line id="primary-upstroke" x1="12" y1="15" x2="12" y2="15" style="fill: none; stroke: currentColor;color:currentColor; stroke-linecap: round; stroke-linejoin: round; stroke-width: 1.125;"></line><line id="primary-upstroke-2" data-name="primary-upstroke" x1="11.95" y1="15" x2="12.05" y2="15" style="fill: none; stroke: currentColor;color:currentColor; stroke-linecap: round; stroke-linejoin: round; stroke-width: 1.125;"></line></svg>