<svg id="line" xmlns="http://www.w3.org/2000/svg" viewBox="0 0 24 24" width="96" height="96"><path id="primary" d="M14,10a2.86,2.86,0,0,0-1-4,23.19,23.19,0,0,1-3-3V18" style="fill: none; stroke: currentColor;color:currentColor; stroke-linecap: round; stroke-linejoin: round; stroke-width: 0.75;"></path><path id="primary-2" data-name="primary" d="M20.26,4.58a.82.82,0,0,1,0,1.16l-.33.33L19,7l-.94-.94-.33-.34a.82.82,0,0,1,0-1.16h0a.81.81,0,0,1,1.15,0l.12.12.11-.12A.82.82,0,0,1,20.26,4.58ZM14,15h7m-7,4h7M6.5,14A3.5,3.5,0,1,0,10,17.5,3.5,3.5,0,0,0,6.5,14Z" style="fill: none; stroke: currentColor;color:currentColor; stroke-linecap: round; stroke-linejoin: round; stroke-width: 0.75;"></path></svg>