<svg id="Line" xmlns="http://www.w3.org/2000/svg" viewBox="0 0 24 24" width="96" height="96"><path id="primary" d="M12,3V5.79a7.22,7.22,0,0,0,3.24,6" style="fill: none; stroke: currentColor;color:currentColor; stroke-linecap: round; stroke-linejoin: round; stroke-width: 0.75;"></path><path id="primary-2" data-name="primary" d="M12,3V5.79a7.22,7.22,0,0,1-3.24,6" style="fill: none; stroke: currentColor;color:currentColor; stroke-linecap: round; stroke-linejoin: round; stroke-width: 0.75;"></path><path id="primary-3" data-name="primary" d="M19.06,21h0A6.24,6.24,0,0,1,14.88,14l.82-4.92a2.17,2.17,0,0,1,2.15-1.82h0A2.16,2.16,0,0,1,19.77,8.4,12.62,12.62,0,0,1,21,14.26a22.87,22.87,0,0,1-.66,6A1,1,0,0,1,19.06,21Zm-15.4-.68a22.87,22.87,0,0,1-.66-6A12.62,12.62,0,0,1,4.23,8.4,2.16,2.16,0,0,1,6.15,7.26h0A2.17,2.17,0,0,1,8.3,9.08L9.12,14a6.24,6.24,0,0,1-4.18,7h0A1,1,0,0,1,3.66,20.27Z" style="fill: none; stroke: currentColor;color:currentColor; stroke-linecap: round; stroke-linejoin: round; stroke-width: 0.75;"></path></svg>