<svg id="Line" xmlns="http://www.w3.org/2000/svg" viewBox="0 0 24 24" width="96" height="96"><path id="primary" d="M14,21H6a1,1,0,0,1-1-1V4A1,1,0,0,1,6,3H16a1,1,0,0,1,1,1V6" style="fill: none; stroke: currentColor;color:currentColor; stroke-linecap: round; stroke-linejoin: round; stroke-width: 0.75;"></path><path id="primary-2" data-name="primary" d="M19,11H16.5A1.5,1.5,0,0,0,15,12.5h0A1.5,1.5,0,0,0,16.5,14h1A1.5,1.5,0,0,1,19,15.5h0A1.5,1.5,0,0,1,17.5,17H15" style="fill: none; stroke: currentColor;color:currentColor; stroke-linecap: round; stroke-linejoin: round; stroke-width: 0.75;"></path><path id="primary-3" data-name="primary" d="M13,3H9l.5,2h3Zm4,8V10m0,8V17" style="fill: none; stroke: currentColor;color:currentColor; stroke-linecap: round; stroke-linejoin: round; stroke-width: 0.75;"></path></svg>