<svg id="Line" xmlns="http://www.w3.org/2000/svg" viewBox="0 0 24 24" width="96" height="96"><path id="primary" d="M16,21H6a1,1,0,0,1-1-1V4A1,1,0,0,1,6,3H16a1,1,0,0,1,1,1V7" style="fill: none; stroke: currentColor;color:currentColor; stroke-linecap: round; stroke-linejoin: round; stroke-width: 0.75;"></path><path id="primary-2" data-name="primary" d="M13,3H9l.5,2h3Zm0,11h3" style="fill: none; stroke: currentColor;color:currentColor; stroke-linecap: round; stroke-linejoin: round; stroke-width: 0.75;"></path><path id="primary-3" data-name="primary" d="M19,11.77A3,3,0,0,0,17,11h0a3,3,0,0,0-3,3h0a3,3,0,0,0,3,3h0a3,3,0,0,0,2-.77" style="fill: none; stroke: currentColor;color:currentColor; stroke-linecap: round; stroke-linejoin: round; stroke-width: 0.75;"></path></svg>