<svg id="Line" xmlns="http://www.w3.org/2000/svg" viewBox="0 0 24 24" width="96" height="96"><path id="primary" d="M19,16h1a1,1,0,0,0,1-1V10a1,1,0,0,0-1-1H15.41a1,1,0,0,0-.7.29l-1.42,1.42a1,1,0,0,1-.7.29H11a1,1,0,0,1-1-1V9H4a1,1,0,0,0-1,1v5a1,1,0,0,0,1,1H5" style="fill: none; stroke: currentColor;color:currentColor; stroke-linecap: round; stroke-linejoin: round; stroke-width: 0.75;"></path><path id="primary-2" data-name="primary" d="M9,6,7,9m8,7a2,2,0,1,0,2-2A2,2,0,0,0,15,16ZM5,16a2,2,0,1,0,2-2A2,2,0,0,0,5,16Zm4,0h6" style="fill: none; stroke: currentColor;color:currentColor; stroke-linecap: round; stroke-linejoin: round; stroke-width: 0.75;"></path></svg>