<svg id="Line" xmlns="http://www.w3.org/2000/svg" viewBox="0 0 24 24" width="96" height="96"><path id="primary" d="M5,17H4a1,1,0,0,1-1-1V10.19a1,1,0,0,1,.07-.37L4.75,5.63A1,1,0,0,1,5.68,5h8.75a1,1,0,0,1,.86.49L18,10l2.32.77a1,1,0,0,1,.68,1V16a1,1,0,0,1-1,1H19" style="fill: none; stroke: currentColor;color:currentColor; stroke-linecap: round; stroke-linejoin: round; stroke-width: 0.75;"></path><path id="primary-2" data-name="primary" d="M7,15a2,2,0,1,0,2,2A2,2,0,0,0,7,15Zm10,0a2,2,0,1,0,2,2A2,2,0,0,0,17,15Zm-2,2H9" style="fill: none; stroke: currentColor;color:currentColor; stroke-linecap: round; stroke-linejoin: round; stroke-width: 0.75;"></path><path id="primary-3" data-name="primary" d="M10,5.18V9a1,1,0,0,0,1,1h6.78" style="fill: none; stroke: currentColor;color:currentColor; stroke-linecap: round; stroke-linejoin: round; stroke-width: 0.75;"></path></svg>