<svg id="Line" xmlns="http://www.w3.org/2000/svg" viewBox="0 0 24 24" width="96" height="96"><path id="primary" d="M19,16h1a1,1,0,0,0,1-1V10a1,1,0,0,0-1-1H14v1a1,1,0,0,1-1,1H11.41a1,1,0,0,1-.7-.29L9.29,9.29A1,1,0,0,0,8.59,9H4a1,1,0,0,0-1,1v5a1,1,0,0,0,1,1H5" style="fill: none; stroke: currentColor;color:currentColor; stroke-linecap: round; stroke-linejoin: round; stroke-width: 0.75;"></path><path id="primary-2" data-name="primary" d="M17,9,15,6M7,14a2,2,0,1,0,2,2A2,2,0,0,0,7,14Zm10,0a2,2,0,1,0,2,2A2,2,0,0,0,17,14ZM9,16h6" style="fill: none; stroke: currentColor;color:currentColor; stroke-linecap: round; stroke-linejoin: round; stroke-width: 0.75;"></path></svg>