<svg id="Line" xmlns="http://www.w3.org/2000/svg" viewBox="0 0 24 24" width="96" height="96"><path id="primary" d="M21,12a9,9,0,1,1-9-9A9,9,0,0,1,21,12ZM14.67,9.92a2.26,2.26,0,0,1-.89-.66,2.08,2.08,0,0,0-1.69-.76,2.35,2.35,0,0,0-1.8.93,3.75,3.75,0,0,1-.92.9A3,3,0,0,0,8,13a2.73,2.73,0,0,0,2.58,2.47c1.41.13,3.28-1.17,4.11-1.64A2.38,2.38,0,0,0,16,11.91,2,2,0,0,0,14.67,9.92Z" style="fill: none; stroke: currentColor;color:currentColor; stroke-linecap: round; stroke-linejoin: round; stroke-width: 0.75;"></path></svg>