<svg id="Line" xmlns="http://www.w3.org/2000/svg" viewBox="0 0 24 24" width="96" height="96"><path id="primary" d="M6,5H4A1,1,0,0,0,3,6V9.1a1,1,0,0,0,.9,1l8.2.82a1,1,0,0,1,.9,1V14" style="fill: none; stroke: currentColor;color:currentColor; stroke-linecap: round; stroke-linejoin: round; stroke-width: 0.75;"></path><path id="primary-2" data-name="primary" d="M6,6V4A1,1,0,0,1,7,3H19a1,1,0,0,1,1,1V6a1,1,0,0,1-1,1H7A1,1,0,0,1,6,6Zm7,15h0a2,2,0,0,0,2-2V15a1,1,0,0,0-1-1H12a1,1,0,0,0-1,1v4A2,2,0,0,0,13,21Z" style="fill: none; stroke: currentColor;color:currentColor; stroke-linecap: round; stroke-linejoin: round; stroke-width: 0.75;"></path></svg>