<svg id="Line" xmlns="http://www.w3.org/2000/svg" viewBox="0 0 24 24" width="96" height="96"><path id="primary" d="M3,18V4A1,1,0,0,1,4,3H8A1,1,0,0,1,9,4v6.76" style="fill: none; stroke: currentColor;color:currentColor; stroke-linecap: round; stroke-linejoin: round; stroke-width: 0.75;"></path><path id="primary-2" data-name="primary" d="M4.76,15l9-9a1,1,0,0,1,1.41,0L18,8.81a1,1,0,0,1,0,1.41L13.24,15" style="fill: none; stroke: currentColor;color:currentColor; stroke-linecap: round; stroke-linejoin: round; stroke-width: 0.75;"></path><path id="primary-3" data-name="primary" d="M3,18H3a3,3,0,0,1,3-3H20a1,1,0,0,1,1,1v4a1,1,0,0,1-1,1H6A3,3,0,0,1,3,18Z" style="fill: none; stroke: currentColor;color:currentColor; stroke-linecap: round; stroke-linejoin: round; stroke-width: 0.75;"></path></svg>