<svg id="Line" xmlns="http://www.w3.org/2000/svg" viewBox="0 0 24 24" width="96" height="96"><path id="primary" d="M18.74,10.79A4,4,0,0,0,18.9,5.1a4,4,0,0,0-5.69.16,17.14,17.14,0,0,0-2.29,3,8.23,8.23,0,0,1-2.69,2.69,17.14,17.14,0,0,0-3,2.29A4,4,0,0,0,5.1,18.9a4,4,0,0,0,5.69-.16,17.14,17.14,0,0,0,2.29-3,8.23,8.23,0,0,1,2.69-2.69A17.14,17.14,0,0,0,18.74,10.79Z" style="fill: none; stroke: currentColor;color:currentColor; stroke-linecap: round; stroke-linejoin: round; stroke-width: 0.75;"></path></svg>