<svg id="Line" xmlns="http://www.w3.org/2000/svg" viewBox="0 0 24 24" width="96" height="96"><path id="primary" d="M16,7.33A4.18,4.18,0,0,0,12,3,4.18,4.18,0,0,0,8,7.33a11.42,11.42,0,0,0,.35,2.81,7.56,7.56,0,0,1,0,3.72A11.42,11.42,0,0,0,8,16.67,4.18,4.18,0,0,0,12,21a4.18,4.18,0,0,0,4-4.33,11.42,11.42,0,0,0-.35-2.81,7.56,7.56,0,0,1,0-3.72A11.42,11.42,0,0,0,16,7.33Z" style="fill: none; stroke: currentColor;color:currentColor; stroke-linecap: round; stroke-linejoin: round; stroke-width: 0.75;"></path></svg>