<svg id="Line" xmlns="http://www.w3.org/2000/svg" viewBox="0 0 24 24" width="96" height="96"><path id="primary" d="M10.79,5.26A4,4,0,0,0,5.1,5.1a4,4,0,0,0,.16,5.69,17.14,17.14,0,0,0,3,2.29,8.23,8.23,0,0,1,2.69,2.69,17.14,17.14,0,0,0,2.29,3,4,4,0,0,0,5.69.16,4,4,0,0,0-.16-5.69,17.14,17.14,0,0,0-3-2.29,8.23,8.23,0,0,1-2.69-2.69A17.14,17.14,0,0,0,10.79,5.26Z" style="fill: none; stroke: currentColor;color:currentColor; stroke-linecap: round; stroke-linejoin: round; stroke-width: 0.75;"></path></svg>