<svg id="Line" xmlns="http://www.w3.org/2000/svg" viewBox="0 0 24 24" width="96" height="96"><path id="primary" d="M19,21H5a2,2,0,0,1-2-2V5A2,2,0,0,1,5,3H19a2,2,0,0,1,2,2V19A2,2,0,0,1,19,21Zm-2.66-4.47.43-.66a1.39,1.39,0,0,0-.51-2c-.25-.13-.49-.27-.72-.41a1.4,1.4,0,0,0-1.88.36l-1.28,1.82a9.42,9.42,0,0,0,3,1.34A.82.82,0,0,0,16.34,16.53ZM7,8.57a9.42,9.42,0,0,0,1.34,3l1.82-1.28a1.4,1.4,0,0,0,.36-1.88c-.14-.23-.28-.47-.41-.72a1.39,1.39,0,0,0-2-.51l-.66.43A.82.82,0,0,0,7,8.57Z" style="fill: none; stroke: currentColor;color:currentColor; stroke-linecap: round; stroke-linejoin: round; stroke-width: 0.75;"></path><path id="primary-2" data-name="primary" d="M12.38,15.64a13.45,13.45,0,0,1-2.22-1.8,13.45,13.45,0,0,1-1.8-2.22" style="fill: none; stroke: currentColor;color:currentColor; stroke-linecap: round; stroke-linejoin: round; stroke-width: 0.75;"></path></svg>