<svg id="Line" xmlns="http://www.w3.org/2000/svg" viewBox="0 0 24 24" width="96" height="96"><polyline id="primary" points="12 9 14 3 18 4" style="fill: none; stroke: currentColor;color:currentColor; stroke-linecap: round; stroke-linejoin: round; stroke-width: 0.75;"></polyline><path id="primary-2" data-name="primary" d="M21,11a3,3,0,0,0-5.56-1.54,13.09,13.09,0,0,0-6.88,0A3,3,0,0,0,3,11a2.92,2.92,0,0,0,.63,1.81A4.31,4.31,0,0,0,3,15c0,3.31,4,6,9,6s9-2.69,9-6a4.31,4.31,0,0,0-.63-2.19A2.92,2.92,0,0,0,21,11Z" style="fill: none; stroke: currentColor;color:currentColor; stroke-linecap: round; stroke-linejoin: round; stroke-width: 0.75;"></path><line id="primary-upstroke" x1="17.95" y1="4" x2="18.05" y2="4" style="fill: none; stroke: currentColor;color:currentColor; stroke-linecap: round; stroke-linejoin: round; stroke-width: 1.125;"></line><line id="primary-upstroke-2" data-name="primary-upstroke" x1="15.45" y1="14" x2="15.55" y2="14" style="fill: none; stroke: currentColor;color:currentColor; stroke-linecap: round; stroke-linejoin: round; stroke-width: 1.125;"></line><line id="primary-upstroke-3" data-name="primary-upstroke" x1="8.45" y1="14" x2="8.55" y2="14" style="fill: none; stroke: currentColor;color:currentColor; stroke-linecap: round; stroke-linejoin: round; stroke-width: 1.125;"></line></svg>