<svg id="Line" xmlns="http://www.w3.org/2000/svg" viewBox="0 0 24 24" width="96" height="96"><path id="primary" d="M8,17v3a1,1,0,0,0,1,1H20a1,1,0,0,0,1-1V4a1,1,0,0,0-1-1H9A1,1,0,0,0,8,4V7" style="fill: none; stroke: currentColor;color:currentColor; stroke-linecap: round; stroke-linejoin: round; stroke-width: 0.75;"></path><path id="primary-2" data-name="primary" d="M8,7a5,5,0,1,1-5,5A5,5,0,0,1,8,7ZM8,7v5l3.54,3.54A5,5,0,0,0,8,7Z" style="fill: none; stroke: currentColor;color:currentColor; stroke-linecap: round; stroke-linejoin: round; stroke-width: 0.75;"></path></svg>