<svg id="Line" xmlns="http://www.w3.org/2000/svg" viewBox="0 0 24 24" width="96" height="96"><path id="primary" d="M19.28,10c0,.76-.67,1.4-.89,2.08s-.07,1.61-.5,2.2S16.54,15,16,15.44s-1,1.26-1.7,1.49-1.49-.21-2.25-.21-1.57.43-2.25.21-1.11-1.07-1.7-1.49-1.51-.57-1.94-1.16-.27-1.5-.5-2.2S4.72,10.76,4.72,10s.67-1.4.89-2.08.07-1.61.5-2.2S7.46,5,8.05,4.56,9,3.3,9.75,3.07s1.49.21,2.25.21,1.57-.43,2.25-.21S15.36,4.14,16,4.56s1.51.57,1.94,1.16.27,1.5.5,2.2S19.28,9.24,19.28,10ZM12,7a3,3,0,1,0,3,3A3,3,0,0,0,12,7Z" style="fill: none; stroke: currentColor;color:currentColor; stroke-linecap: round; stroke-linejoin: round; stroke-width: 0.75;"></path><polyline id="primary-2" data-name="primary" points="14.05 17.1 16 21 17.98 18.97 21 19 18.19 13.42 18.19 13.41" style="fill: none; stroke: currentColor;color:currentColor; stroke-linecap: round; stroke-linejoin: round; stroke-width: 0.75;"></polyline><polyline id="primary-3" data-name="primary" points="9.95 17.1 8 21 6.02 18.97 3 19 5.81 13.42 5.81 13.41" style="fill: none; stroke: currentColor;color:currentColor; stroke-linecap: round; stroke-linejoin: round; stroke-width: 0.75;"></polyline></svg>