<svg id="Line" xmlns="http://www.w3.org/2000/svg" viewBox="0 0 24 24" width="96" height="96"><rect id="primary" x="8" y="11" width="8" height="6" rx="1" style="fill: none; stroke: currentColor;color:currentColor; stroke-linecap: round; stroke-linejoin: round; stroke-width: 0.75;"></rect><path id="primary-2" data-name="primary" d="M3,7V4A1,1,0,0,1,4,3H7" style="fill: none; stroke: currentColor;color:currentColor; stroke-linecap: round; stroke-linejoin: round; stroke-width: 0.75;"></path><path id="primary-3" data-name="primary" d="M21,7V4a1,1,0,0,0-1-1H17" style="fill: none; stroke: currentColor;color:currentColor; stroke-linecap: round; stroke-linejoin: round; stroke-width: 0.75;"></path><path id="primary-4" data-name="primary" d="M3,17v3a1,1,0,0,0,1,1H7" style="fill: none; stroke: currentColor;color:currentColor; stroke-linecap: round; stroke-linejoin: round; stroke-width: 0.75;"></path><path id="primary-5" data-name="primary" d="M21,17v3a1,1,0,0,1-1,1H17" style="fill: none; stroke: currentColor;color:currentColor; stroke-linecap: round; stroke-linejoin: round; stroke-width: 0.75;"></path><path id="primary-6" data-name="primary" d="M12,7h0a3,3,0,0,1,3,3v1a0,0,0,0,1,0,0H9a0,0,0,0,1,0,0V10A3,3,0,0,1,12,7Z" style="fill: none; stroke: currentColor;color:currentColor; stroke-linecap: round; stroke-linejoin: round; stroke-width: 0.75;"></path></svg>