<svg id="Line" xmlns="http://www.w3.org/2000/svg" viewBox="0 0 24 24" width="96" height="96"><line id="primary-upstroke" x1="15.45" y1="15" x2="15.55" y2="15" style="fill: none; stroke: currentColor;color:currentColor; stroke-linecap: round; stroke-linejoin: round; stroke-width: 1.125;"></line><line id="primary-upstroke-2" data-name="primary-upstroke" x1="8.55" y1="15" x2="8.45" y2="15" style="fill: none; stroke: currentColor;color:currentColor; stroke-linecap: round; stroke-linejoin: round; stroke-width: 1.125;"></line><path id="primary" d="M17,21H16a1,1,0,0,1-1-1V19h3v1A1,1,0,0,1,17,21ZM7,21H8a1,1,0,0,0,1-1V19H6v1A1,1,0,0,0,7,21Zm13-3V4a1,1,0,0,0-1-1H5A1,1,0,0,0,4,4V18a1,1,0,0,0,1,1H19A1,1,0,0,0,20,18ZM20,4a1,1,0,0,0-1-1H5A1,1,0,0,0,4,4v7H20ZM12,3v8" style="fill: none; stroke: currentColor;color:currentColor; stroke-linecap: round; stroke-linejoin: round; stroke-width: 0.75;"></path></svg>