<svg id="Line" xmlns="http://www.w3.org/2000/svg" viewBox="0 0 24 24" width="96" height="96"><path id="primary" d="M7,18h5.08a1,1,0,0,0,1-.85,6,6,0,0,1,5-5.07" style="fill: none; stroke: currentColor;color:currentColor; stroke-linecap: round; stroke-linejoin: round; stroke-width: 0.75;"></path><path id="primary-2" data-name="primary" d="M19,16a2,2,0,1,1-2,2A2,2,0,0,1,19,16ZM3,18a2,2,0,1,0,2-2A2,2,0,0,0,3,18ZM20,4H18a1,1,0,0,0-1,1.15L18.69,16" style="fill: none; stroke: currentColor;color:currentColor; stroke-linecap: round; stroke-linejoin: round; stroke-width: 0.75;"></path></svg>