<svg id="Line" xmlns="http://www.w3.org/2000/svg" viewBox="0 0 24 24" width="96" height="96"><path id="primary" d="M5.91,12.08a6,6,0,0,1,5,5.07,1,1,0,0,0,1,.85H17" style="fill: none; stroke: currentColor;color:currentColor; stroke-linecap: round; stroke-linejoin: round; stroke-width: 0.75;"></path><path id="primary-2" data-name="primary" d="M7,18a2,2,0,1,1-2-2A2,2,0,0,1,7,18Zm12-2a2,2,0,1,0,2,2A2,2,0,0,0,19,16ZM5.31,16,7,5.15A1,1,0,0,0,6,4H4" style="fill: none; stroke: currentColor;color:currentColor; stroke-linecap: round; stroke-linejoin: round; stroke-width: 0.75;"></path></svg>