<svg id="Line" xmlns="http://www.w3.org/2000/svg" viewBox="0 0 24 24" width="96" height="96"><path id="primary" d="M8,7V4A1,1,0,0,1,9,3H19a1,1,0,0,1,1,1V20a1,1,0,0,1-1,1H16" style="fill: none; stroke: currentColor;color:currentColor; stroke-linecap: round; stroke-linejoin: round; stroke-width: 0.75;"></path><path id="primary-2" data-name="primary" d="M16,3H12l.5,2h3ZM12,20V16a1,1,0,0,0-1-1H5a1,1,0,0,0-1,1v4a1,1,0,0,0,1,1h6A1,1,0,0,0,12,20ZM8,11H8a2,2,0,0,0-2,2v2h4V13A2,2,0,0,0,8,11Z" style="fill: none; stroke: currentColor;color:currentColor; stroke-linecap: round; stroke-linejoin: round; stroke-width: 0.75;"></path></svg>