<svg id="Line" xmlns="http://www.w3.org/2000/svg" viewBox="0 0 24 24" width="96" height="96"><path id="primary" d="M3,17.5c1.5,0,1.5.5,3,.5s1.5-.5,3-.5,1.5.5,3,.5,1.5-.5,3-.5,1.5.5,3,.5,1.5-.5,3-.5" style="fill: none; stroke: currentColor;color:currentColor; stroke-linecap: round; stroke-linejoin: round; stroke-width: 0.75;"></path><path id="primary-2" data-name="primary" d="M3,14c1.82-.51,2-2,2.26-3.82.37-2.65,3.92-6.26,8.68-2.68C10.62,8.3,10,11.86,12,12.61s3.79-1.81,6.59.18A4.93,4.93,0,0,0,21,14" style="fill: none; stroke: currentColor;color:currentColor; stroke-linecap: round; stroke-linejoin: round; stroke-width: 0.75;"></path></svg>