<svg id="Line" xmlns="http://www.w3.org/2000/svg" viewBox="0 0 24 24" width="96" height="96"><path id="primary" d="M19.29,9.39l1.9,1.9a1,1,0,0,1,0,1.42l-1.9,1.9a1,1,0,0,0-.29.7V18a1,1,0,0,1-1,1H15.31a1,1,0,0,0-.7.29l-1.9,1.9a1,1,0,0,1-1.42,0l-1.9-1.9a1,1,0,0,0-.7-.29H6a1,1,0,0,1-1-1V15.31a1,1,0,0,0-.29-.7l-1.9-1.9a1,1,0,0,1,0-1.42l1.9-1.9A1,1,0,0,0,5,8.69V6A1,1,0,0,1,6,5H8.69a1,1,0,0,0,.7-.29l1.9-1.9a1,1,0,0,1,1.42,0l1.9,1.9a1,1,0,0,0,.7.29H18a1,1,0,0,1,1,1V8.69A1,1,0,0,0,19.29,9.39ZM12,9a3,3,0,1,0,3,3A3,3,0,0,0,12,9Z" style="fill: none; stroke: currentColor;color:currentColor; stroke-linecap: round; stroke-linejoin: round; stroke-width: 0.75;"></path></svg>