<svg id="Line" xmlns="http://www.w3.org/2000/svg" viewBox="0 0 24 24" width="96" height="96"><path id="primary" d="M16,15V6a1,1,0,0,0-1-1H4A1,1,0,0,0,3,6V16a1,1,0,0,0,1,1H6" style="fill: none; stroke: currentColor;color:currentColor; stroke-linecap: round; stroke-linejoin: round; stroke-width: 0.75;"></path><line id="primary-2" data-name="primary" x1="14" y1="17" x2="10" y2="17" style="fill: none; stroke: currentColor;color:currentColor; stroke-linecap: round; stroke-linejoin: round; stroke-width: 0.75;"></line><path id="primary-3" data-name="primary" d="M10,17a2,2,0,1,1-2-2A2,2,0,0,1,10,17Zm6-2a2,2,0,1,0,2,2A2,2,0,0,0,16,15Z" style="fill: none; stroke: currentColor;color:currentColor; stroke-linecap: round; stroke-linejoin: round; stroke-width: 0.75;"></path><path id="primary-4" data-name="primary" d="M18,17h2a1,1,0,0,0,1-1V12L19.28,8.55a1,1,0,0,0-.9-.55H16" style="fill: none; stroke: currentColor;color:currentColor; stroke-linecap: round; stroke-linejoin: round; stroke-width: 0.75;"></path></svg>