<svg id="Line" xmlns="http://www.w3.org/2000/svg" viewBox="0 0 24 24" width="96" height="96"><path id="primary" d="M15,4V7H9V4a1,1,0,0,1,1-1h4A1,1,0,0,1,15,4Zm-3,7L5.63,13.64a1,1,0,0,0-.58,1.23l1.89,5.46a1,1,0,0,0,.94.67h8.24a1,1,0,0,0,.94-.67L19,14.87a1,1,0,0,0-.58-1.23Z" style="fill: none; stroke: currentColor;color:currentColor; stroke-linecap: round; stroke-linejoin: round; stroke-width: 0.75;"></path><path id="primary-2" data-name="primary" d="M17,12.91V8a1,1,0,0,0-1-1H8A1,1,0,0,0,7,8v4.91" style="fill: none; stroke: currentColor;color:currentColor; stroke-linecap: round; stroke-linejoin: round; stroke-width: 0.75;"></path></svg>