<svg id="Line" xmlns="http://www.w3.org/2000/svg" viewBox="0 0 24 24" width="96" height="96"><line id="primary-upstroke" x1="16.45" y1="15" x2="16.55" y2="15" style="fill: none; stroke: currentColor;color:currentColor; stroke-linecap: round; stroke-linejoin: round; stroke-width: 1.125;"></line><path id="primary" d="M11.94,11H17a4,4,0,0,1,4,4h0a4,4,0,0,1-4,4H11.94a3.92,3.92,0,0,1-1.78-.42l-2.61-1.3a1,1,0,0,1-.55-.9V13.62a1,1,0,0,1,.55-.9l2.61-1.3A3.92,3.92,0,0,1,11.94,11ZM6.87,15H3m0,2V13M17,5H16a1,1,0,0,0-1,1v5" style="fill: none; stroke: currentColor;color:currentColor; stroke-linecap: round; stroke-linejoin: round; stroke-width: 0.75;"></path></svg>