<svg id="Line" xmlns="http://www.w3.org/2000/svg" viewBox="0 0 24 24" width="96" height="96"><line id="primary-upstroke" x1="7.55" y1="15" x2="7.45" y2="15" style="fill: none; stroke: currentColor;color:currentColor; stroke-linecap: round; stroke-linejoin: round; stroke-width: 1.125;"></line><path id="primary" d="M13.84,11.42l2.61,1.3a1,1,0,0,1,.55.9v2.76a1,1,0,0,1-.55.9l-2.61,1.3a3.92,3.92,0,0,1-1.78.42H7a4,4,0,0,1-4-4H3a4,4,0,0,1,4-4h5.06A3.92,3.92,0,0,1,13.84,11.42ZM21,15H17.13M21,13v4M9,11V6A1,1,0,0,0,8,5H7" style="fill: none; stroke: currentColor;color:currentColor; stroke-linecap: round; stroke-linejoin: round; stroke-width: 0.75;"></path></svg>