<svg id="Line" xmlns="http://www.w3.org/2000/svg" viewBox="0 0 24 24" width="96" height="96"><path id="primary" d="M16,4a1,1,0,0,0-1-1H9A1,1,0,0,0,8,4V7h8Zm4,3H4A1,1,0,0,0,3,8v.88A5.12,5.12,0,0,0,4.5,12.5h0A5.12,5.12,0,0,0,8.12,14h7.76a5.12,5.12,0,0,0,3.62-1.5h0A5.12,5.12,0,0,0,21,8.88V8A1,1,0,0,0,20,7Z" style="fill: none; stroke: currentColor;color:currentColor; stroke-linecap: round; stroke-linejoin: round; stroke-width: 0.75;"></path><path id="primary-2" data-name="primary" d="M20,12v8a1,1,0,0,1-1,1H5a1,1,0,0,1-1-1V12" style="fill: none; stroke: currentColor;color:currentColor; stroke-linecap: round; stroke-linejoin: round; stroke-width: 0.75;"></path></svg>