<svg id="Line" xmlns="http://www.w3.org/2000/svg" viewBox="0 0 24 24" width="96" height="96"><path id="primary" d="M19.83,14.39l-.72,5.73a1,1,0,0,1-1,.88H5.88a1,1,0,0,1-1-.88l-.72-5.73" style="fill: none; stroke: currentColor;color:currentColor; stroke-linecap: round; stroke-linejoin: round; stroke-width: 0.75;"></path><path id="primary-2" data-name="primary" d="M20.32,14.23l-4.53,1.51a12,12,0,0,1-7.58,0L3.68,14.23a1,1,0,0,1-.68-1V7H21v6.28A1,1,0,0,1,20.32,14.23ZM11,12h2m4-6a3,3,0,0,0-3-3H10A3,3,0,0,0,7,6V7H17Z" style="fill: none; stroke: currentColor;color:currentColor; stroke-linecap: round; stroke-linejoin: round; stroke-width: 0.75;"></path></svg>