<svg id="Line" xmlns="http://www.w3.org/2000/svg" viewBox="0 0 24 24" width="96" height="96"><path id="primary" d="M20.45,6.88,15.82,9.09a1,1,0,0,0-.51.54l-1.2,3.08a1,1,0,0,1-.37.47L11,15l.45-3.83L7.82,12.9a1.1,1.1,0,0,1-1.25-.23L3,8.74,4.81,7.61A1.07,1.07,0,0,1,6,7.64l1.3.9,7.82-4.89A4,4,0,0,1,17.31,3,3.68,3.68,0,0,1,20.7,5.16l.23.56A.9.9,0,0,1,20.45,6.88ZM3,21H21" style="fill: none; stroke: currentColor;color:currentColor; stroke-linecap: round; stroke-linejoin: round; stroke-width: 0.75;"></path></svg>