<svg id="Line" xmlns="http://www.w3.org/2000/svg" viewBox="0 0 24 24" width="96" height="96"><path id="primary" d="M5,17H4a1,1,0,0,1-1-1V12.78a1,1,0,0,1,.76-1L7,11,9.7,7.4a1,1,0,0,1,.8-.4h5.88a1,1,0,0,1,.9.55L19,11l1.44.71a1,1,0,0,1,.56.9V16a1,1,0,0,1-1,1H19" style="fill: none; stroke: currentColor;color:currentColor; stroke-linecap: round; stroke-linejoin: round; stroke-width: 0.75;"></path><path id="primary-2" data-name="primary" d="M15,17H9M13,7v4M7,11H19m-2,4a2,2,0,1,1-2,2A2,2,0,0,1,17,15ZM7,15a2,2,0,1,1-2,2A2,2,0,0,1,7,15Zm5-8h2V5H12Z" style="fill: none; stroke: currentColor;color:currentColor; stroke-linecap: round; stroke-linejoin: round; stroke-width: 0.75;"></path></svg>