<svg id="Line" xmlns="http://www.w3.org/2000/svg" viewBox="0 0 24 24" width="96" height="96"><path id="primary" d="M19,17h1a1,1,0,0,0,1-1V12.78a1,1,0,0,0-.76-1L17,11,14.3,7.4a1,1,0,0,0-.8-.4H7.62a1,1,0,0,0-.9.55L5,11l-1.44.71a1,1,0,0,0-.55.9V16a1,1,0,0,0,1,1H5" style="fill: none; stroke: currentColor;color:currentColor; stroke-linecap: round; stroke-linejoin: round; stroke-width: 0.75;"></path><path id="primary-2" data-name="primary" d="M15,17H9m2-6V7M5,11H17M9,17a2,2,0,1,1-2-2A2,2,0,0,1,9,17Zm10,0a2,2,0,1,1-2-2A2,2,0,0,1,19,17ZM12,5H10V7h2Z" style="fill: none; stroke: currentColor;color:currentColor; stroke-linecap: round; stroke-linejoin: round; stroke-width: 0.75;"></path></svg>