<svg id="Line" xmlns="http://www.w3.org/2000/svg" viewBox="0 0 24 24" width="96" height="96"><path id="primary" d="M11.62,8h4.76a1,1,0,0,1,.9.55L19,12v8a1,1,0,0,1-1,1H10a1,1,0,0,1-1-1V12l1.72-3.45A1,1,0,0,1,11.62,8ZM14,12V7.5A4.49,4.49,0,0,0,9.5,3h0A4.49,4.49,0,0,0,5,7.5V15" style="fill: none; stroke: currentColor;color:currentColor; stroke-linecap: round; stroke-linejoin: round; stroke-width: 0.75;"></path><line id="primary-upstroke" x1="14.05" y1="12.5" x2="13.95" y2="12.5" style="fill: none; stroke: currentColor;color:currentColor; stroke-linecap: round; stroke-linejoin: round; stroke-width: 1.125;"></line></svg>