<svg id="Line" xmlns="http://www.w3.org/2000/svg" viewBox="0 0 24 24" width="96" height="96"><path id="primary" d="M7.79,6H5A1,1,0,0,0,4,7V9.54A5.71,5.71,0,0,0,8.13,15" style="fill: none; stroke: currentColor;color:currentColor; stroke-linecap: round; stroke-linejoin: round; stroke-width: 0.75;"></path><path id="primary-2" data-name="primary" d="M19,3a1,1,0,0,1,1,1V9a100.07,100.07,0,0,1-.88,11.13,1,1,0,0,1-1,.87H9.87a1,1,0,0,1-1-.87A100.07,100.07,0,0,1,8,9V4A1,1,0,0,1,9,3ZM12,8v4h4V8L14,7Zm2-1V3" style="fill: none; stroke: currentColor;color:currentColor; stroke-linecap: round; stroke-linejoin: round; stroke-width: 0.75;"></path></svg>