<svg id="Line" xmlns="http://www.w3.org/2000/svg" viewBox="0 0 24 24" width="96" height="96"><path id="primary" d="M13.28,8.55,15,12v8a1,1,0,0,1-1,1H6a1,1,0,0,1-1-1V12L6.72,8.55A1,1,0,0,1,7.62,8h4.76A1,1,0,0,1,13.28,8.55ZM19,15V7.5A4.49,4.49,0,0,0,14.5,3h0A4.49,4.49,0,0,0,10,7.5V12" style="fill: none; stroke: currentColor;color:currentColor; stroke-linecap: round; stroke-linejoin: round; stroke-width: 0.75;"></path><line id="primary-upstroke" x1="9.95" y1="12.5" x2="10.05" y2="12.5" style="fill: none; stroke: currentColor;color:currentColor; stroke-linecap: round; stroke-linejoin: round; stroke-width: 1.125;"></line></svg>