<svg id="Line" xmlns="http://www.w3.org/2000/svg" viewBox="0 0 24 24" width="96" height="96"><path id="primary" d="M15.87,15A5.71,5.71,0,0,0,20,9.54V7a1,1,0,0,0-1-1H16.21" style="fill: none; stroke: currentColor;color:currentColor; stroke-linecap: round; stroke-linejoin: round; stroke-width: 0.75;"></path><path id="primary-2" data-name="primary" d="M15,3a1,1,0,0,1,1,1V9a100.07,100.07,0,0,1-.88,11.13,1,1,0,0,1-1,.87H5.87a1,1,0,0,1-1-.87A100.07,100.07,0,0,1,4,9V4A1,1,0,0,1,5,3ZM10,7,8,8v4h4V8Zm0-4V7" style="fill: none; stroke: currentColor;color:currentColor; stroke-linecap: round; stroke-linejoin: round; stroke-width: 0.75;"></path></svg>