<svg id="Line" xmlns="http://www.w3.org/2000/svg" viewBox="0 0 24 24" width="96" height="96"><path id="primary" d="M6,18v2a1,1,0,0,0,1,1h7a1,1,0,0,0,1-1V17" style="fill: none; stroke: currentColor;color:currentColor; stroke-linecap: round; stroke-linejoin: round; stroke-width: 0.75;"></path><path id="primary-2" data-name="primary" d="M20,17H9V4H20a1,1,0,0,1,1,1V16A1,1,0,0,1,20,17ZM9,17V4A1,1,0,0,0,8,3H4A1,1,0,0,0,3,4V17a1,1,0,0,0,1,1H8A1,1,0,0,0,9,17Zm4-9h4" style="fill: none; stroke: currentColor;color:currentColor; stroke-linecap: round; stroke-linejoin: round; stroke-width: 0.75;"></path></svg>