<svg id="Line" xmlns="http://www.w3.org/2000/svg" viewBox="0 0 24 24" width="96" height="96"><path id="primary" d="M3,9c5-1,9-6,9-6s4,5,9,6" style="fill: none; stroke: currentColor;color:currentColor; stroke-linecap: round; stroke-linejoin: round; stroke-width: 0.75;"></path><path id="primary-2" data-name="primary" d="M12,3A20.16,20.16,0,0,1,5,8.38L4.09,19.92a1,1,0,0,0,1,1.08H18.92a1,1,0,0,0,1-1.08L19,8.38A20.16,20.16,0,0,1,12,3Zm.93,10.32L16,21H8l3.07-7.68A1,1,0,0,1,12.93,13.32Z" style="fill: none; stroke: currentColor;color:currentColor; stroke-linecap: round; stroke-linejoin: round; stroke-width: 0.75;"></path></svg>