<svg id="Line" xmlns="http://www.w3.org/2000/svg" viewBox="0 0 24 24" width="96" height="96"><path id="primary" d="M5,3H17.5A3.5,3.5,0,0,1,21,6.5h0A3.5,3.5,0,0,1,17.5,10H17" style="fill: none; stroke: currentColor;color:currentColor; stroke-linecap: round; stroke-linejoin: round; stroke-width: 0.75;"></path><path id="primary-2" data-name="primary" d="M15,13v8l-1.66-1-1.67,1L10,20,8.34,21,6.67,20,5,21V13ZM4,13H16a1,1,0,0,0,1-1V8a1,1,0,0,0-1-1H4A1,1,0,0,0,3,8v4A1,1,0,0,0,4,13Z" style="fill: none; stroke: currentColor;color:currentColor; stroke-linecap: round; stroke-linejoin: round; stroke-width: 0.75;"></path></svg>