<svg id="Line" xmlns="http://www.w3.org/2000/svg" viewBox="0 0 24 24" width="96" height="96"><path id="primary" d="M19,3H6.5A3.5,3.5,0,0,0,3,6.5H3A3.5,3.5,0,0,0,6.5,10H7" style="fill: none; stroke: currentColor;color:currentColor; stroke-linecap: round; stroke-linejoin: round; stroke-width: 0.75;"></path><path id="primary-2" data-name="primary" d="M19,13v8l-1.67-1-1.67,1L14,20l-1.66,1-1.67-1L9,21V13Zm1-6H8A1,1,0,0,0,7,8v4a1,1,0,0,0,1,1H20a1,1,0,0,0,1-1V8A1,1,0,0,0,20,7Z" style="fill: none; stroke: currentColor;color:currentColor; stroke-linecap: round; stroke-linejoin: round; stroke-width: 0.75;"></path></svg>