<svg id="Line" xmlns="http://www.w3.org/2000/svg" viewBox="0 0 24 24" width="96" height="96"><path id="primary" d="M10,12a1,1,0,0,0-1-1H4a1,1,0,0,0-1,1v6a1,1,0,0,0,1,1H9a1,1,0,0,0,1-1" style="fill: none; stroke: currentColor;color:currentColor; stroke-linecap: round; stroke-linejoin: round; stroke-width: 0.75;"></path><path id="primary-2" data-name="primary" d="M14,12a1,1,0,0,0,1,1h5a1,1,0,0,0,1-1V6a1,1,0,0,0-1-1H15a1,1,0,0,0-1,1" style="fill: none; stroke: currentColor;color:currentColor; stroke-linecap: round; stroke-linejoin: round; stroke-width: 0.75;"></path><path id="primary-3" data-name="primary" d="M8,15h2m4-6h2" style="fill: none; stroke: currentColor;color:currentColor; stroke-linecap: round; stroke-linejoin: round; stroke-width: 0.75;"></path></svg>