<svg t="1736227100210" class="icon" viewBox="0 0 1024 1024" version="1.1" xmlns="http://www.w3.org/2000/svg" p-id="3819" width="200" height="200"><path d="M512 213.461333c259.2 0 469.333333 210.090667 469.333333 469.333334 0 49.066667-7.509333 96.384-21.504 140.8h-130.517333a46.933333 46.933333 0 1 1 0-93.866667h55.253333c1.92-15.36 2.901333-31.061333 2.901334-46.933333a374.314667 374.314667 0 0 0-28.672-144.128l-35.413334 20.48a46.933333 46.933333 0 0 1-51.242666-78.506667l4.266666-2.773333 35.797334-20.650667A375.168 375.168 0 0 0 558.933333 310.229333L558.933333 354.261333a46.933333 46.933333 0 0 1-93.866666 0V310.186667a375.168 375.168 0 0 0-253.269334 146.986666l35.797334 20.650667a46.933333 46.933333 0 0 1-46.933334 81.28l-35.456-20.48a374.314667 374.314667 0 0 0-28.672 144.128c0 15.872 0.981333 31.573333 2.901334 46.933333h54.741333a46.933333 46.933333 0 0 1 0 93.866667H64.170667a469.12 469.12 0 0 1-21.504-140.8c0-259.242667 210.133333-469.333333 469.333333-469.333333z m140.8 259.84a46.933333 46.933333 0 0 1 17.194667 64.085334l-80.426667 139.434666a93.866667 93.866667 0 1 1-84.992-40.704l84.096-145.664a46.933333 46.933333 0 0 1 64.128-17.194666z" fill="currentColor" p-id="3820"></path></svg>