<svg t="1736228516476" class="icon" viewBox="0 0 1024 1024" version="1.1" xmlns="http://www.w3.org/2000/svg" p-id="16706" width="200" height="200"><path d="M716.8 578.56l5.12-15.36-30.72-15.36c112.64-97.28 128-266.24 30.72-378.88S455.68 40.96 343.04 138.24s-128 266.24-30.72 378.88l30.72 30.72c-158.72 71.68-266.24 230.4-266.24 404.48h102.4c0-184.32 153.6-337.92 337.92-332.8 30.72 0 56.32 5.12 87.04 10.24 0 0 15.36 0 25.6 5.12 51.2-10.24 66.56-15.36 87.04-56.32z m-199.68-71.68c-92.16 0-163.84-71.68-163.84-163.84 0-92.16 71.68-163.84 163.84-163.84 92.16 0 163.84 71.68 163.84 163.84 0 92.16-71.68 163.84-163.84 163.84zM931.84 798.72c-15.36-20.48-15.36-46.08 0-66.56l20.48-30.72-35.84-51.2-35.84 5.12h-5.12c-20.48 0-40.96-10.24-51.2-30.72l-15.36-30.72h-61.44l-15.36 30.72c-10.24 20.48-30.72 35.84-51.2 35.84H640l-30.72 56.32 20.48 25.6c15.36 20.48 15.36 46.08 0 66.56l-15.36 30.72 35.84 51.2 35.84-5.12h5.12c20.48 0 40.96 10.24 51.2 30.72l15.36 30.72H819.2l15.36-30.72c10.24-20.48 30.72-35.84 51.2-35.84h35.84l30.72-56.32-20.48-25.6z m-148.48 56.32c-20.48-20.48-46.08-35.84-76.8-40.96 10.24-30.72 10.24-56.32-5.12-87.04 30.72-5.12 56.32-20.48 71.68-46.08 20.48 20.48 46.08 35.84 76.8 40.96-10.24 30.72-5.12 56.32 5.12 87.04-25.6 5.12-51.2 20.48-71.68 46.08z" fill="currentColor" p-id="16707"></path><path d="M793.6 732.16c-20.48-5.12-40.96 5.12-46.08 25.6-5.12 20.48 10.24 40.96 25.6 40.96 15.36 5.12 35.84-5.12 40.96-20.48 5.12-20.48-5.12-40.96-20.48-46.08z" fill="currentColor" p-id="16708"></path></svg>