<svg xmlns="http://www.w3.org/2000/svg" xmlns:xlink="http://www.w3.org/1999/xlink" t="1740107592156" class="icon" viewBox="0 0 1024 1024" version="1.1" p-id="7023" width="200" height="200"><path d="M725.312 768H768v42.688h-42.688zM768 725.312h42.688V768H768zM768 768h42.688v42.688H768zM768 810.688h42.688v42.688H768zM810.688 768h42.688v42.688h-42.688zM810.688 810.688h42.688v42.688h-42.688zM896 810.688h42.688v42.688H896zM938.688 768h42.688v42.688h-42.688zM938.688 810.688h42.688v42.688h-42.688zM768 896h42.688v42.688H768zM768 938.688h42.688v42.688H768zM810.688 896h42.688v42.688h-42.688zM810.688 938.688h42.688v42.688h-42.688z" fill="#F8C7A9" p-id="7024"/><path d="M853.312 853.312H896V896h-42.688zM896 853.312h42.688V896H896zM938.688 853.312h42.688V896h-42.688zM853.312 896H896v42.688h-42.688zM853.312 938.688H896v42.688h-42.688zM896 768h42.688v42.688H896z" fill="#F8C7A9" p-id="7025"/><path d="M853.312 810.688H896v42.688h-42.688z" fill="#F8C7A9" p-id="7026"/><path d="M810.688 853.312h42.688V896h-42.688z" fill="#F8C7A9" p-id="7027"/><path d="M170.688 170.688h42.688v42.688h-42.688z" fill="#F18B00" p-id="7028"/><path d="M213.312 170.688H256v42.688h-42.688zM256 170.688h42.688v42.688H256z" fill="#F18B00" p-id="7029"/><path d="M298.688 170.688h42.688v42.688h-42.688z" fill="#EDD667" p-id="7030"/><path d="M341.312 170.688H384v42.688h-42.688z" fill="#EDD667" p-id="7031"/><path d="M384 170.688h42.688v42.688H384zM426.688 170.688h42.688v42.688h-42.688z" fill="#F18B00" p-id="7032"/><path d="M469.312 170.688H512v42.688h-42.688z" fill="#EDD667" p-id="7033"/><path d="M128 213.312h42.688V256H128zM170.688 213.312h42.688V256h-42.688z" fill="#F18B00" p-id="7034"/><path d="M213.312 213.312H256V256h-42.688zM256 213.312h42.688V256H256zM298.688 213.312h42.688V256h-42.688z" fill="#F18B00" p-id="7035"/><path d="M341.312 213.312H384V256h-42.688zM384 213.312h42.688V256H384zM426.688 213.312h42.688V256h-42.688z" fill="#F18B00" p-id="7036"/><path d="M469.312 213.312H512V256h-42.688z" fill="#EDD667" p-id="7037"/><path d="M85.312 256H128v42.688h-42.688zM128 256h42.688v42.688H128zM170.688 256h42.688v42.688h-42.688z" fill="#F18B00" p-id="7038"/><path d="M213.312 256H256v42.688h-42.688zM256 256h42.688v42.688H256zM298.688 256h42.688v42.688h-42.688z" fill="#F18B00" p-id="7039"/><path d="M341.312 256H384v42.688h-42.688zM384 256h42.688v42.688H384zM426.688 256h42.688v42.688h-42.688z" fill="#F18B00" p-id="7040"/><path d="M469.312 256H512v42.688h-42.688zM42.688 298.688h42.688v42.688H42.688z" fill="#F18B00" p-id="7041"/><path d="M85.312 298.688H128v42.688h-42.688zM128 298.688h42.688v42.688H128zM170.688 298.688h42.688v42.688h-42.688z" fill="#F18B00" p-id="7042"/><path d="M213.312 298.688H256v42.688h-42.688z" fill="#F18B00" p-id="7043"/><path d="M256 298.688h42.688v42.688H256zM298.688 298.688h42.688v42.688h-42.688z" fill="#EAD464" p-id="7044"/><path d="M341.312 298.688H384v42.688h-42.688zM384 298.688h42.688v42.688H384zM426.688 298.688h42.688v42.688h-42.688z" fill="#F18B00" p-id="7045"/><path d="M469.312 298.688H512v42.688h-42.688z" fill="#F18B00" p-id="7046"/><path d="M512 170.688h42.688v42.688H512z" fill="#EDD667" p-id="7047"/><path d="M512 213.312h42.688V256H512z" fill="#EDD667" p-id="7048"/><path d="M512 256h42.688v42.688H512zM512 298.688h42.688v42.688H512zM554.688 170.688h42.688v42.688h-42.688z" fill="#F18B00" p-id="7049"/><path d="M554.688 213.312h42.688V256h-42.688zM554.688 256h42.688v42.688h-42.688zM554.688 298.688h42.688v42.688h-42.688z" fill="#F18B00" p-id="7050"/><path d="M597.312 213.312H640V256h-42.688zM597.312 256H640v42.688h-42.688zM597.312 298.688H640v42.688h-42.688zM213.312 42.688H256v42.688h-42.688zM256 42.688h42.688v42.688H256zM298.688 42.688h42.688v42.688h-42.688z" fill="#F18B00" p-id="7051"/><path d="M341.312 42.688H384v42.688h-42.688zM384 42.688h42.688v42.688H384zM213.312 85.312H256V128h-42.688zM256 85.312h42.688V128H256z" fill="#F18B00" p-id="7052"/><path d="M298.688 85.312h42.688V128h-42.688z" fill="#F18B00" p-id="7053"/><path d="M341.312 85.312H384V128h-42.688zM384 85.312h42.688V128H384zM426.688 85.312h42.688V128h-42.688z" fill="#F18B00" p-id="7054"/><path d="M469.312 85.312H512V128h-42.688zM682.688 469.312h42.688V512h-42.688zM682.688 512h42.688v42.688h-42.688zM682.688 554.688h42.688v42.688h-42.688z" fill="#F18B00" p-id="7055"/><path d="M682.688 597.312h42.688V640h-42.688z" fill="#F18B00" p-id="7056"/><path d="M725.312 554.688H768v42.688h-42.688z" fill="#F18B00" p-id="7057"/><path d="M725.312 597.312H768V640h-42.688zM682.688 640h42.688v42.688h-42.688z" fill="#F18B00" p-id="7058"/><path d="M725.312 640H768v42.688h-42.688zM768 597.312h42.688V640H768zM768 640h42.688v42.688H768zM682.688 682.688h42.688v42.688h-42.688z" fill="#F18B00" p-id="7059"/><path d="M725.312 682.688H768v42.688h-42.688z" fill="#F18B00" p-id="7060"/><path d="M682.688 725.312h42.688V768h-42.688zM42.688 384h42.688v42.688H42.688z" fill="#F18B00" p-id="7061"/><path d="M85.312 384H128v42.688h-42.688zM128 384h42.688v42.688H128zM170.688 384h42.688v42.688h-42.688z" fill="#F18B00" p-id="7062"/><path d="M213.312 384H256v42.688h-42.688zM256 384h42.688v42.688H256zM298.688 384h42.688v42.688h-42.688z" fill="#F18B00" p-id="7063"/><path d="M341.312 384H384v42.688h-42.688zM384 384h42.688v42.688H384zM426.688 384h42.688v42.688h-42.688z" fill="#F18B00" p-id="7064"/><path d="M469.312 384H512v42.688h-42.688zM85.312 426.688H128v42.688h-42.688zM128 426.688h42.688v42.688H128zM170.688 426.688h42.688v42.688h-42.688z" fill="#F18B00" p-id="7065"/><path d="M213.312 426.688H256v42.688h-42.688zM256 426.688h42.688v42.688H256zM298.688 426.688h42.688v42.688h-42.688z" fill="#F18B00" p-id="7066"/><path d="M341.312 426.688H384v42.688h-42.688zM384 426.688h42.688v42.688H384zM426.688 426.688h42.688v42.688h-42.688z" fill="#F18B00" p-id="7067"/><path d="M469.312 426.688H512v42.688h-42.688zM213.312 469.312H256V512h-42.688zM298.688 469.312h42.688V512h-42.688zM384 469.312h42.688V512H384z" fill="#F18B00" p-id="7068"/><path d="M426.688 469.312h42.688V512h-42.688zM512 384h42.688v42.688H512zM512 426.688h42.688v42.688H512z" fill="#F18B00" p-id="7069"/><path d="M512 469.312h42.688V512H512zM213.312 512H256v42.688h-42.688zM298.688 512h42.688v42.688h-42.688zM384 512h42.688v42.688H384zM426.688 512h42.688v42.688h-42.688zM554.688 384h42.688v42.688h-42.688zM554.688 426.688h42.688v42.688h-42.688z" fill="#F18B00" p-id="7070"/><path d="M597.312 384H640v42.688h-42.688zM597.312 426.688H640v42.688h-42.688z" fill="#F18B00" p-id="7071"/><path d="M597.312 469.312H640V512h-42.688zM554.688 512h42.688v42.688h-42.688z" fill="#F18B00" p-id="7072"/><path d="M597.312 512H640v42.688h-42.688zM128 554.688h42.688v42.688H128zM213.312 554.688H256v42.688h-42.688zM298.688 554.688h42.688v42.688h-42.688zM384 554.688h42.688v42.688H384zM426.688 554.688h42.688v42.688h-42.688z" fill="#F18B00" p-id="7073"/><path d="M213.312 597.312H256V640h-42.688zM298.688 597.312h42.688V640h-42.688zM426.688 597.312h42.688V640h-42.688zM512 554.688h42.688v42.688H512z" fill="#F18B00" p-id="7074"/><path d="M512 597.312h42.688V640H512zM341.312 640H384v42.688h-42.688zM384 640h42.688v42.688H384zM426.688 640h42.688v42.688h-42.688z" fill="#F18B00" p-id="7075"/><path d="M469.312 640H512v42.688h-42.688zM512 640h42.688v42.688H512zM597.312 554.688H640v42.688h-42.688z" fill="#F18B00" p-id="7076"/><path d="M597.312 597.312H640V640h-42.688zM554.688 640h42.688v42.688h-42.688z" fill="#F18B00" p-id="7077"/><path d="M597.312 640H640v42.688h-42.688zM469.312 682.688H512v42.688h-42.688zM512 682.688h42.688v42.688H512zM554.688 682.688h42.688v42.688h-42.688z" fill="#F18B00" p-id="7078"/><path d="M597.312 682.688H640v42.688h-42.688z" fill="#F18B00" p-id="7079"/><path d="M554.688 725.312h42.688V768h-42.688z" fill="#F18B00" p-id="7080"/><path d="M597.312 725.312H640V768h-42.688zM170.688 42.688h42.688v42.688h-42.688z" fill="#F18B00" p-id="7081"/><path d="M170.688 85.312h42.688V128h-42.688zM170.688 128h42.688v42.688h-42.688z" fill="#F18B00" p-id="7082"/><path d="M213.312 128H256v42.688h-42.688zM256 128h42.688v42.688H256z" fill="#F18B00" p-id="7083"/><path d="M298.688 128h42.688v42.688h-42.688z" fill="#EDD667" p-id="7084"/><path d="M341.312 128H384v42.688h-42.688z" fill="#EDD667" p-id="7085"/><path d="M384 128h42.688v42.688H384zM426.688 128h42.688v42.688h-42.688z" fill="#F18B00" p-id="7086"/><path d="M469.312 128H512v42.688h-42.688zM128 170.688h42.688v42.688H128zM85.312 170.688H128v42.688h-42.688z" fill="#F18B00" p-id="7087"/><path d="M85.312 213.312H128V256h-42.688zM42.688 256h42.688v42.688H42.688z" fill="#F18B00" p-id="7088"/><path d="M42.688 213.312h42.688V256H42.688z" fill="#F18B00" p-id="7089"/><path d="M42.688 170.688h42.688v42.688H42.688zM85.312 128H128v42.688h-42.688zM85.312 85.312H128V128h-42.688zM128 128h42.688v42.688H128zM128 85.312h42.688V128H128zM42.688 341.312h42.688V384H42.688z" fill="#F18B00" p-id="7090"/><path d="M85.312 341.312H128V384h-42.688zM128 341.312h42.688V384H128zM170.688 341.312h42.688V384h-42.688z" fill="#F18B00" p-id="7091"/><path d="M213.312 341.312H256V384h-42.688z" fill="#F18B00" p-id="7092"/><path d="M256 341.312h42.688V384H256zM298.688 341.312h42.688V384h-42.688z" fill="#EAD464" p-id="7093"/><path d="M341.312 341.312H384V384h-42.688zM384 341.312h42.688V384H384zM426.688 341.312h42.688V384h-42.688z" fill="#F18B00" p-id="7094"/><path d="M469.312 341.312H512V384h-42.688zM512 128h42.688v42.688H512zM512 341.312h42.688V384H512zM554.688 128h42.688v42.688h-42.688zM554.688 341.312h42.688V384h-42.688z" fill="#F18B00" p-id="7095"/><path d="M597.312 341.312H640V384h-42.688zM640 298.688h42.688v42.688H640z" fill="#F18B00" p-id="7096"/><path d="M640 341.312h42.688V384H640zM640 384h42.688v42.688H640zM640 426.688h42.688v42.688H640z" fill="#F18B00" p-id="7097"/><path d="M640 469.312h42.688V512H640zM640 512h42.688v42.688H640zM640 554.688h42.688v42.688H640z" fill="#F18B00" p-id="7098"/><path d="M640 597.312h42.688V640H640zM640 640h42.688v42.688H640zM640 682.688h42.688v42.688H640z" fill="#F18B00" p-id="7099"/><path d="M640 725.312h42.688V768H640zM85.312 469.312H128V512h-42.688zM128 469.312h42.688V512H128zM170.688 469.312h42.688V512h-42.688zM256 469.312h42.688V512H256zM341.312 469.312H384V512h-42.688zM469.312 469.312H512V512h-42.688zM128 512h42.688v42.688H128zM170.688 512h42.688v42.688h-42.688zM256 512h42.688v42.688H256zM341.312 512H384v42.688h-42.688zM469.312 512H512v42.688h-42.688zM512 512h42.688v42.688H512zM554.688 469.312h42.688V512h-42.688zM170.688 554.688h42.688v42.688h-42.688zM256 554.688h42.688v42.688H256zM341.312 554.688H384v42.688h-42.688zM469.312 554.688H512v42.688h-42.688z" fill="#F18B00" p-id="7100"/><path d="M256 597.312h42.688V640H256zM341.312 597.312H384V640h-42.688zM384 597.312h42.688V640H384zM469.312 597.312H512V640h-42.688zM554.688 554.688h42.688v42.688h-42.688z" fill="#F18B00" p-id="7101"/><path d="M554.688 597.312h42.688V640h-42.688z" fill="#F18B00" p-id="7102"/><path d="M597.312 170.688H640v42.624h-42.688zM640 213.312h42.688V256H640zM640 256h42.688v42.688H640zM426.688 42.688h42.688v42.688h-42.688z" p-id="7103"/><path d="M469.312 42.688H512v42.688h-42.688zM512 85.312h42.688V128H512zM554.688 85.312h42.688V128h-42.688zM682.688 298.688h42.688v42.688h-42.688zM682.688 384h42.688v42.688h-42.688zM682.688 426.688h42.688v42.688h-42.688z" p-id="7104"/><path d="M725.312 469.312H768V512h-42.688zM725.312 512H768v42.688h-42.688zM768 554.688h42.688v42.688H768zM768 682.688h42.688v42.688H768zM725.312 725.312H768V768h-42.688zM810.688 597.312h42.688V640h-42.688zM810.688 640h42.688v42.688h-42.688zM810.688 725.312h42.688V768h-42.688zM853.312 768H896v42.688h-42.688zM896 725.312h42.688V768H896zM42.688 426.688h42.688v42.688H42.688z" p-id="7105"/><path d="M42.688 469.312h42.688V512H42.688zM128 597.312h42.688V640H128zM213.312 640H256v42.688h-42.688zM256 640h42.688v42.688H256zM298.688 640h42.688v42.688h-42.688zM341.312 682.688H384v42.688h-42.688zM384 682.688h42.688v42.688H384zM426.688 682.688h42.688v42.688h-42.688z" p-id="7106"/><path d="M469.312 725.312H512V768h-42.688zM512 725.312h42.688V768H512zM597.312 768H640v42.688h-42.688zM725.888 895.488h42.688v42.688h-42.688z" p-id="7107"/><path d="M725.888 938.112h42.688v42.688h-42.688zM896.576 895.488h42.688v42.688h-42.688z" p-id="7108"/><path d="M896.576 938.112h42.688v42.688h-42.688z" p-id="7109"/><path d="M939.2 895.488h42.688v42.688h-42.688zM554.688 768h42.688v42.688h-42.688zM682.688 768h42.688v42.688h-42.688zM725.888 810.112h42.688v42.688h-42.688zM938.688 725.312h42.688V768h-42.688zM768.576 852.8h42.688v42.688h-42.688zM213.312 0H256v42.688h-42.688zM256 0h42.688v42.688H256zM298.688 0h42.688v42.688h-42.688z" p-id="7110"/><path d="M341.312 0H384v42.688h-42.688zM384 0h42.688v42.688H384zM170.688 0h42.688v42.688h-42.688zM0 298.688h42.688v42.688H0zM0 256h42.688v42.688H0zM0 213.312h42.688V256H0z" p-id="7111"/><path d="M0 170.688h42.688v42.688H0zM42.688 128h42.688v42.688H42.688zM42.688 85.312h42.688V128H42.688z" p-id="7112"/><path d="M85.312 42.688H128v42.688h-42.688zM128 42.688h42.688v42.688H128zM0 341.312h42.688V384H0zM0 384h42.688v42.688H0zM597.312 128H640v42.688h-42.688zM682.688 341.312h42.688V384h-42.688zM640 768h42.688v42.688H640zM981.888 767.488h42.688v42.688h-42.688z" p-id="7113"/><path d="M981.888 810.112h42.688v42.688h-42.688zM768.576 980.8h42.688v42.688h-42.688z" p-id="7114"/><path d="M811.2 980.8h42.688v42.688h-42.688zM853.888 980.8h42.688v42.688h-42.688zM981.888 852.8h42.688v42.688h-42.688zM85.312 512H128v42.688h-42.688zM85.312 554.688H128v42.688h-42.688zM170.688 597.312h42.688V640h-42.688z" p-id="7115"/></svg>